<mxfile host="app.diagrams.net" agent="Mozilla/5.0 (Windows NT 10.0; Win64; x64) AppleWebKit/537.36 (KHTML, like Gecko) Chrome/136.0.0.0 Safari/537.36" version="27.0.6">
  <diagram name="第1頁" id="Xr6qPvuBVOjhRml4uW-f">
    <mxGraphModel dx="821" dy="426" grid="1" gridSize="10" guides="1" tooltips="1" connect="1" arrows="1" fold="1" page="1" pageScale="1" pageWidth="1169" pageHeight="827" math="0" shadow="0">
      <root>
        <mxCell id="0" />
        <mxCell id="1" parent="0" />
        <mxCell id="e1ZmgfkXP5OLD1fUaubU-16" value="" style="endArrow=classic;html=1;rounded=0;movable=1;resizable=1;rotatable=1;deletable=1;editable=1;locked=0;connectable=1;exitX=1;exitY=0;exitDx=0;exitDy=0;entryX=0;entryY=1;entryDx=0;entryDy=0;" parent="1" target="w68-odYr32PwejUC4xN6-29" edge="1" source="w68-odYr32PwejUC4xN6-12">
          <mxGeometry width="50" height="50" relative="1" as="geometry">
            <mxPoint x="650" y="450" as="sourcePoint" />
            <mxPoint x="720" y="400" as="targetPoint" />
          </mxGeometry>
        </mxCell>
        <mxCell id="e1ZmgfkXP5OLD1fUaubU-14" value="" style="endArrow=classic;html=1;rounded=0;movable=1;resizable=1;rotatable=1;deletable=1;editable=1;locked=0;connectable=1;exitX=1;exitY=0;exitDx=0;exitDy=0;entryX=0.405;entryY=0.995;entryDx=0;entryDy=0;entryPerimeter=0;" parent="1" target="w68-odYr32PwejUC4xN6-27" edge="1" source="w68-odYr32PwejUC4xN6-12">
          <mxGeometry width="50" height="50" relative="1" as="geometry">
            <mxPoint x="600" y="430" as="sourcePoint" />
            <mxPoint x="660" y="360" as="targetPoint" />
          </mxGeometry>
        </mxCell>
        <mxCell id="e1ZmgfkXP5OLD1fUaubU-13" value="" style="endArrow=classic;html=1;rounded=0;movable=1;resizable=1;rotatable=1;deletable=1;editable=1;locked=0;connectable=1;exitX=0;exitY=0;exitDx=0;exitDy=0;entryX=1;entryY=1;entryDx=0;entryDy=0;" parent="1" target="w68-odYr32PwejUC4xN6-24" edge="1" source="w68-odYr32PwejUC4xN6-4">
          <mxGeometry width="50" height="50" relative="1" as="geometry">
            <mxPoint x="410" y="450" as="sourcePoint" />
            <mxPoint x="320" y="400" as="targetPoint" />
          </mxGeometry>
        </mxCell>
        <mxCell id="e1ZmgfkXP5OLD1fUaubU-11" value="" style="endArrow=classic;html=1;rounded=0;entryX=0.706;entryY=0.915;entryDx=0;entryDy=0;entryPerimeter=0;movable=1;resizable=1;rotatable=1;deletable=1;editable=1;locked=0;connectable=1;exitX=0;exitY=0;exitDx=0;exitDy=0;" parent="1" target="w68-odYr32PwejUC4xN6-25" edge="1" source="w68-odYr32PwejUC4xN6-4">
          <mxGeometry width="50" height="50" relative="1" as="geometry">
            <mxPoint x="420" y="430" as="sourcePoint" />
            <mxPoint x="383.5" y="364" as="targetPoint" />
          </mxGeometry>
        </mxCell>
        <mxCell id="w68-odYr32PwejUC4xN6-4" value="&lt;font&gt;&lt;span style=&quot;font-size: 16px;&quot;&gt;PRIVATE&lt;/span&gt;&lt;/font&gt;" style="ellipse;whiteSpace=wrap;html=1;aspect=fixed;fillColor=#eeeeee;strokeColor=none;movable=1;resizable=1;rotatable=1;deletable=1;editable=1;locked=0;connectable=1;fontFamily=Garamond;" parent="1" vertex="1">
          <mxGeometry x="383.5" y="410" width="80" height="80" as="geometry" />
        </mxCell>
        <mxCell id="w68-odYr32PwejUC4xN6-12" value="&lt;font&gt;&lt;span style=&quot;font-size: 16px;&quot;&gt;PRIVATE&lt;/span&gt;&lt;/font&gt;" style="ellipse;whiteSpace=wrap;html=1;aspect=fixed;fillColor=#eeeeee;strokeColor=none;movable=1;resizable=1;rotatable=1;deletable=1;editable=1;locked=0;connectable=1;fontFamily=Garamond;" parent="1" vertex="1">
          <mxGeometry x="576.5" y="410" width="80" height="80" as="geometry" />
        </mxCell>
        <mxCell id="w68-odYr32PwejUC4xN6-18" value="&lt;div&gt;&lt;font style=&quot;font-size: 16px;&quot;&gt;PUBLIC&lt;/font&gt;&lt;/div&gt;" style="ellipse;whiteSpace=wrap;html=1;aspect=fixed;movable=1;resizable=1;rotatable=1;deletable=1;editable=1;locked=0;connectable=1;strokeColor=none;fontFamily=Garamond;fillColor=#E7F0FF;" parent="1" vertex="1">
          <mxGeometry x="480" y="400" width="80" height="80" as="geometry" />
        </mxCell>
        <mxCell id="w68-odYr32PwejUC4xN6-23" value="&lt;div&gt;&lt;font&gt;&lt;span style=&quot;font-size: 16px;&quot;&gt;USER&lt;/span&gt;&lt;/font&gt;&lt;/div&gt;" style="ellipse;whiteSpace=wrap;html=1;aspect=fixed;movable=1;resizable=1;rotatable=1;deletable=1;editable=1;locked=0;connectable=1;strokeColor=none;fontFamily=Garamond;fillColor=#E7F0FF;" parent="1" vertex="1">
          <mxGeometry x="530" y="260" width="60" height="60" as="geometry" />
        </mxCell>
        <mxCell id="w68-odYr32PwejUC4xN6-24" value="&lt;div&gt;&lt;font&gt;&lt;span style=&quot;font-size: 16px;&quot;&gt;USER&lt;/span&gt;&lt;/font&gt;&lt;/div&gt;" style="ellipse;whiteSpace=wrap;html=1;aspect=fixed;fillColor=#eeeeee;strokeColor=none;movable=1;resizable=1;rotatable=1;deletable=1;editable=1;locked=0;connectable=1;fontFamily=Garamond;" parent="1" vertex="1">
          <mxGeometry x="270" y="340" width="60" height="60" as="geometry" />
        </mxCell>
        <mxCell id="w68-odYr32PwejUC4xN6-25" value="&lt;div&gt;&lt;font&gt;&lt;span style=&quot;font-size: 16px;&quot;&gt;USER&lt;/span&gt;&lt;/font&gt;&lt;/div&gt;" style="ellipse;whiteSpace=wrap;html=1;aspect=fixed;fillColor=#eeeeee;strokeColor=none;movable=1;resizable=1;rotatable=1;deletable=1;editable=1;locked=0;connectable=1;fontFamily=Garamond;" parent="1" vertex="1">
          <mxGeometry x="330" y="300" width="60" height="60" as="geometry" />
        </mxCell>
        <mxCell id="w68-odYr32PwejUC4xN6-26" value="&lt;div&gt;&lt;font&gt;&lt;span style=&quot;font-size: 16px;&quot;&gt;USER&lt;/span&gt;&lt;/font&gt;&lt;/div&gt;" style="ellipse;whiteSpace=wrap;html=1;aspect=fixed;movable=1;resizable=1;rotatable=1;deletable=1;editable=1;locked=0;connectable=1;strokeColor=none;fontFamily=Garamond;fillColor=#E7F0FF;" parent="1" vertex="1">
          <mxGeometry x="450" y="260" width="60" height="60" as="geometry" />
        </mxCell>
        <mxCell id="w68-odYr32PwejUC4xN6-27" value="&lt;div&gt;&lt;font&gt;&lt;span style=&quot;font-size: 16px;&quot;&gt;USER&lt;/span&gt;&lt;/font&gt;&lt;/div&gt;" style="ellipse;whiteSpace=wrap;html=1;aspect=fixed;fillColor=#eeeeee;strokeColor=none;movable=1;resizable=1;rotatable=1;deletable=1;editable=1;locked=0;connectable=1;fontFamily=Garamond;" parent="1" vertex="1">
          <mxGeometry x="640" y="300" width="60" height="60" as="geometry" />
        </mxCell>
        <mxCell id="w68-odYr32PwejUC4xN6-29" value="&lt;div&gt;&lt;font&gt;&lt;span style=&quot;font-size: 16px;&quot;&gt;USER&lt;/span&gt;&lt;/font&gt;&lt;/div&gt;" style="ellipse;whiteSpace=wrap;html=1;aspect=fixed;fillColor=#eeeeee;strokeColor=none;movable=1;resizable=1;rotatable=1;deletable=1;editable=1;locked=0;connectable=1;fontFamily=Garamond;" parent="1" vertex="1">
          <mxGeometry x="710" y="340" width="60" height="60" as="geometry" />
        </mxCell>
        <mxCell id="w68-odYr32PwejUC4xN6-34" value="" style="group;movable=1;resizable=1;rotatable=1;deletable=1;editable=1;locked=0;connectable=1;" parent="1" vertex="1" connectable="0">
          <mxGeometry x="420" y="540" width="200" height="99.99999999999999" as="geometry" />
        </mxCell>
        <mxCell id="w68-odYr32PwejUC4xN6-35" value="" style="group;movable=1;resizable=1;rotatable=1;deletable=1;editable=1;locked=0;connectable=1;" parent="w68-odYr32PwejUC4xN6-34" vertex="1" connectable="0">
          <mxGeometry width="200" height="99.99999999999999" as="geometry" />
        </mxCell>
        <mxCell id="w68-odYr32PwejUC4xN6-1" value="&lt;font style=&quot;font-size: 17px;&quot; face=&quot;標楷體&quot;&gt;第二代平台&lt;/font&gt;&lt;div&gt;&lt;font face=&quot;標楷體&quot;&gt;&lt;br&gt;&lt;/font&gt;&lt;/div&gt;&lt;div&gt;&lt;font face=&quot;標楷體&quot;&gt;&lt;br&gt;&lt;/font&gt;&lt;/div&gt;&lt;div&gt;&lt;font face=&quot;標楷體&quot;&gt;&lt;br&gt;&lt;/font&gt;&lt;/div&gt;&lt;div&gt;&lt;font face=&quot;標楷體&quot;&gt;&lt;b&gt;&lt;br&gt;&lt;/b&gt;&lt;/font&gt;&lt;/div&gt;" style="rounded=1;whiteSpace=wrap;html=1;movable=1;resizable=1;rotatable=1;deletable=1;editable=1;locked=0;connectable=1;" parent="w68-odYr32PwejUC4xN6-35" vertex="1">
          <mxGeometry width="200" height="99.99999999999999" as="geometry" />
        </mxCell>
        <mxCell id="w68-odYr32PwejUC4xN6-2" value="" style="shape=image;verticalLabelPosition=bottom;labelBackgroundColor=default;verticalAlign=top;aspect=fixed;imageAspect=0;image=data:image/png,iVBORw0KGgoAAAANSUhEUgAAAusAAAEjCAYAAACLqk95AAAAAXNSR0IArs4c6QAAAARnQU1BAACxjwv8YQUAAAAJcEhZcwAADsMAAA7DAcdvqGQAAP+lSURBVHhe7P0HnB3HeeYLvyfPmYycCRDMYABzzqSyRNlKtoLDOu3P9t611+He+32bHHbt3evd9e71rmWvLVuSg4JtWRIlSiRFMedMgGAAAyIBDMLkmZPPff5vdc8MQBAYyRQ5Auo58053V1cObz1VXV2daQsWERERERERERERETHnkE2OERERERERERERERFzDJGsR0RERERERERERMxRRLIeERERERERERERMUcRyXpERERERERERETEHEWm3m61MzrJ8Z6pv2qaMQxaGOo81+LAv0PfQ3ULM8D9Zjh1HHqf6yDt5F4mObrbQ7xvZltuhI2sIpRJ7rczwX3qUpcRERERERERERERxySmyHpWZD0Q4mmyntFJFh7thDilzm+MjEHqD0XqRkd5gb9tBYRpuAP5JpBpm6ClAUIIMcTB4yYLLdh5Qt7dfnw2EBERERERERERcYwi04CsH0KUU0DWQSDYfvr9AaKdYKY3fo7fM+5Pgdl8SDm/KaIeLBKv5DSS9YiIiIiIiIiIiGMWmVarNUWVmyLEEOipmWxH21oixGGe+42Bu8wRmXNwn8Wz1CscHQZ+WxHwwUJi1+MgM0LI+uhBJx5Z7kZEREREREREREQcexBZb7YhxZDhhtgv/DfPkhjn8CLquZbIe0qwE+b8RsBeOEmOM5Cyf2bMfQ18ChbPhHv8n3aZt3wrzygBK9aU13D0nAyy7lwGRBaJiIiIiIiIiIiIOAaRaYuss9yEFzfrCfEtiKhnmnWdmA1bzcrW7RPYU++g6t/Ui53J8SDePM24HeEy/IeaZw8i6+FO6iQMF9o2YXXrbJcs28z5e6sNxYUBRaGtIQUz7ooRcY4vmEZERERERERERByryDTb9XaWaetM1mrJZHW+2RIhblot37Q9NmnZds4yTGuLRPvLoIkEojxNtbMmYj3jPsLPrSUz68yit5i5D4Yi7jJjcJCw7vDfNHBo2yLrs45aUWY5a0LWZVZoibkzuMhmdc2diIiIiIiIiIiIiGMTmYbIes4Xq+esLrIOpS7yr1W30VzV/u7JO+2Rl56yum/LqBtOutsmrpwQ7HANy86LeSec248Z2dUYIDnH0Czn13IvA9xrGCB3/A9z6kEy1p9bah+6+H22srBYzB2yzux/y/IJWW/l8h4jcfiIiIiIiIiIiIiIYxKZmsh6AbIu2txIJsZZs95sVm1/oWL/666/t5s33mGT2Wog3QnZzuUSap2QdzZgzGVbiZ0wY+52JZyLjzs5z0O4rWU53QiSsYJuZuUDL7Y6iRcZX5Y/3X7++k/Z2uIKKzQ7rJ1nJr1puSYUPau4BrJekkREREREREREREQci4AfT8EvWi1xb5HpQl6UWLS6yMunLWtLmBXvFKkvZ3LWKeFYSqScyVtZpLszm5fITOQ6B/nnbdBcWyQ9Yx26V84UZa8k6bByrkNmJYVCSLIGqceJiPtkuyKCDnvHQEOBVpOhgd8V7ZeEBTlNkfdpaX1/ojQfdvvI4xhT2ZGc+PKl6UtHzLKIiIiIiIiIiB8sMs12q51tsj1j1mmwTPRPNKydt3Gr2R88+Gf2lQ132ES+YSd3L7frVp5n2bKsVGtWF0Gvl3M2OTFpi4r91hLBLojxtwtmg5kJ27T3Fdu6/zUrZgt2YvcSO2/VGVaS100R76yIO3R7+8AW2z2ywxq5erKZTMEyraLNKy6237zul2xNfoXPtPsMfitviqqT+marYVt27rAXnnthBtEOdD5A5/4iKqdYmLLkSG1i2tXVZRddeKF1lovB8ChI19fPNUynMLwrkJr4Z6+SnXqIOdHnvYEUWZYvJecpmqLm+bBnpzK8ZROZhszyVlItKcgp/vsyJM/b7xUhLhEREREREREREUfGrMj6bc8+aBPZhl2+4lz7t+/+FSs1O6xDZG8wP2ZP737Gntu00T5+/ccsZ51WbLRtLD9pd+9+xP7m3i/Ih1HraeTs2tVX20cv+YjNsx5rZeo2oN8Te5+wrz/0NasVq9aE9GUKCrmksEu2KLfQ/s/rfjkh68RL/5ph6UtOtuqtut1+5532D1/+B2KdEHZRTv87lHpy0y1MgQED9rJK9/wF8+3f/dt/a91dncndI+OHkaxvfXW73XffA9Zo1i2fz1lL6WeQctMHbrJiSQMktzmNptzm5I6Ne+DsNa8XWevggADWN+Vh87MFoczNvIuIiIiIiIiImIuY1RRnvT1hjcy4FQoZ0fEO6xZZZaJ2874X7Uu3/q34V8PmW7fNa+StU0TwxddesK/e/RWbLA5bLT9izeyk5Qs568p1WbndbblG0XYN7LHvPnKnVXKTut9SRPKWbxat0CyIJObEzVlDcwix06Xz5PCP1TpWrzeCNDjWrV6rW61eO6o05KaBm0Zd6WKQcCwh5BtpYlUTH6saGRkRWb/P7rv3PrvrrrvsnrvvsQcffPCgGfaZaMkVrzL4Fvs6stMPrwE7OFBzfCseLr4XORLSAcbRJCIiIiIiIiLi+MCsyHrbRGjFs1h+zsrl0WzbHtz7qP2/t/6x7crst6rsZFoFWZiw+7Y9ZH95z+dtKLdPBH/SMrmsNXNFa4rEV61m+/P77cF9j9rfPfRVG7Jxa2T58FFJfpddrN2hMNjjBZZI9FKCF0iac0tYuk5aMFHdfx19mzJwy+H0EORyop6+/CPjW0e25Rcz5rORHw4EcpymPuREWwOUpg9uWKfP8Y0W64ecJ3+bXu4FSZhEly8i6fV8xmrhkcf3IEdDiOWRJSIiIiIiIiLi+MGsyHqxUDT2Yi9k8jZpFXt87xP2h9/4H7atvceGM1VrZgtO2B/d/YT98b2ft13FQatn61YSgS+0uyxX6LZGu2Zjts8e2ne3/e1Tn7fd2d2+HWPWypaTnbZIeiNTlLuC1UXuTWGllDFAJFHE0umaE+aMCHdep1nLSvAJ8p3P562zq9O6u7p8mQfC8hauZ0qpVLRyuWwdHSWlL+/LYRyH44QzzXSE305x3PQopOYuXLuEHzPYyLR5EID9FKn7mUjtpulHgl/6cZS8zm/+kUe+LWaA5xF5N3Uvf1BYU24lOf3LaJDWytTC0n+uw9hIY6iMr4RJV8OAEA+O6fXrBT9mHoNgEBD2FDqcpPeC/UMlIiIiIiIiIuJYxRuvWW/lbVxE7b8+/Bn71qbvWrXVsKtWX2yfuOQD9od//0c2YLutWmTZS49dtewSe/dpV9uf3P0/7ZXssIhv28o+692yZjlnRcvZNavW2YkLltl3Nn7H9mVGLMdMeruskIqB+Cn8hohlU4S9LVmTnWe/ftXP2ZrCYpFEdqOp+4unfAgpq+tGq2233nGnffmLX05m2BVnEcmTTlprP/axj1lXd6ebM2Me9nSXlUPADjKAWfZly5bpqEFHtZrYD+SQI/ebjabl8jmr1Wouk5OTNn/+fCuI6ON1o6lwIPwQSF2zJr5SrTiZxM/Un2JRuaEjg4oQZWb2W+6PQ2a4qdWVXuLBfX7t4D/usI+MjY0laTcNPkryo8NKxYI8TYisfi3Fi1CeeOJp+/M/+wur12sKP+NLgFir/9u/9dtW7uyQP0qf8l9W3T6pn2gf0ICKuHRYOdNrxXbTOnjo4UuUPKpeZ5qqPwyUCIswK5WK++92FI9SsUNnGStqgJSTvUazMZ1e4qg0kNa6ymMm+caM9LZ5kiLUanWbnJhwWbp0qZuRlwC7ERERERERERHHGmZF1r/x/N0+o37p8nV2zZL1tq8+6LPZrXxZ5Llh8/IF627mbGvmgK7z1tMqiVzW7IWhl+3ZkeetlK3amnKfTUxU/MukbdnJsvSl3eEkvZ4VqVfgrUxBPLMsIt9pSwv99mtX/6zI+sLDkPW2yHpLZP0u+/IXRNZFIj3O4mtnnrnO/uW//Jcir7BKuRP5mzm7nAKiDtFLiSLHPXv22l99/vO+PCRdIoOdj3zkI7Z6zWp79tln7dZv32rbtm9zMvrrv/7rGhyc5P7BFVligr8vPP+83XPfA/bqq6/a+Pi4m0G2Iep9fX22du1au+zSy+zUU0+xfE75rjwgfAYJUNWhoSH73Oc+526JG7PKPEX46Ec/amtOXGOPP/a43XrrrTawd8CqFQ0uFNfOri478cQT7aabbrJVK1d4/JsixXfffY89/NCj8mvCXtu5K0SUQZQGX4R76imnKOy2ZUXgGdhcf8P1dvFFF9vu2n77xiNftdF83YodK62zudiK44P2vuuusv5MtxXg4oosvF3OFFbLNmzcoLAesldeecWGR0b8PnHLF4p2wqoT7MILL7RLLrnISh3F8DREZU50KKOt27bY3/7tl3x5ToqC3P3CL/y8dXd322NK82233Wa7d79mecX7v/yX/2IdHR0hf+Q+kvWIiIiIiIiIYxG5f/9b//63WHrcFtlxuuPrkIW2SLSI+4M7n7RXB3ZZTgT7jN4T7Z9d8jFbv/QcO2fFObZmqYiqSOjQ9j32wYvfY+csPtcuWnimnbbkRJtoTNqTLzwpoiyyJ/7VEJlvWFnEqqRwROazBWtAECFsvLzYLlhBBL4gQp7XeWeubJetPt/6s526rzhleOUx68SVKLLs4+VXt9izG5/lboASsHjxQrv00ksDEU9mo0lXkroppATdZ8OBPBkaHrZ//Md/tH379tr+/fttaHDQDhzYbxdfcom99tpr9pnPfMZ27txptWrVSeXVV4m49vcnM8pmewf22h9/+o/ttttvl/3dNiaCDKmHxGOn2WjZsMLYs3vAHnnkUdu1a5edevJJTjpBVsRdYyeryP+vfe1rsrdb4R+w4aERGxkdt7POPtvuvutu+4d/+EePX7XKLH/DiTLnewcGRGofsxNWn6BBQa/SmLWHRJ6feOJJhTvipDwAchvSvc/TOWT79u6z8YlxEf61kjW2IzNktz57m+1pDNnQRMv27xizlzY8addeeZkGXx0+sAv1Jgwu/uiP/si+c/t3bMeO7TZZqfjTB17eZaBSq9aVp/vt+eefs6eeelqDlFOtp6dbcaAciEXb4/7NW26z/QeGbHBw2GVsdMyuuuoauXnG/vqv/kbxHE4GJ2bvec97pp4yUJaRrEdEREREREQci0iY6pExmRm3eqEiZtWwzkzJ+jMQwbY9N7jJvnjvl2zEJkS3y9bd7rO8fHxi31P2xae+bKOd+0W8J60oYjghhlWTXxlj2UjOmtm2yLoIrO6xHCbf7LVsq0fmHTZZFD138jWTgEE0U7IJ3picsdQD5z5TnSyhOBSHEjyWbzAYwF84Lc58klfxg1x/9i8/56Q5m1HcZYH13txvi61CfJ99dpP9t//2h/byy6/4cg2WxbCig6U1wQ6z+wpPoxOIdUWk8/HHn7Q/+IP/6sSUcLDP4IEwfGAid60my1AC4f/uHXfa7bff4eTc/VX4zFDjjoEAdkZHR+2zn/2s7RbR93QprgwYgA9cPMnkC3kQ0uvbWOoGZJ7bPIlgKZOGa5apjFtr3wHb9sCT1jdas766+T7rWGxImLH/w//+323L1i1WrVXdj5YIOnnvS32wmuQzaWaAQj7t0KCn4U8clPNKSEZxIz9JbyoNpWnTpuftb//2izY5id/um/ub+nloOUZEREREREREHEsQW4O1pSQOpCdhtjiTETEUMc9YQzyTmXCRad17ZNdT9hf3/6UNZAf4Mo6ItkhoZtDu3fmwfeXBm2VnTESxLtJWsJbIX6GVd4JpWchr3toNEUJjRrnD16k3ZI+dYZq8WOovl+qewm1J2syqt3NhCQxRSzBN0TiDCpOcrOUVTr3eVPgisk1IKISUdeRIe0rSlzR96YXyIHzJFL/YyV3kEbIsuf07d9jQ8JAH0xSxJF84Z6mJEmhbt22zL3zxSz5LTbgQc9aAM6CRC8srf5B2RiSW5OFW/yDXu/cM2J/9+Z/7Gnhse/CJeDgisSyBgXBv2rTJiW2jUXPxqW3ZY990/GPtOH4yU/7kE0/6rHaIJwMP1oOz1j0xk33SzjIVX6PPucTv65hrN604UbTMLrOdj7xohYkJX/pSaOUsp7xj5RFx+t9/9ue2R2kg/gwGIP7kSalc8tn9ru4uX2JDHHhywFr8/QcG7XOf+ys7cGBI8eAJCOUjPz3B0yD+3/nO7T74oj62Wg1PK+8ApPc9HYc6jIiIiIiIiIg4RgDdTJAQHt8ukSsRWLhgtmVFkeciLFLkcNAq9sTAs/aXd33B9jQHZKVuOZHEanbcHtl9j/3dhq/Y/sZ+kXdm4Yvyo+hkvdwosNhFPJwXIPlKaUnu+B5mUQQ9Z/WcyFeO5RkZKzQh63xNlFjUk2FDTrRXcfBoQi25HeIsJzLhXsbGxibsySefsWeeftZfqnz66Y2+jCLI0/bU0zpOydO2a/ce98tnl0U2g/fkgUTxqlRq9tquXTIXmc2HddZ8RChf1IBD+QFJ/Zsv/K0NDAwkpD/MzLPbzIIF8+yc9Wfa+973Lrv22qvsxBNPsP7+HtkhnQpC9hgGbdz0rP39V/7Bl40QPv6mgwLILPvH46YthlwoZG3J0oW2du1qW7Z8iXV2djhZZWCQZW0+gw6NSp5/4QWR25YtWDjfTjhhlS1fsVxkGe6v+yL0HFmjvmbNGlu9+gQdT5C9ldbX2+O5S8nYgazt3zRsnZUOjcdEwvMaNFA/9Ndq1mzjhmfsuedfULwVr6LKWfEod3ba6aefbr/0y79kv/6bv27/6td+1c674Fxfp05pYierwcfLr7xqT6pMagxuknh7hrgoH7GrOrRr12vWUFg55b2TfuWb74svf2a+cxARERERERERcSwi02o32xlmoLMifBByN2X/bWNu3P7H439qNz97p5XKZpctXW8fPvfD9uff/JztaO+xYp9I6bjZRcvX27lnnGWff/hzdiA3JObbtrzIY6lZtF5baDX5V2p2W6PAi6Q5a7REaBVMTfwvV+wQCc+JfOU1cghLZPgAz6LcIvu1q3/UVhZ6Lat4QfTrImUFuSVudZG027/zXfvSF/9OlzKA4zlhDU8JwvpsCF2YMT8YgSwz08zLo+9973tFPlu+zvy3f/t3fHZat0Qiw4udtdqkdXQUnCz29PTYFVdcZatWrrQzzzrTntLA4C/+4i98lhkCSVDszHLaaafYJz/1CVu0aEFCKpu+jvvll1/1XVlGRtjJJZBs4tPd02W/8Ru/IeK8yoaGhu3f/bt/byPDo7pP3rDshScTGfvJn/oJO0vhQlgJ8+mnN/gSHQg6/jHzjH/z5vfZ7/7u7/jWlKRn48ZN9ulPf9rqtYbbYzeWnt5u+w+/+x+ss9whO+wSE152JR0vD71q/+n/+QOrjmgAUclowFawJQvn2e/87m9bUXkxODxsv/Vbv2OD+0ZC+jSQIOyLLrzI/tk/+2kf0KRg2c/XvvZ1u/XW23xZDsScNJ188sn2G7/5a76DzYubX7T/5z//t/A0YAZCWbZ8XT/vB1x7zdW2bNliO+ecc9ycfIhkPSIiIiIiIuJYBdOZB2OK9/hctaPdU7BKrunLEQa2brWrzlxvP7r+Bnv32uvt+vXXWbs/Z5995Au2vz1mOZHSsghmvlW0Vf2n2LvWfcBuOvXD9v7TP2jvOemddvkZl9riJcsskytaLl+CTiuEQNSZPYfIhcUuhJ7K4SCS60Q3QUJ62QEFcsoRQuiz1eHWQQK5ZQjQhvwLzKpPQxbcv4zIbVj/zjppdmP57d/+bd9x5fzzz3cCfedddzrB5GVWSCNkd8WKFfYzP/MztnTJkqnBA0d2gzlz3ToR7p+0sgiyE3XdxP3ExIQ999wmj9fh0GzW/cXRiy660Hp7e6yrq2w93d0ixxfaxRdfJP/DwMKh8CYnK1O7yRAuS12IA/YguHzxNY0Ty1Mgw6QR4o1kJkSEK7IvKbZVVmz7AsmW9w3Fe9e+ARuvVtx/JCe/Ojs77T3vfY/PshMeILySrq+99hqbP2+el0VYtpKxbdu22ssvvSQ/uT48sNs/r99+6qd/yn7rt3/L3vXud9m5557rYaYz7JD2iIiIiIiIiIhjEa8n64cAypWrVK3UFunKdtqVZ99gN515k/3ImR+0q8+4zuYvWGTPvvK0jU3utXK703obIn21khVtvq3oOd2uP/Hd9r6TPmDXn/wOu/bU66yvMN/27R8y8WlxP8gW5BzCzox6XhyZ5S/MyhK1VBSLdNb/sIDspYQPe2GGGULncILI2maO6XlY6wzRg+tN+576k6Q9n/WZ8g9+8IN2xRVX+EeWmOHGVmVy0neJ8SUyyfITCO91111rff28hCs/ZO5hMFUPZLhOhP3ss892shzixiCj6VtDNkSiD0WYCS/alVdeGQySyLKkhL3Lb7zxRn+plcEJcfCvseo+pBuyTDwIg/wg3j4jnS+4Xc6x60fd54jdopU04CpYvq0yYc1/XQXWlB8eMDvf7LNatRbSIOCGLSnLHWUbGR62waEh34FmaGjEDgwe8LgsXbZU4bMDTyD4DKSYUff1/cGbQ9C2Dg1qPvnJT/ogpVgseN4TxxTpuvWIiIiIiIiIiGMRr6dIsDkRr3AiXigyVs7mLSti15HrsI5WyXrbPSLmBdu+9xW77YFbbLw9YrkO1p2L/MGbCjlriyxnddEt4l3UcTLbsGd2vWD3PfmISBqctahgINRFSUFkl+UM4Yjk85B2iDw/yPwbIMNaboQYt51c8/Einx0WKXSCp2vIO0Q6FWZ7MQ+zzdN+pekG+AcPZI/1q66+ykn71G0FODg4GGbeobD8SZjRX7XqhDCz7GYszWFWOwjXxULBTjnlFHnCgEHk1bdsbPl2jCwTcWJNGPoXSHbwe+HChb4WHr9Jbz4h4/3z5mkQwRaX+B8cQmD9NAU3yCM5hOwizIa7Pd3iHIT8YAY9PPHgHQaedATiLzvyIyPSvmf7TsupXDFzsi1PNm/ebH/wB39gv/f7v2+/93u/Z//xP/5H+z3Jf/7P/9n+03/6fXvppc1EIAwS2mHHGLayDP5OZeyUYL7+nPW2fv05Xn7pbD3lxz3C5DyS9YiIiIiIiIhjFa8n64cAIgQBhw9lrWn15qRVc+O2YecT9q0H/sGGG3usVWQbxqzVcm2ri981IaVO91h/XLXx3Kg9tucZ+/ITt9hgpmItkcApMshs+owjxJw16wikM0SRY0rIpsnctIBwXLZ0qX38x3/cfuzHf8w+9clP2sc//uM6fsI+OSUfd/nxj3/Mr9etO8PdBcz0Kwjp5+NFkGSfUlY02FYQslhjlxLd9x1QEqfMpLM8I42uDyTwh4sps5a/cIkjOCqz8vjjxDedgZ9C8Jj8R/zcr2Xugwvc69T/+eUUkigFpGQYZ7JHvKbgHmKekHwPiBIUadc55c+DDY+bJKMBBQMxJJ3Z5iVYlvIw4Ni3d6/t27dP5/ts7769tlfXYV949kiHZMv7JHwGN0QqpPugGLvd0047VfkJIVeMZtTWEMfpY0RERERERETEsYgjkPVpEsRy8jzLD9o1qxTG7ZG9j9pfP/DXNlDfabmCiGqjrfsdluNlSGbGWT7RyInUNW0iM25PD2yyrz12mx0oVq0iQs8uK+6pjrxAeRBh95dMOSf8Q4lYeg2pm0ns0uu29fT22FVXXWnXX3+d5Fq79tpr7brrr5ZclQjnV/v9a6+92k5cu9pnhts+sEgx7TcvXbKbCsQRgWhDjCHgrPdmJpwZbmaq8yLpzNbzImnwIsySM2vuV8yac6Jk8GGldDmIG82KdE6nc1pAenyzQXzld4YnJi1/CTmMDETUVW7sNU+eMFPOAIWlNcx0F0slz5uDpRCOGvTw8mmpo2QFmZFuH+wk4U1DAxyFteqElcl1wA8qpRERERERERERcxGvJ+twRohjcuRQsIZEZC3TtpcPbLMvP/RVG+oYs3xH2cqtLutrd1tHNWOdDb5C2iGiLuLeLFhVxPbJ3S/a3z16q41kqmJa8q+dzqJD0hOinpB2lltgHu55BCSzwTSFY7kG8RaHdOcQ4teDGfMgENF2uyGTdEY79Yt7YWadz91DWiHkU6Rat9mdhCUsvNBKWMwusy3i1q1bkxdbcS+77iScc4o/ewb2+C4pgGuWePT19YX4zwGwECarPNEQTVeSjAY0yqtGu6lxVtZ6+HIr6ZEwoCFfWJP+iU98wp9ofOqTn5qSn/gU8hPJMUh677LLLvO0exhTCGVA+fCOAH6TR8E8LZ+IiIiIiIiIiGMfR59ZF1FqF5tWz7etkcnawGt77eLTzrIbzrrcrj79Wrts3fW2aulJstcScW8ZE+eAJTGvju+xLz32bdtWHLZKoW58pJ7166xnaPvSj/QIQYXwzTzKHmsvjojXk7cwi82HgwL589UVAj5Ni1NvjH2mnC0ZD/UHuCn3xfwZtkAafaZcghuI5KKFC52wQzgh2ty7//77fMkHPvruNk5GFSvdA3yS/9FHH3V3MwcAZ5x+hs9MzwXw4aMcafcnDhrQkGNEkzhnc7Zw+TJr68gAhTSyPeboyKjvsX7lVVdIrnwD0b0rr7DLL79cx8tl/zTP6NenW4Mb/TDniUSKMHyMiIiIiIiIiDg+kIWOAVHxMLnpHDarK75ZyuryppUnC8b+Lh35kl217kp7/2k/Zjet/bi99+SP2vL+lbZr/x7L5nutIpJdz+RF7LNWz2ZsYHLEBvMVy7YLkpxVmZ/PlnyHkYLMii3528xbsSFpFq3QYgeSkkiijpmySCAz8BA0EcZsW/cUPQizk3zFWefM1PN100xbhBlJfkU+oiO34pZ+DP6kwop41sVnFU5eUrCchJcpgw2OQaYHEMm5CDdfdGUUwKT91SKgJdaoJ3nHrilbXtlqn/nzv7DBA0M+aGjyXX7lJNtT7t49YH/913/jL6cyaPBZY/lV6uiwc9azQwyDAspD0D/u+8+fSiSi+IR1/SGNfu0DG1whnOOJQhDDZvySL6gkmyLWcpAubRmfGLPR0WGPI9Gv1ms2NjHhxLsJASdu7hXEmRQo18hrkeflixdaqcj2iSVfw4+Mj0/aLbd8yz8kxVr2dD06MW7pdEj58Zef+ay9tPllGSvMpgYqimOWPfZVH9JynBJ+impOecJ4yvPL0xcRERERERERcXwArpdMYE+TIM5SwUJHScSQj96IKpVEuCGKdf1e2rfZ7nziOzbRGrWGiFczK0IoQtry2VfIXhBmzqFZLR39o0i6H4TzfHLUPZdwHeihR8xxEEXTRbhzkOn3iRDOdEjTZ4cD66hZ4w5RZzb94osusoULFoZ1277PediGccOGDfYHf/Bf7Etf+pLdf9/9dtddd9tnP/t5+8M//EN75ZVXfMa+kex1npe78887z3d7SWfZpzH7uE0jzRfZ50/SWS77enruscYeK9VK1f74039iX/v61+1vNID49Kf/1B5//HHdYkAUfDgUPBwg3QsWzLcbbrg+GIpRsxSGL44+9NCD9ify89mNm3zrxvGxcduxfad965Zb7L8oPx64/37733/6v5U/z3j62ZYS0s5xOn0cJVPFO3USEREREREREXFcwcn6QUiWagDmNiFm7XbNSiKVxRYzuW32d7GN+5+yrzz8ZdtT3yVy3rJ2nfld6LwIKzOkyTnrz9PdXbARXiwtiAzyuX7OJSL5SBtSz2JzEXpikcoUxN+cxsnQ33X0m6kNjhJufr84yG3i36FIjNJsYh/wmz54ky1ctMDXqfuWkYok5H3Xrl1253fvss99/vP2+c//lYjqA/baa7vkCiIaPurDTDqf/P/Yxz7mHyZ6o91gvieQSQlS71h371tPChDjsDY+a1te3WLfuPkb9t0777KNG561Rh3ijKMZniR54QMJEi7h9H3ve6+tXbtagwDstvyjWbxc++ymZ+3//aM/st/7vf9kv/M7/9F+//f/k92sMNiTnmUzg4P77XOf/ZzvK4+f/uVUPJxKawhv+joiIiIiIiIi4vjEFFk/mBaFeW3Iej6TbEXYhqZnbLJdsZf2v2JffeDrttsGrF5mCYWIX6uo+2xZGCQl6yyeQNJdXuSbS86KEpafsAQCcwh9Plzjn2yns7uHo20Q9cCt+fcmEFwH7lI5FIm54hSIeogcBPuC88934trd3SXyzf2wDp0dU2q1hjUbYQ09BJ7BSyDQuq9ByfLly/zz/JB+iGwgrSANL5H0+rA41E5qD/NwxldAly5d6mEizSYfjiqEmW1ZYxkLS33SeE15McOvhm+Qrz8NMBhkIJ/6iY/bkiWs29e1SDfR9yUwjabt3bvPDhwY8q+pVmtVuRMplzAgwQ/fG172WZbTaNYVBhlDeImkWeHA4kEGERERERERERHHPLJTXHAG0kuoG/PhUMx2MW+j+ao9O/yS/f0DN9uB/KRNdrRtTPyqYR1mxW5rZotWzxT92HDJ+9KYlsh7E/HZ8/DxI3z2WXUn8oTCjHQaInIIV0uR8jhEFnACQfbVNiKAYY339w93f6hM5YiCFlOH5GLOOQSc5SVXXXml/fN//gu2cOECyxdEiBUhCDqu5asIukixBHdZ5QMffTr77HPsl3/5l23Z8qU+u8z2hr6eXCJrIU1pHFySxB8CD8Hvz7Sf3PCZcBVPsWjvfOc7rVTqULyaybIVdsIJPnCARPvaduKd+kWeksf6x8ueEHTWouOOvedXrVpuv/RLv2hr167x+LMdY+ovg5WG74rD+n75ozCKqkc8SfjN3/wN/+JpSGsS55nl+IZl+XqTiIiIiIiIiIhjFbnfEpz+ZCBoYUaV9yzZuQTytmHPU/bayDZr5pgZbtiLL22ywcyQNXIibLJfbJes2BJZZ1bdZ815CZHZ8nQGnWNRlDz8uOcyZY8XPJNr7vMTSesSazt/+Wrrc2Js1mQ2VhFjhYZ4nCLZsuGRYRsaHvG13pDkhQvm28pVK23dmWdaLhsIf1MEGYI5G4yNTdjWbVusq7PL5s2b71spzpvfb+vPPce3aUx5on/EiKPPFAdDzpcsWWyXXnqJvxAJkZ+cnBDx5VXdthXY7UR5O6+/z9adcYZ94APvsx/54Aett79b9pVrPuLg2UXbd5J58cXNVi6XFYd+6+vttfnz59s555yt4zzlB5ReAwVf857zteebN79k3T3dHs9+uVmwYIFdfMlFPvMf4t1S/JbYihUrbGx03EZGRnzZDuvlScPiRYuUzvV2ycWXWE9vt01WJm3Hzu3W29tjixYusgXK3yVLZWf9uVYo8BSFuCpJSmdfX69dfvkVHlfWn/OEoFatOWGHcON/Z2eHrV59gl1z9dX+0ar5Kitf/qJ048fExKSx5WW/8mfevH4X0kwayAf8STHzPCIiIiIiIiLiWEZGpJzt062VqTvBZuvDJruviBCx+/jfPvs5u+eVO2y8JGKXLVqhmrNGIe+kmdnyYisQ7lq2JDciVVA4ZsrbzJxDmNMlMDoXyU3XqmOPGXZRORE2ZtjDunbcMAu7qlC2n73galtRLMrMY+T3+X5Ovsm0bdsarYZI/MHEjStmgCF0ThbhwOmNI0BWfRcUZp2JEzPmPtMsv/Is78iGaz78lJL1FLwo6bPAkrDem6UgENAJX7fOWm0I57JlyyTL5WduisjmC9N+aXjkJJh7jTop9lzyWXnu8iVPiC8vcrLmnDiSd9yv+17v4QNDOrhb4p7zbSkD8Nt3bmmpbEWoR0d5Mbjus+4s4eGJAZiadZe/IT5hpp/lLcyec44ZRJv8IpywhSMz6Q2XgYG9tn37dvmWsaWLFyvdS/0lVxyThpAHwV/CwA3LXEh7Cu6FAVHIozTMiIiIiIiIiIjjBRkRILjSFFkHbZHjlohTo9mwv934WXtg66M2Wqj77HaHCHu1zZaHJRHoQNYhtzWRx2w7nQENxBuCnmXJi5N21jOLbIvosiuMb4UoM9g0dmYuhcF8pUj+z198nS0REczmROac1bFu3oyPpoo6ipVD3AhvGjN3FUnveJQOtnZYNJ08Qo5lXV5DHHEW+CNfOWV2X7H0wcU0yEJAOJDckAdBILiBlEJSA9EM9oIZyz0CEmLMjyLxsANR9dUvDk4g9CFMv6efhltu34PkniT4D9nFMPHPw03MdN1Q3EK8cB+eQHj4ngbKIvjLMhYchGVKwV8GLixzIdA0rBAGgxbCYSkMMdF1Yu4vK+vHPSfr+CUBaR5hPyAcgx8BqZ1gLyIiIiIiIiLi2EemnXyppymynoOs67KVDTPMsK6vvvwle37Ly1YTuYKuijpbtQVZL1qdddZNiLnIel4ktgmRgtBBIgNhZ+bXZ9cTIi4a6BTNSbmTPcg69zifJuud8ubHz7nElrDkItOwuvMz2RGhzPOeY0YEEiciqgdDfut/SvFI3WwnY32pjcLHjfuqfylxbzKb7f6Q2td7GGbUA+GFyJIG4uBxSUgmdiDY6bXfx3OH01j/zx+z5uEFUJJMRHCDC2xgR9f4RbAeSggvRJzbIQzsp8d0gJDEKo2c202vgxH2GJBQTjronq/N9wzAfkrEGUxoAEYcdQuj4Db46WmUXcqXeIZBQXAb8oH8VijY89BmArvkQ5i5D+F57Nx+RERERERERMTxgKmZ9WamKe7LMhOxKpFgKC9LKnZmt1quBdkSeYNIy3q9DdFmn3SzfAtamrN6li9e8hEcyDY/3RSRhshhg6UjKYEFnLt/+oXZ8HDfj+JilXzLlircLrfMR3qCG7hpjn8QQnxLPUzBtTzwWVw/d1P382iAKhMX1o879xZw5/uqi2hyjp+HLoPxLHQR+cSeflw7cU8IOkdIZkqY/b5vn5hGjNSEQCGoOfZsV/6lxNSXwijN8jIMBvArWQZDmkkqEUysTwFfiU9YHpPcdPvThBmQXwfbUZwVR/ZkJz7T6QoE29Mjot7WwC11Eo6kL/gfQGC4DEQ/TTvHkM5QTlPhHoRpuyDY89OIiIiIiIiIiOMCgawfBbOw8qbj8OQtIiIiIiIiIiIi4vjBwVPEERERERERERERERFzBrOaWY+IiIiIiIiIiIiIeOsRZ9YjIiIiIiIiIiIi5igiWY+IiIiIiIiIiIiYo4hkPSIiIiIiIiIiImKOIpL1iIiIiIiIiIiIiDmKSNYjIiIiIiIiIiIi5igiWY+IiIiIiIiIiIiYo4hkPSIiIiIiIiIiImKOIpL1iIiIiIiIiIiIiDmKSNYjIiIiIiIiIiIi5igiWY+IiIiIiIiIiIiYo4hkPSIiIiIiIiIiImKOIpL1iIiIiIiIiIiIiDmKSNYjIiIiIiIiIiIi5igiWY+IiIiIiIiIiIiYo4hkPSIiIiIiIiIiImKOIpL1iIiIiIiIiIiIiDmKSNYjIiIiIiIiIiIi5igiWY+IiIiIiIiIiIiYo4hkPSIiIiIiIiIiImKOIpL1iIiIiIiIiIiIiDmKSNYjIiIiIiIiIiIi5igiWY+IiIiIiIiIiIiYo4hkPSIiIiIiIiIiImKOIpL1iIiIiIiIiIiIiDmKSNYjIiIiIiIiIiIi5igiWY+IiIiIiIiIiIiYo4hkPSIiIiIiIiIiImKOIpL1iIiIiIiIiIiIiDmKSNYjIiIiIiIiIiIi5igiWY+IiIiIiIiIiIiYo4hkPSIiIiIiIiIiImKOIpL1iIiIiIiIiIiIiDmKSNYjIiIiIiIiIiIi5igiWY+IiIiIiIiIiIiYo4hkPSIiIiIiIiIiImKOIpL1iIiIiIiIiIiIiDmKSNYjIiIiIiIiIiIi5igiWY+IiIiIiIiIiIiYo4hkPSIiIiIiIiIiImKOIpL1iIiIiIiIiIiIiDmKSNYjIiIiIiIiIiIi5igiWY+IiIiIiIiIiIiYo4hkPSIiIiIiIiIiImKOIpL1iIiIiIiIiIiIiDmKSNYjIiIiIiIiIiIi5igiWY+IiIiIiIiIiIiYo4hkPSIiIiIiIiIiImKOIpL1iIiIiIiIiIiIiDmKSNYjIiIiIiIiIiIi5igiWY+IiIiIiIiIiIiYo4hkPSIiIiIiIiIiImKOIpL1iIiIiIiIiIiIiDmKSNYjIiIiIiIiIiIi5igiWY+IiIiIiIiIiIiYo4hkPSIiIiIiIiIiImKOIpL1iIiIiIiIiIiIiDmKSNYjIiIiIiIiIiIi5igiWY+IiIiIiIiIiIiYo4hkPSIiIiIiIiIiImKOIpL1iIiIiIiIiIiIiDmKSNYjIiIiIiIiIiIi5igiWY+IiIiIiIiIiIiYo4hkPSIiIiIiIiIiImKOIpL1iIiIiIiIiIiIiDmKSNYjIiIiIiIiIiIi5igiWY+IiIiIiIiIiIiYo4hkPSIiIiIiIiIiImKOIpL1iIiIiIiIiIiIiDmKSNYjIiIiIiIiIiIi5igiWY+IiIiIiIiIiIiYo4hkPSIiIiIiIiIiImKOIpL1iIiIiIiIiIiIiDmKSNYjIiIiIiIiIiIi5igiWY+IiIiIiIiIiIiYo4hkPSIiIiIiIiIiImKOIpL1iIiIiIiIiIiIiDmKSNYjIiIiIiIiIiIi5igiWY+IiIiIiIiIiIiYo4hkPSIiIiIiIiIiImKOIpL1iIiIiIiIiIiIiDmKSNYjIiIiIiIiIiIi5igiWY+IiIiIiIiIiIiYo4hkPSIiIiIiIiIiImKOItMWkvPjHm1rSvhlLNvOKXOSGym4zuiQaYXrOYWM4ptR3IhfiDjX4YjZtHmWRES8fTi0Xh0Ob3YREWYarh/1T/WYOtHkqF9OvxQZnXv9wa6G9KlTj5Yu0ltcT0U1tZTcSKrfFPx2agf4fbW21MxPkgt3rDqd+n6IX8ciGhJSzwwKkmRPQJJJaJ6m7nA/l2YXKjyTZJBuNP2AFjsCUrXfxKcEcuA6Aoc6plqOyxm2Arx8gq5MkUnjcDS0pWdlFbe4COpUZ3LfcvMZaZsJ7ile6Q8Loc7iS0TE94EZdSxU6Zk1WjenLkILmK6WwV6GCsuVX8yuJnrTw657pn9tNYDEfWgXyGx8Ake3h40s8Uz8bupIkyNF+RCY7oUW1fJIHRm4Q8e05KH7kSgKVAnxxiwrM66znp9Ja/Xwg/+pXncuwg2/x0H/kyh4HoS/CCGS9ZloN7wiU0kgK1lyhrqjE2WUJKk2s6jQbzk8rt461OBC6yG+Ic6Q+EDMSFloThFvG2Zbfd4kLZVSG6qtK8k0fE5VL5pSu9gQPU/uUW+kRtP6ruqS9Emh5qh6UdXcz0QAqmS6jSQyA4dTNVgPzYm6mcQUd+4PgSguh/HrWMTryPrM7FL603JEyGfXT34VQBnRgXLMyTxHfk/fnsbMvKQgk+vUaiiDcMV/j8tBHuFAJl6ewbH/nzVZb3jxElfXRngjg7bcN2TOJRQcwp6Gmh4Ds3cHLlnLYyiJiPg+kFYl6h2iOk19d0Ovo9xUG2gnExleP4OZN5FUMSbuZ9MEWsFrl0DWRX0VKF65l+FOINJHxZRPR0Q6kCbsoCdCu/ZBsUINyVDaD6OjD4cmbVVHyHYx0A1rkAYd8zLLKkkNZRk6CO5EZqVhcPB+gqAyWW/3iRfyT4Yzo6B7ns/u9vhGJOszwYyPakXaaKbhpkklg8RMz0DOOagzY3Q81a3rL3SJOqXi+y+oo4i3CbNtcW+SgoKMNyRZV62UfqgPYGZUmA05XNxcr6IxdfT6gx3Mwl2/cP/cINS96esjg9kXJ57uIQ7kesox9dQvZs0Df6iRpN/hCZ5O9MyszLSYmQ7kNriYtjflym9IZx2ScQepe523c9D6gOA2udIhuOS/exbqgZ9N158wYJAtjoSV3jgSFC/3Z8puOAladgaRcLMgAdgIqfXwOFdnP7tAIyIOg7RyqQp5XVOboDaFJziJmSQ/XVmnEOogCPewckhzOzLknlD8GZYchimTEB7eFAK7fVPQzIY+39uPxzvocdJJMMyUhzD95lHRkncN/NB5IXFS1wWnXPPEoamRAPedrAueP9zzC51gnGWADkUPaU9bc2rP7fI/nBzXiGR9JhjhioxTqZqqLaH6MDpM6Q0Ve6o7m3MIMfRYJhL+Y84MVE7/6Vy/J4US8eZjthXoTSonDd/0CwNRPA11OYjXBwSLaOwUMmiJvaPMqf24ZRYeez7L5A6oXSDxU31OO9OU8m2FuoZGPwrqCgO33sZgaYC2pwvIKO2RoI6LOtsiA5PCUCdGqz1cVQlPQkAoSYcMKMssykvHli4anrdghj0huA3aLS+/UjuhfoTzmddePyR4TceeFhOxo4R9kIdvFNIsCqqVECJAHPAXeF3kWhKMwtXMMDFxwS4WPZ8iIt4kiKymHDmtWVQznvgAr3uJgJn10tvC1J0jw9mFPE7rPpjJLLy9zcYvbwTT7g6PEDv3jbaXOpFB4Drh0ony0bwSaKcgXUHH9cw26uRdfUkz74ep2BF+2iOEGXfOMA0pR2elfjDj77P84baQujx+Ecn6DEBosq0wa97IMhfJbGTG8s1CqIlpxfHKMweRlqRaQTvbVGr4QZxylm8UQ8sheTw5jjh+4E0cxScindSJlO5Rv7OqFMxuo3ADrWOWB7t1vypY0fJtKg0kmrvJ+xzyjyun80kQLbWbilzm5GrmGvg3Qs2qPozE/6mZfenlFs9RHcQo/I55tJKuTUltZ7KuckIJJV0VeSPUZMA1naTbonwldHZ0vPhC2dWbdfF/lXdTJa6BANayItPZnEo8q+GUjh1Z/OcXjvgYyk0hpAMlwk30H+XPGAwjv6ez74Ws447H53lFBn9TskAAvvY19Qvf3b9Q58LkCRZDTBmU+ODu6FUsIuINQU1LqvaU/lG1d3O/RnTdEntkWOttjpuIHAWdqZqZrm1JZrCPBN6NS70Ow93Q8gJBTW6Ao3uVAEdHAyGkh2CfuNMWCb0QIjNlbVbwNilncpNoLo9y3tfaSDDMS0NpQI0d2jvpC3kmwQ43dADMAdWSNNPb5Ji8UCNnyQ2TP8HV8YtI1meAnHD+oUozakM23B6ypjq7Yr2kjMpaIyfyohrns1dzEN6NedzouKnkEK6GRroF67E+683265YqvcYeEW8fAnEKzS6bKPfXNcNpHTaFLASOl5EScD2rmtiUT/K/ka3ZwMRe2ytp5AJt945GdYJZ8Lo0dq4Fac6p/ui+6nuumbNT559unc0uy7HkQG2DIawrUp25Iladc2XaaFslM24jedH1Wl3+HDl2VNWK4tRhZZufn28ltLUzOfk8xdzpSsLvmIe/eMkwyksllL/KbWqZEH0XRpQDJ+r5qq2qTSDtqu0a22/Pbd1sr762zUYq48rK6bryRuhoZKyvs9tOXLnGTjlhrS3o6rfuXNm68mUN0VSqKsMsOsMXqKr+MaAQyc/kPCbuB/DSOQpRB7ioK02FpqiP6s5Eu26Din9Dg7OC6ql39NiTV+QBVaipdPJD7xalvHoLXVZUvfQqQq9+9GAjIt4AUOdQL8OLkhkbVMWqSr/laHcy86V6TH6pftMS86qUOQkatCGGXZDdeVnpTfRs/ugzYa1mzZef1XQ+1qhbRb5S16nGOdV/SDtozYL4B6WQODgCCtLrPCXNq82V1X6JpWJh++uTMs9LB+d98NuYhV+9hYJ0dWh69FveRr0N8t5TSIOrnmrLaqWsjcjPaqOhsBUH3WrQnolLksdh/XrG6pB1SabZVH6qnbs+4Ult0/KZks49kOMWkazPQKuu/ogKm6/bg1vute8+e5sqT02dSFHVUBWuqGal3Co25iLbZTZUHZg6Vip/WwlpZBo6qgGpFaztP9V+5KoftZ5srxrZ0RVKxA8OM5vcG+2gcbhGGcxUE3WCs1lTWDocKcCKSPSdz9xtdz9zl9WKNSfs+AcJgpTV1VsVGkUpURS7hnm5qhVqRfu1j/yGLSksU62BxNO5MRMT3Lal/Fsi2XRezKZU8xN2+8Z77antG6yWVYM6EpSOQi1ji0qL7EPXfcgWFObLH5mrj5oi69RnfseBng7zbSlCaaNvGKBllc+UeFOFX9V1U/kzVB21Da8+b5t3v2r7JgZttDFhlZYGSu2Eps8i02TVSrmCiEbGSirhvlK3zevosWXzljh5X7Z4qXWKIHc1CxqsSb8wUPCo8U/+U+xc6RhK6sjAVU3xL4msy0N7ds8W++aT99t4vqmyp/Om89eAxcPR4IAM0LWqnfRuRoO6bvvAVe+0JaV5lmWRbFEeHi3QiIg3guobxBFtxhrxmtrZX913ux1oiEqrUvOrqyoW1VDqTp5FdMXeIfbownquaQuLJXv3+ZfYkmKXWhB2jgINyhuq66NqDfdueNpe2rvXqvKbQSm03XdQUX1Hzx4VWAwN8ohAP0OCl3X32rsvucy6Fc9tB/bat5951MalJ3iaRj9Akzoarj/9TDt7xQlWln2IOfFmeTBx5w2YsEZdg5lG216YGLJvP/qQ8hde4s8BxanCZCKDHG/eMifspvIeIt+pQc+VJ51uF69eK3MNkrINqYpI1iNZnwE6LmbWq4WK3frczXbzM/8ggjOhxlnyznGiOO6j6o4aFWfugcqe9ZlR1t3TiNRpq6PjycBZC8+1T77jJ21+dqH6t7kZ/+MFDPy+H7DW1yGdFbqRcDwq5AwuPWwjdsfGO+2uTXfbSGbEB6VQrTCDxMwGT5E6NDgtiCfVRd4rVq532v/94X9ty7MrRNnyUqaBSBWbobG0syLwdFFcSvlWihP2pQdvtge3PWyTajtHAoPKUjVriwtL7Odu+nlb3rFcbU0pUlxpb0TcX+jmN4tk/rADwgBYC06HR+dHiUNYfRZPVywx2jaxx1549WXb8PJzNlgfU0ffVCdbV7lIeYkI+6S3MiyZpD4ifMW6sjqfCe+0ZNTBoj8KzLblS07Wz1xzqp0xf7X1l3ukO1T2qivY9lGV3PN0JXkg6SZHAlGqK8Ainbx+j+580b746HfsQL6qeggpR2/xdCF07ugxIgg5KjeytrTQbz/57o/YitJCy8Es4sx6xD8F0llUWjQhL5FW1G7+621fsZ21cbUf6UUNUKsikN21hlVZ0qFaDvH1lz/zkNu6LZKdn73hfaqT3dKRs6iMLQ3LFc5+1febH37QNu5+zSYK6Fa1DwamtEpVe97jeVOgKNHmeJp1Yle/ffKaG22BBuibd++0v37kbtuPrlUailnp/VkojXPmL7AfueRKmy9tQDvmgSjZ4e+wKE3OPXRV041vv7TB7t38nFWl19ErGQ1KqnnIfdPJOu7QdHnd48kFxL+n3rb3nH6O3XDyacpr9THql5TjCnkWeXsM402qDccG/IUJCUsTWDOLsPaTR78tjfYgS95pqoHONUFp1LKTOkcqiqUkU9WxqjreVMNnEoo5dbrUiLcL0K+W7zoEIeF/+HF+tB9LsFwSn4LMErLq9VcjUt7HYFadIwM6lksxqKtD+qS467quybyaU93KU9/p0NQmCE5EfSpUPwlXzqkciqmUcSZHp4PKfmPJZBRGsWITmQnVVuosy0Dkgytw4DT9uFHRpJN8ZOAUHg1LJ2lQVGvXbcJqdqA1Zvc8+5D9zd1/Z9/ZdI/tbuy1SqFiVbV5noRk5dhn5dIZq1n8eCyu8ZYGXWEGq1FoqTNVeIW6DWbG7YX9W+ybj37X/ubOr9kzAy/ZYJPBgbQiMxtJKXFIzmYFypkIZtQxq4bZZLvmAw7qXNBn1Mm6JL2WfmPwyH113A3VrZrcKfoREW8CQu1Nq1MmL+KsI8u1GMxyjsaqS/cxA15Vg6noOKk2yk4mPAFikiEso5kNpEvlriV/anLTEHFOpSnCjLSyioMI9NGFuMrtUaQqv+vForUK8lvuSDFHrmtKb4U0kdaD/D687Diw3wbGhnUe8o3pFDVlF8CBHo5827Znj/tdzeWsmScuObV5+SNJe4i6/CRvkZqfc09xDB7xFyFEsp6AekGHRY5AzllOwq4XhUbJSvWyzzB2VjVybpRVyanwR5ZmppjI4e8HUeMRhU6vsRtk2m0qB7s7nOTDDJeEI4qgrUqfK5R0VENgPV0zb22G7xFvK9huDqLE+xAT9QkbqgzZgcn9LoPJ8VAZnDyg46CN1yasIQLHA7FENx4dssjkCS/1+USkyByDN/bxZVY9r7peYNZDClJq1+Onf06a6wqLpToso8E4tBTBezb+yR5aNalWKGmWc7DUgTWZR5N2QYPIzgITO3LJDI8MheBzcnGcwIk62YuEKSfPk6rI6st7t9nf3f41u/vp+21/ZcCauYrqwYRlGlV/ypGvS3dJPM/UMVMgEP5UfKnTDEnNvRbJCUttGBi0RcJzOUg88WlYq6HBQLtqWyb32d/fc4vd+sR9tnv8gBPmMOsdcPiSShMzbQ8wNJXn+s/AU6KwWb/KzF9R0lFH2n4sNcL6dpbIYA93DQ128cP3Aji+qkjEm43QzAJ0gn4sStGhD1l21SESzrGdU98paeUhnUEqqoUNkfasSGjQ6LOrjOjShnRmo0EtzqrNqb8Wa89Um5arqK5PisZWpEdV3VXt/SirvBLkR7/m/BDxLv4w19gvibBnagzm1bBl5kTY77ctJ+5QyoapvCm3ckPYrwtXMik3e4aG1P6VYnEN/FEKgqeuU2RXsnt01HYND8k+E0EZq6i/o1+oy2MXLNWV51X1S5IcHYKu/Wmq90G6zonQy1/8PN6RdLERVLGcOqdabkz1I+MvZYolq3LnbbI0aePlUWvkq6pErL46ulDPQvOlQ6rLrCapJkfZ8Q5KjajJThhqnBmNa7P4z0BB4eIyow40L/NM4uYI4mNVxZ/lCww6CBd/2q2aNQoieBLYGTtARLx9cJLEUg9p0YzK9/MPfN7+7bf+//avb/+/7F/f+m/st7/1f9r/73au/7X929tS+Tf2u9/8Xfs3t/zfdsfm7xgv3GRVb9oiM7MB6wMbInclf8LCi8foV8UB51KEzFhWcyJ8zazuy+/MpNdZdkEqNTusKCValvKE8EMmS1LM/hRKA8pMKy9lL8OcNK8YXo5XleQx9Zs6PFMg/QcLfnZZa6ytDlHtQLZkzRUzj5oJj6uZpPCHFkkSOJCsMPN0sMDPWdmB8PRFTNlGbcLu3PyQff7hr9iG2mY70DkcfJGdDDNV6mib2ZLIu0qFWTnlKZ2b+yMiAZlwMwklgqTXbqbyEwNRvRThoDxVCjxBqatjpZ40pAvr0nmtfN32lCbsjoEN9ucPfd2e3PeyTWSqijP1RXEhunJH/+tPYIi/UqVK6qljNp2ZNtLe1WaSgoGhhEkF6aSiAuOxP0uqmiJFDZGhekHx1zFDvDIl1WGlU6SDl+XKbSYjYice8U+D60EmK3Qufu71tw55ZsY6X7RRFJ4Gr5WsqKwqcKmu/rZd0/2676RUSCp1W+eor9kgW2CFOO+IMCMfBq2Q0rzaY07+tKVHGwVxEOnILhHsshoUC814Dy0rYZkbA9UmJ8WctYpqYdK/eV2yqwu6Vf/UnhSGEsQkTa7W8AEwg3qejTLBUpSO5gkVT+NYQ1+R3sZf+HxJ/pTllrZdZwQjM5/o0bEqTrRnv/gQjQ/dLD3AFA1h6p880GBGnmzYs9vGlVZyOStuwku6OcW/k/io3TNIaPNEQXaaRaWNZZhyzyAA/Yd3rRzTmZji9/GNWVav4wVQXKqWfk4QqIg0FFU2Vd6cWjOz7bMRyIaLKi3XfEgpoSweEv5DoursyqFKzLpUgkwfJxEehYMZbg71/1DJqAHlG92SLhGoDl0X5ce05Jol377RCVrE24qkBrg0UZjNmlXqFas0JsNRMlGbCFJNZdJqGng1pcRwiSfhpcPZAPVcSEQKkq6JrRi9jqjLaHaqfoQnRk0eQ0qR1tV51NQZ1HSsymo9p7jSQVAhE6RnM2Ph59NWZgG5YACTXB2zSBLI4XBCmyfbOEIc2hpA7bMx+8YTd9kdT9xv45UJa1U0aFcPySN07AZ3dIRMNEwLAyVmunwNu3eiDN6nzzn6NUQ7cY/4Onl5PKOIHcz/sTSKWcZSo2V7Rw7YP95/mz2wdaONstROg4o2TyNll/gTr/Bfoh439c5NuDjE/ylMmad6+FDgX3IaEfEDxhtV06lpaeHQtjIbtJu0Ox8DWF4DUjyBA9RETKsirJN5SaHpS9/Yy6KuTrspJs5ggvBkzYoaJHRIiiLhRRHwbuntkog/W2Fk6CPUXvGTpY01kQn8bpY0CJAeZ6kjEwM0JfxSUE7qfftG4qcb3Ec4T804dVGbfm3vXptUOPAWnhQEog6crVhNebRj7x6rNRRJRu8Snt7h50z4pf87fEZ+H9l7zCKS9Smokon0cqSCNGkgTqKp+HR+gaxD5Ou52lHFZ8jVzdG4GLnLtVxClJgRUhhUctnxLfTUePwDMB4HyH2ov+6WuNDoDhPGTGFbSZY2eJjMYWVqLpkMs/rpKjGmASLediTKiXrmyw9aEim8VlPKjBlNSVvm6VKXcOSeBHPKWH7wss5sgGvVNtWxuhR+TVKxVq6qykId4SkQM+6qmQwQPUDVT6+zGly6tvYI6yqQwYjvHTNzzXNUBuT1lMjM26/yt9Gu2nB2wr658R57cNsGm8hWRYZZeZq1Up5lbeiPUCb8h5zzRISySV9M9Sd3bh6WmLjMOMfcl5Y4ceeIKAISn6gIp1M6iDrHxitZdb789rXH7euP32WP7njextEz0lGB8OMGxyD11VOcxC0i4vgGkyy8X8KTs7zabVH6vkNSaot467pDUlLbLKixwBr8yVXCD7wd4QdCO5M4l/ABc13j7zrPpryvz6Lb1S4z4hcZlrj5Djci1jiTJ0FT4E8i6P+EsEOqeXo6k6xjl2jX6w0brlXs1b0DVlH47BI1tVTFSXnbRutV2zM65GHwxJSpSr+tQyDs2HYXEbPE7Hr74wSBrIdZK9+iTjXXCXtWFZ0paSft3KW2HVl44QtyxNG/zCXj9DF02mWls+t+LXLks+9p6wixwKfENv+PLHSGHm4WUoaE3WBoRv4jDRFvL1RUaYmiaAP5lgkaWeIkHOHcRee5cB5KkTIMSo6r2UCu/b/XKNUBf3maeul1VMpbfnIPAge9QiNjOyxFkWvdRJlTfXwP3YjvCeRYKim8RMjTRLiZZbAmnTEkInzz43fYg1ufsvF8RZnO42PZ40Ut7xQpnVSPhCvK0IX27h7i74wZc+wdch40XahTzJCl4vVKx1Br/FTetqwBISAe7IIhvTWSr9s3HrvLNux+SdfsN0FdCn6mCFf4kvo1fS8i4ngF5Jrlg/M7Omx1b6+d3N1np0hO6+qzMzr7JfPspJ75doKuV/T0W166gRl5Bul8TRWBTHublTkD78XdPfKrX+7wq99O7UpE/p6k69U6Li53WYdaIuQZv3i/jdfYwk40YcIAcM4yONo+Zt6OudYxKz00KZNntr5sFQzkG7vbhN3K5J8O2/YN2GiT5UJhPUFO/3O5sHQtkPXgV8TsoSKKcHht5CTMrgMqFgQ3SHi0xMw3WzkeTcJjqLo11dHywY+wFymNKwlGYYSXvFKSXvBzkIbn7EiWs83CYcM4WIpyE+LM04DQ8eKcN6vD8gZ/cz0kLeJtBGRcha2ySSqdzjH02RMpT8QfGbZVjhxbOkoZzyy74DrUpNkg1K+iH1lTGKhaIHy+MwHK1uvsdH0FKFrOUgV7UCTeDMw+CT/UOCiZXKQyA6ztnshU7IFXnrSHt2+08eyk5fJNVQcNojRgq6ueTKpjDnoilANe0NbpWH3NrY5sgUZ5Ur6+ZIbypayTcy/3KbPELkfqnfzgPEQtEHtCy6uDbkg1tkpyp3rJjDwTDQfaE/btJ+61HZP7fJcYzLw+O3AZwiO+b3LNiYj44YQaAu+OlfI5u2z9evux6260T1x9nX3qyuvtJyU/ffkN9jMSrj9+1Q32/suusnn5DiuqD6dlQdJpi+z/LqbgL8T25At23frz7ePX3mifkpufuuJ6+2eXX28/exlyg/3k1e+wn7juXfbeiy63vkzeCvLI/VJbh6jjl5NzmfpPbRi9wmCfD5X5tbsIR16u3TU2YmM8EU7bOQ2cpZM6bhnY44Sep8ayIJUgXaKwcO9Tok7sQ1gRswO5HJFC9YbqlNUvJ0KTa7EenJevINN0Ol6bJRyPLL7jh47eIBgRM4MK+Z6qnKxDh/jnLSdhf3RIlPufVxVWp8cer7kWD78xf30YB4kQusXQufs5rYelO/KXBTAV0+AhIWERbx9Qd0lFC7PniZmLlJjvrpKUq/84JmUczMOR32xBQ+f9iYLqEi+SFiQ5aWeqpO+yoXoTiHpLSjuoUDhXVopdjJGHqrqv8Ga59Ga2SJW1h5fITIR0zz6dcxmeVp5MUL780ZHpnIGQNIRN5Gr25LZNdvemR2y0Pan2K5JeZ8aaHWF4SVjlVmDAFUqePKMTpZNlm7mmyiaTRY/oyBc+NTBDfxTYCyKjAb2OxWzZzzPq7YMdvlwo/YIuYss4/BYxJ8/RWWgwhE4XIl9j4KgwvfNt8Ki9ZXsrQ/a1J+6xPY1R34bRt3QjjVQruT42Si8i4s0DbZeW0ZUr2Hzp2MVqt4ulZxerDS7MFGyRWuty9f9L1ebn6ZpdkXISf8IZZuWCP9KP9BztOkto2tYn+wvVfvFrkfyc737mbLl0w1IdF8qsLHeQdSZiUkx1K7RbV/HSS62G9UjfFNkCRrqApcEMMjKSmuwM1aq2e3TECb+3ch15sR3zV0XWMWdfWObW8R19l5H+6+soK3XEXfEm0IhZ4c3teX+Y4TU1OTQyVqwVrVzr8u0akXKt2zrqXd75Tc+2v7EU5aZU7bVyU+6zXUkH6y3NgwunIkzqqcNLqKHysm9Co1m3dlONs65GWu0KO38cJoyZQsQLIv2lZkHxLFi5XrKuWlnx7lAc6KR5VFWT7+yPFPF2gdJPaoDDr1+nsDCF6Uzb9DJOXAeCO3tFFwYAvNPAy0hmXfW89dRK1ivprhetsyEFLvLWW+2QlHWvbH2Vss2bLFv3ZN4KVSlo6q8HOx2niH8KlI/SvsxmU468RLatMWh3v/iYjTUmRKt5mZMCZo9iXvLFHtsYQp7lUM5x57PomKhj54ueJZVtuSYC0OiyU4rL7IqV6+3G0y6z9591jd20/np739nX2Ht1/s7TLrdLlp5pizJ9qg8l6QsNAiptDeSka+rSKepYs+yNrE663mYgh65CFGeF285lLK+wO3TdVN3auH+rPfTKBhvL1I2vO/BlW+qKL6NCOUmowRERxz3aLAoJ1AtOwJts7NjCZA0TJix7U6efvHOCmkgHzUzwwRfMirJSbnAva77rk8bXvtzWfWFBGu/D6ZhvW0VBTb18rvsp0OnsSMeLpSX5hW7hfSnfplfWSvmirV2ywnr8bZmgp/xJL0/lJGzJ+NJrrxk7RnGfeYhJyY6hQRuuVJNQgp7y2OukQ1znhPmLNVjQtX9kKmqF2UIDqdj7BtBYeHWqaYVGh23evcme3vOEd1Z+lwrnhEmZxojxKMi3SjbZmLR6vmpjrRHb8MpTVrFJVXKW0wQ7VF7WCdOEvAP0pS+hg2N/9xMXnGJrFpxsBY22ZxGkRq1s38a32NQwW2G23vdezzRsYeciu/TUy6ybgUOwHvE2gMaGOmUrq5rK5X/e9Sf2zL4nRdZqKnoNtJo1m2C7OmpFWlF0Vap3WD03ae9bd5O958z3W7d1eX3M+hzFkUGtZRI3LyV8oDlsu+r7qaCuvKkMLI+iI8g1K7IppSszljmgvAsatC7pWSN1XVYdVJzYnF2V0R9+suUfAbD0gZS1+Npfzb746Bftvlcfskru4IHhVHKmoM6iXbIl9T77xQ/+vK0sr2Te38cD4TGpAJl1mz+8IP7kkJdpUCEylL7xtsl+822rqtz/4v4v2PN7X/L1rN7efekLO0YFJ3x4hY6VB8n+7oHskKc8ocup2ZfUYy/q6LcV85fZJevOtxX9S6xUUEcrS+kDNX/aJzd0uk31rmNyuHXPDnt0w5P22tBeG2tXrKG60VDdbLTqTIzJvrp49Ini7FvGyTNIAtvOFWVAx10rZG1xq9s+fs0HbGX3QluY7dbgQQGKSCh6HlcPX34QH18uo1r04M7n7POPfFt5oLASXUsYwX6IKwOEQFTytqzYZz9zw4dsdXGBxyvU3IiI7w/Qn1DV0MoZ1cOM/bfvftO2jY/5Fo6uY6m/0kv01bQ73xFL7SivipqVYl0mUvsL173bVnQwZz0LqJvnIboOAn01FTwsc6OZ0txRs4TaVp3f2qrZn33nW7anwcYRPA3jHiSbp2mKo+I1T9c/dtHldvbiZVIbLFPDEiljWUpG7ZRJPdqytyQP+8XdA/bHj98pzqP+hsdmQk39UqVg1sXTVzX+G8+8wLZu2WIbJ/f6HulhEwK2i1V/IV9OLHXZL13/bg+fTVoHlT+3PfOUPfzqyzaZL8heiGeITdvK9bZdc86Fdvdzj9u4PCNs9EGBl2OlKDRE8TX17zttnb3zlFPkihfX1coV7+MdkawnoKny1U8yo1DpVCWr2mhxRA00PFam3lPlqDJpYzkSsu0uq8q/idyI7RzdYn9981/YqA2r462rwSs0eUTl1ZjYfeXaHy/rmG/kravWYzeuf69dc/aNVm53HDVMfGqpmkPWwzqz0ADZp7SarWig3rbudqflMyUnARFvDyjGQ8n60/uesAbMpiWy3qpKybH0ClKDi1BWfJirlg9k/b3rvjeyzhILkKurs8m1bVQDA9Y/BqrN3kFBURfaYSDJ8JE9svPsIsSAr1mWuVSzCFYuy04DqOlI1mcL4h/SoPYd+KijJlLOR1Yg6y9uecn+9qmv2P7WIN2X6wP2GIdU81Jv2IUn5AnL8lIdQueb1zVPRk5btMauPetSWymSXs52WiFTlF+BzMIvgKt7N2CmG0O+cVy34cakbR/ZY9994n7bMbzLxlsauBUYTNDxQ8xLqqMMMHAvkT8cNEzw8srneJpXtPNXn2HvveAaW2jSNSxehenoj0EJ5U8e8DQxkvWIuYC3hayrPkMpWJpKr53ja0OKBMSWFoBWZbkIW6uyxe4WEdk/vePbtpsdXTIMmj26Cl9xycmR0jBf1x8XWT9n4WJ17/hCIPJUbYSZ77x0jbd5CIbaLOPoFwYG7H89cZc1FJmsuAJ+ttQvVUtZ66lj1rb3nn2J1SoV++arT/vSlzx5osaMP5lW0+bLzk9ferWdNX+Rby+5tTZhf//AvbZlZFjhFnyiwde8e7rMVnT22jVnnmc3P3avDbQmlbyS+xnJ+tGh7I8AQeXTTapKKVdyuZLoUK91Z/okOuq8h3Mdu3R9NOmwgvVle2y+fr35eaqsrC2lysp7HQiNtsQsWRq6/5dhS5WbToiPf3Q0Ow/r/6HSnemRFK1Hse7OdFtnpqwOu+RHN8t1eYfqU6xEIxUO9LbJdRslwXnS3oO5Yq+GiTpTKvRfJMMlzA043I/EgW8PJeWQHvHTg8V1+GFtSnTdQn3MDDMBccPrcJE6OfqPIFwbEi7KIjgMon/EvSkLbvcgJO4RDmg14pSaHSQHg2RqTKQ7/CONdYWLB0RGYfo9LKKV+TAM+jOUPOXORyyYSYGoMHtJN+KKSua1vJQZdUU3+bG1Yit5FyFkG8+FQqkkofhZOIZnRlQ86hVfs+toF6zQDMIHZjokuWbRso2w93qu1SEpyiu1CWZHiaYIFl+PfKtBaqZSxT+XqZMgHNzWtHhJJvWHqunH5A41DuF8WkJJpUfK0hEcHSyJX6nBtA+SJDB+lE/wM9hQ9gsqT7WnLIMymdZszO558QEbbY75i6SsDaWK4D4dtCWqw+uGX1BvdCg2sjav2WFXrj3PfvTSd9nJC1Zbf076x4k6pR1+hEn6/cuAMieKYXY8a50aMC3K99np89bYT177Ibt8zXnW1SpbPsuuzdiHtCg2LknwiOoF9ZT4oh8qGgS+tGuL7RncgwsPB3BGFDAL5m8DKBoFTegeA/4lxTV1z8uM0+nfdMkGQQum7SxoQOoQd/TDPZmMuH3uh7qGDTcPtxwE60jNEvM3xAw7fpqEF+ItE/c/nKPZfJCOmZ8nugElNFvg1u2TFv4n/1KZMjw6XGskjetQfYw3M72acWtKZpaBV97EVZr302fYD/a8DXNOnhCgOw3nuPZ7NCOahyNxTeXmPDlO3X6zkHgY2gMNI3AAWqsPrj1CCItWwnna5lIwWA99RIh/eDkcv1JR20v6FvwN5/Ix8SN15yf6Rz6w6o5j+Jq17HKucJYvmC8eIQNxB/+YH37KHW1+Mtu0F/fvUt2SBZkdGB23A5OTvnadODLR4EHonI8wnbVilfiJdBy74SQaKmJ2CNo0QtDoUzQmx27CbCis9sOLWV7VVblc+HkjOLowO8ScJa918QIp+6DXWCCmqhs6Xyqxmqvv0MGLpKwHVVNt6lyN13eekTrJ65w4HC6Mg0W2VO9p9roK/4iDzApKEGlzpZCXpJqRBkc8aPjMqrpSkxJj7yXXZvrHy7FqlDwSrzTGrdKasKpNWMXGbbLFtRqm6AZLbRoSJ8Dyr16XWQOiKr/wT5oT/wNJctUdwvC4oFqxm0DWZyJV7m7dO49ZAGuStsJuBQY9bSbPQtfFgzt8nb4XTskLmadmbJt16C/xZ6akaodzn0KFdJEfytsmjzAVd2VNUJjKgjBo4SLULa8eKi1mc/xFYBUedQISX8tXVRdUl2SHGQ+/rR9jL7whW6aGHp5fngo/YtZEM0s49/qFPU+j8kHitJIEYI1bqlPM2nqEpViZ9Qz1FodvLQiSGuNZhZBY0iWhZBBucFatV0NdTq7J4zrvgCjyZEFN9ZgnXvXkV+WqjdT8yAwvNcP9lP0mdYc8DkEEEaiHIT4hnFRCngbBGfEOsQnEzZ3I35yIOutDGQ2+sHWDvTC+2Wo56opseLa3RKTZh1m+OHkP8defqkU4z2tg16tB1UUrzrQPnHu9nVBarGF5p+zwZIY576AGghudS0H4UcJXml1P8MKYypqJgb5Wp62wBfb+c26wC9acY0UN3jIi87W62jX6SHGh86UOUPcoB+oi4dDueZIyWB+2J59/RrqiNhU4BIC8oPals+dvKTzTg5C9ody4kYDzhoiIjulgoqG8byiutAzW4I+r3oy1GFbVbVj1Z1imoz7MqkkTSjeSfrUj3gryrfXkLpQ/5Z7WUP4F/5NgwvWMSHn5H4LXmbhV6lLQObxfwDcaXBlICJnXkp2cE7bqGaZ1xcRcJ88GxCnxT6dpi/JwZe6DRo/H0YUDg1Yf/XKiysu+3En0/EBL4IjdmeA6hMwvpA0SWFM6iBP+YBqO037xOX/KjdSG8sBMd9UAaLu+Lttzjz5YYfBPwC8PU7emfTw0Vv9EyG9CZqjuZJUG6S9iQl7ptFk6FnZvY4kZttG99A/MUk/tpKJ8oD1hBogpddgbXmjwfsSH1B8Shl8O9xNCHS59Zl/6IFcP+Rmi1bL+7pJ16z5P91iKx49Z8gIvmhYz9uLIgNoAL7mb7dizT21FdU9h8/SMuHq7V+x6C3lbt2Sp7yPPAD+fZamuAomYFSjBiOMNSfugsfsIHaUmslJlvWpWar7QtGquYtVCxSay47a/ss+2H9hmG1/ZaI8995g9+MxD9vDGR+zxzY/aYzsesVfGX7aB9oA6sBEovDouqdEC6+dLIiQinyIOgJm8sPgCJaSWTS9PXEQ6mMVtZEWVJB4H/EiUJEsB6uosGxk+6AO5VOdzFKlmNahQ3Ft5EU0pjqDEXFd5ulE4xIcIBEWdiBQXBIUr4lPJqyvOK07qiBs+aEECCVRIHstUTHFEUPg1Ja6uAVIjU9a9ojgRL+nIb+81JChIkeC2iCRKkIEdH7FqS/yDVvKDOASLKOWg3AucqJxEO/2xLF+yYwUNSrQkYp93ZkR6QyH77Ibyv6w85hOkLI0ihnyRkiVSiG/VmAwOPY54IWXKGkrWTLdYuMzsuvzIZhnJvrUgJaGkAnytt6ShiBJrHl+zzKKptOULHYp7eOLA8o6a8rKam1StHFPdHLKR5n57de9me3br0/b4C4+oPj9sT+j49EtP2Is7n7OdQ1tssLnXaVib9iCX1cykiLSovfKqnmtaTfUrvEDpJfM6SWNMJ1igg5NpSpwpHi9X/YM8jzQm7LHnN/heyQqQO0cGYWrgxwvo1KVzTz7bbrjoaitnO3wPdsqWKkJY3zNCtH2d+3UXX2Er+xapBmuor7qbJ2+PIgQ8ocr4wv7ttqs5Yg1VuaQaTmMWSXyzQRx4AQ+w+ob8oV1Qt9n9aFo5qOWiZ5qieWoTTEvsHBuwZ3e/Yve++ITd8tR9dvPjd9vXH7nLvvHo3VNys+S2DQ/ZQ9ues5fG99puuRxSDapKZ0BU/GU6+c2T1aqyqaYj9cBXAqX5kdaLw4AsRKe4DeoIAkFD9Icuy0HwsCe/Z+okgiAsdBVU0Cd2sDgbEDCSHhJ3zJpO6GJSCWClE4T4aMJSL19+qXKgPPy7EocA713rJWn0p0oyg9Cm713gqiqTRr4gf9X20QEyb0nHEc6oBol7xkdt2+B+e2XXbtu8+zV79cA+21OZUO/UclLZVB74rK7ULO96ZCGgyqQwYFCJyU/iQmCuTl8f1WMWJJWmnLZb6mhvqWzzO7uNl2CZ7GM3GPrMHP2qfnsPDNq+6qQNye7Wvbt9UMRWr1nlI081OFJ2ffKju7PT67L3uZ7JEbNFXLP+AwINn903IIYvj71q/+2bv2uD2TF1aqzBgghKmUphse6XdetQDhQP+jcvxdPVKNt7zvqAvePsH1FH/Oa9FIr65udUlVYpQMwavouDiIlk3+h+xfkF2zawxbZv325DrD9TWog4s5ZQVG9pJEQdcqFdtGKrw1YtONFOXnyareo/0VbNO9EWdi3UPfkvUdJcUAKMqlELPuKmI4NpyahRrHr79bjpx1mtVrX94/utXhD1yvFF1ryIaZfuHRmN3IiT24WlJdbRkqJRPtNRkFaf9RaYfUSYyXYCT1zQzIooA4PRzLDtndhjHWyd1WQuIUWIm2z6ESHeVRG8jOzmMp1WyPdYR7FXVIecotusyJYGG557ItVyMJwZtL+5/wu2YdcG5UnDCoSt+FQKolxKZ0Fsp6C8IX41DToKjYK9+6x32HXrrrGyz3Wwvq+o/IBQ03GF4RBLW+iU2T+X2FFMnmReMK0N2Wv1QZ8xyXk9CMRByZc/xDUvd7jVhepEXj3zqnlrRdrCexNejp6Gt3bNOv+II354BxqMHHjrIsOkRvugTnTJBkb32q6xvfbi7lft5d1bbe/oAa8HjYbKRB5kyTM6nYQ8MDlZKpZsVc9iO2XxGls2f7HLvI4+xVWxyxSJtcJmroi26s48Xpzii88mceH39I+L5D5EwWuP7NDaXhl/zT7z7S+I/Iz5J8GPSgzkSU7lyLcT1s5bZT9++QfsxPJSy6qwK+pIoWxlEkEoStfR4ZH0TE3TQF0cb0/aM3s221cfut0OtCa8foEjrR1tK89puz3WaR+57D128cLTrVODcPyliVNvGMAQt7dyzTpp4hkafD2Er/JXZUnDYNCL+YiY20BlxPYNHrCd+/bYSzu32b6RIdXptrcl9DUqk8mAFF60imSeuEj4cE13V4+tmL/Izlhygq1ZsMSWlvqsO8d3DnDAREWIM7ovHZLPxOHyGILj7gUOxH2iXrW9Y8OuXSBO6HbukWdVJZb22il90tDgjtll3lNZ3tFjZZEv0n0kBNIs/UB+yW8vP9VZ2syEym7b+JBHhJ1JjuxTuJ/P5e2Ecr+3l0Tde9+AH03FlVPsEUY4hnuucBxc6L8uM3W5ZuZZZcGXNHeNDtqWwQHbemCvbZeMNaqeP4QDvSE/0VQ9GsivXbzcTlu80lbPW2TzO0Qe5S3vc7X9Q1/ocLP/ftc3bfvYqNcZ+gv0A+8T8ZSL63/ymvVZgNQyHcRT9+3Nmv357bfYgMrRJ064pziggVgmSTn3KI68YHqBdJU3ey84MoAMI7/DLHe4lq7QgTXr//vRO2l58o/3kDxZZBpqV3nTto+cdaGtX7XGHn3tVfvqk49KxxTEBRSm9Cf9By+jdyi27z7tfFu0cLF948F7ba/yn1L0p4HKW/aB532os5Yutw9feIXtGthjf/bwXeofGHApskpLXLN+dESy/gMCFX8ukvV0PphunbDRCk11ssOtIRuo7bY7Hr/VXtq92UbbI1ZrSelJQdG+fY4GpYrC0g9lzkswnSKLTSnPrBpZXqSdFxK7Cmz21GEnnXCSXXbp5bYgv1gNv1cEs8sftwPpIPcFsN833tNupxJKmMq74cqQfe4fP2N7W7ttsmPcqsw64/goKGfZ9rJkN5z7brv89KtFYDvc/7C8KAwSnBUI7GkPIYZooOVrdZHqUsNue+YWu++5ezRIqCg+RDBFmFmYBpEOxKKscuvPLLJ3Xvp+O+OEs5hTtxdee97u3niXjbQPKOpNq6lyMONq5bZtHd1hQ7VhL4+iyHlWaaurByRvmMkIdaVlVSlFZvyXdS6zRaVF1ubNnYKUWHNM7jJWVEdUynXbeSefbxesOk91ryQ/ICJEjRJXN9Su23eeuddu3XivNQsNEQzSFMqXl/4gaQwSIJRpZ9BRzdsv/ugvikivsKLIEilF2b/VZN1fuErymLNAtAKwoehatqYBpaoXn+ffOjZg92x82F7Y9ZJV2hWrtyatqQ6B5TCtolzIPuK0Se0udAZqfwqHWe6SSDnp7cqz9WneTlm21i4/5xJb1L1AZcp8M09KmD0PdYj4EC/3zv0lTpikAXEj67OSLELi899jiucXH7vV7t/2tNpGQx2ocpU2cCTIq2yjZfNEWj9y1U22fv6p0hUdaqeqt4wMVS55EZi8CISx5/pRQfzC2VQzVMfK/un7NYD4qjrzh7dusknVF3CkTrOkNLHEiidl561cZ5+68D3WTbtTusPMNo/sOb61ZB0EjUVSoRHus/94EiEtZwNjg3b3C0/Y5r07rFrjSZoGyEpPpqD2yNM0J2okheEwZRvC5T/l7TPbIiYsr8iJUBVFaiAfJckJ8xbbFWest1MXreC1W7XJ4JJlB+5ev5k4+CqB6hC5g1OOfJTm6a0v2m2PPyjdwG0NKPyJj9uWDqEcRdYVXvpBNfL+/RdeaRevOE2mhw1lCuQNep5dBCk/T7tOqSM7KsP2V3fcYmPVSWtIB9GPHQnKCbt46Un2/guuUMuhp5M/im+JxCiOkPUUtBlPgicWgyRggTggNZlPtBq2cfsr9uiLm2xPfcImlQfVpJxwQL1gtyKuQrnhWIMaSXdOLViGp514sl196tm2uFBSmUjfyg7J/a/f/ZZtHR/xtsrubSwZax8vZN39djVqPUrvR9ZdYJesPtH2Kh8+fes3bJc4DYQ6V+cprHyVRXqDtb2LbNHiJfbUSy/60xa2f3VdRj4p3r0K813nX2AXrFhjO/YO2J8/fLcGlEWVmSxLF0SyfnQkTTvieEE6k82PufRRG7LN+5+zrz/wFfvLm/+3Pb3zSdvfGrAaa05lD/LIB6Ig4yyhyEpBQcjzvKCYFSFEq+SkgKXV6/mKVUvjti+zy3ZnX7UHd9xhf3brf7evPfkle2XsRRvPjIQGjK5DMygudArMcqkHpF2iVfy+25GUOzrsqmuvtFq2YvsqAzZYG7Dxxv4pGasHmWmGDFRfs4H6HnvouQdsX3Wv1UWMIKPeBUnB0rF65AlHeoD88O4bElFs2yt7X7aHnn/I9rf3KoeGbUikeFpGNbgZE/mecMFssD5i+7IjNiKCs/qkVbb6hJVOttkusdaYUB6/ZM8Nb7Znh5+3zSMv2oujL9jze1+wYbljSQUUIvRdionyFwUFGLC4oBpzWds7sd9e2PeSbR5+2V4YfNk2jr9gmyQbDmyy5/e9qPIcF+1jri2kzQXID54WTGbVsZUmbSg7pPjut/1I5oBk0PbldNT1gewBCdeDNqwBJsuiKBhi6etY33IoXFf8/uenDEJcdA9yqSGNTZSUz6Ov2Fce/Zb9xXe+aA/t2GC7VXbDSnNdTCWbZ7mAcljlDzH0JwssVWCnBNa1q86zS08eQp/k1V4NYrdnhuz+XRvtL+76in3lkdtt6/BOtZ1JuWXgqPrUxB/lEORA2UM5MvDm6Dc4el33lAQojOHqqL20Z6tVWIakukIdPDrU+amTO2XRCXZK/wqN90TKqcDKFJoQfD1fUA86y86N/tuPMwQyyRKbblGrM1ac7EuonBi40EmHjvp1Isc89mZG8uXXttukSEZIv9dugnnbAJnlS8CkkI+9QF5qKr89Ewfsto0P2l/fe4s9vnOzDdSkEduT0lVh2RPvOKAzWMFB3ubwgzYgwTyVhvspciWLPEmrNKoilDUbztVtg+rLFx79rn3hke/axgM7fC962ij1EF2UtNbgk/sbQJx9UsBFf4oD9xBa4YRc7lc9HZAe36vjiOoRa+uRCdXnSclIvWKjkrF61Qcd/q7FVAhvjDScFNQmBLfsYDQhBT6q/BltKzy2myXMNxR2viK/GeIHf1kakXqa+o14m5mCLryDYemQ2aRkTH48vGuLfe7+2+0bzz5mL1aHbZ/a9qDiU1EFRE/yxDh88I3JMEi12r2uWQ7Ie1t8dXNQ7fzRLZvt7x652x5VGxxSOggKncJ7GN4WFUf/+fWxD9KIzGytvoRFhdYj7bK0u1d30HUS8kYEnPxpqNB2j4/aph1b/eNtbHfNEj8H9hotm1/utDWLl7q+9qfYPgDS8XjI2DcJgRFEHDeAcOdbBal5FNY+e+y1h+zzd33GHth6t+1pvGYVuoCmemo6WSdINFs1Kh3CbFKYteBHx8yMb73Qthqic16Sa+bluzoO1p4Pjh+wx1582L703b+xJ7c/JpI76DMdDjQ3/kjRsi1gK6+OgCOiRo/qZaBwwtIT7LTVp/se8cx4+ux+Iry8iaTXqTTzGorkJ2ygstuefvUJdb5jSjEdr9Q5s38Kl1lb7yIVj7QTa8jOWHtEJP9BkfADVivWjJ93pDOEdesoHdawk0+s48s1C7aoc6FduO5CXzbCLDFTXbioi/2wHr+pjprOnLjI1IkR633DDLgGEyykhCnJb/LJl+0IYV0w8cUOj3krSmfFO7Ga0sGDR2aCeDHJI5T2ehQcRcksuPKSMiN0yif9YilPeTiGpwsoYyITZpCgIKHTwk+WfzDn8jYhSRIgW9rUU6WFQchQZdDuf+1J+8v7/t7uf/UxDdb2WtNn9sMAjXSwnKEG6yJ5iYSaHI50TOm5d0hJPk3mGzZYqNrW2j57dMdG+9JdX7PHtjxj+5tD/p6HCsZ8dwOVgytU+Yv34gcu7qlAkYRLlYESsHt4wIZrYz6NxRdCcXM0ELdyrtPOX3uWzct0+npbOAiDYEVDZJIQVOeSML8XJC5D5HXGU7CV/UttYUe/pwsJekDnhxFm/Zp87VbH0VrVDlTGvG7RTvD0+4jSmwJCZy03zd3Tp4SM1iftlaE99o8P3mH3bX7adtSGpPlokyoH3fdWniTWB8vJOeSCLA674Kh9pCI3PD1oqCHXNSgMO3PoXKSwqra1tzVhT+x91b786J1239bnbEDXFZlD1AE01jVQuExMZ0DeYYZQDq7BZBlX7gf3PV4hflxzTOPm5sFYFl/n+6zhcXB/pXcUCep30Brp8XAyI14Ch+R0xknwO/3v4J7yER3HTPD+ZsXuf26DffOx++3l4b02orxtMFGk9CgrnZj7ZJR+DJYni1mrFniqw1CSVoeHOuoe77vwdOKlkX32zacetie2vGSjDQ3QGIuF7DxIjg+k+RPOKIm03RR1ccK8herX1PsnGUR+tt2yBm8aAI1UeFsNl+Q19RQN2rZiLmfL++Zbf4E+Ue7kJwhPp7EfMRvQ7iOOJ9A2pNnGWsP2zYe/Zn93/xdsZ2arjXUNW6XAa0MtNcySGhREJbzsiTQlLZFI1gJDYCDYLR39pbukMwhfU9TYWaQuwy43LTXtZkldYM321nbaP977Zbtz4+22r7XHqjmRVnp4FC2PWemuFK8Ga41FvpgFB7lmTqP6PnvnBe+yEzpWW7FWkvJVHBDipqNLEs+p+OrHnvYMDm575Fu2Y3SbYlFV8vlJjfCskPBZREkcwphfCrwiuzts42sbbSzDPg9Kd06+ifg15Z+H60cofNWvOdYzVVvYnG8fuexDtrS01IpWVicSFFfaSUGkisqoYjPvxBsCXlAPz/IXHvWzsrYlIg5hpxxQlAi6jS9Lsk2ff6ioVZfU5A8vmHb6R7zyTSnCJsuQCj5I8GU+OPR8VJpbbMnI5+fDrL13ai7KB5H4jMosr8FGqc4XcPMhjgqTJythuQtEnfJ9e1SGUjINLshTEaMJkZ4DrRHVq/vti/d8zbZWd9m4BmnGi8XNqvKJx6gMPFjHq0GNhHp6sPAYeOY5ZJd6onqhusGaZu/uCy0N+iZte3XA/v7hb9nNz95lw6ojw/VRJ9xeZsyyJ9EDRDXsqkPeBYVLZ1dp123bvtesqnKkmNye/z8yVHK2rGeZnbT0RH+6hRP8TYubykZtDsRkdvCwca+zsJ+7oPaR5XPlHb123slnWlH1Z6YUVJcOFZ6Jt6nPilcxW7TBsTG1i1CHCSV04W8HRGhVD5gNZInLuOrFc3u22pfu/bZtGn7NhnJVaxQCIfdcUzTJD9qt7ySiQkPYZ9oJqo4s/XDR/XCOHZFAJHET2m5YeoGnExoy7lJduWXDQ/atjY/4jHhd9r38CFeh+/roGZBXIT46YI9rVFZRFzzwYoCG8EVLgC72+Moi58SXZTKsYcec+Iawjg4PG0ydBKSX+EObmUr3Gwj5k4aJW1J4iJcHwe1iQUIaIOr7RNS//diDdtdzT/maeaY8qFZFJahU42M74Rwzyo10+9KYJO1cp/lCHmAHmZSDIZXL3c8+ZU9se9kmZB8iTyToHjhyOC6ghJJ/qQAGpHQRTCatWbTESo1W6DJ1z58eqjTpR0LrDoMlKqrXVVliMJlXnV65cJHvUzW1vNEhuxGzBu0m4jhA+kiV5SQDmV325Tu/aI++9JAvg5lsi5S2K+qg1LToXDQSDkQuNL6DhFngRPIidOVqhwheyYoieb6GT3ZopRDlar5mFWamRWR5cXUks99u3/gN+9YzN9ug7ZX5pDdxHk/6ujRvvOE/cKUhP0utDl+nfdX6a5IvsDJ+p/OFGCXnh4rcZkXMaoWKTZbH7aFN94lU13zW3bcPEBggiOYrBlIzMibk8ca4ffv+W2ywtc9a6gFROubruHOSaVLHLKKLzjN5EeBi0S5cc6Gt7VlrPZkeOZJ9ta6W8oFtO3kvwKmugib08OSANAaizJGsm5p1SM7DNaSRx7uy6/fklgjLHJI/JbLKkZzEc1wSDi/6hA4qdJqpap2GYuYDJtQBZUhYQTkQX8hGqiiI19uKJNotkd1qpm4j2Un7+iO32R0vPex5zdf72jy9ELGu5ZsuDCpJHV/S4wugpClIWq8PNSMYyjnU5w6NdzrrTQ0U6+LkqjP5ug1pYHvvq4/btx77rup4Q/W75h4U8tRlnabhhOh6vlEzQ/G2rar4b9+/R2fESeWZk02Vz9GgGNm6ZadYQQNqyo31GbiacqkTBmBKRWJwdEBavA2o7SfVTx20iJb84EnW+WvOtItWnX10OeFsu+SEM+3yVet0XGe9+bLiEWKWxo98eKtBkB0qy2pDdaaYtUe2vGBffeQu26WB3jj1I6+yrvMUhvYW4qji83zhiQXHQNAhL4Ek+3sikpIMIMrsypSaQRope8ghfgUdF55JMQvMuwmPb3nOvvH0/Tba4gkZuoAfMQgC5HT6YiYUOW/nuuf23SLlHuobeoB7ifEUuD6c+eGAnZn2CAd4GBLXNcn5bCR1O1NSzDgVuCL3Q77ztHB/fcJuf/QBe2bnqzZckI5WS2oy6FZi2WIT/4PuI585b3uZ9FXNulWsfEof84PKMSmb8G2LjE3I31uffdyeGthpE1jWPY934obT4wFKrgtp58gTIqZ7GEMu65sXZse9eOgzyBd0GoSdJ8uq98p33JFfdLUMPplZXyy3LCNj4iQMimUjrbgRs4KKIOJYR3jcFLCvOWB/ff9n7Ymdj1o1VxNJVYfcKquToRFCPls20R6TghLhceLzxsJuIZncuDgGMmlZkfIMZlKm3jmpNTObnNev1apbvVix0dKQPbj5brvrqe/YeHNUcRPhVgfHDHquwkuWBSciuPHqSZsWmYF8rF271s4661yZd8pd2YVzs3A+UzIaSJBuSDLpeU6d4859O2VXyoWZU4XLkwJmQ53cStHXGw17efvLtmNwhzWKPElo+d7meWmrUrM1LbouK13MMhTqYfvEZb3z7MqLr7JyUeErvtA3UQN1NpNWz0/6NpjVQtUqhZqNlao2XtJAplC3mjoGJ/8iE6JtSmxRCq8ciDlp58d9xZJZKmaKJgptGy+2baIoQloYtbrLmEikOn6flUe9AlyjbEUOpWHZfrCmODRU7ghPBzjWRT5ZvjSuHm5CifF4KdEMuHi60lZdYCcbyhV564FSP0Sxq7MerIzYtx/8rj2+7Xkb7lRud+WsovxkGQLrc6lBRQ3MSo22lVVWnSqrDp3TRwThPBHZDQJxQrAQZqjTPsU7GJED1WZ1OrwQWbOnX9lodz52j402GfCqzjSUP7JG2aWDAXemA31c4pWIY80GBveqHjbDrhgJeTgaIOtnLD/Zd6XxF/sUELGEXyi6IYAk/Nkg2CP9nuIQSbWbtBbR7paX5ttPX/i+g+WC99lPXfDeg+STF77LPnHBjfbx82+wj114rZ26gJeSA3ElDHLV3095q0GQVZWZBlLP799u333+cRtS26nmGVwVrFVvWLEYtlZNiR+zhwzsaOsM1pi5VRXzI4XlxSphAEzbDN8lwIxawoAt46Secp9Us0Z8NphdNGoqc9nZ/MpL9vCjj1hVAwWyaKaePhQHlSfhKrK8RMqn4Sck4/iv65lwP2WXOKTicQy3Zw23L3fpIdTtGZKa6Xg4mbLPtY7p9RtFJOQjeat8a9bt8Y3P2Oad26Tjcp6P6XI19ULW7shbrZSxihp7eOoRnuRQKuxuxaAZv3xWXUIe4NafRni5qn5KL4zUKhoItO3OjY/ZpPo2qgzxBLg7njBVPoIvo1I+s0y0S21k7cpV0n/kIMWXTBQog6ED5LWPc1SPWU4W1rVnrLury/p7ul0fB5cR3w+Os2r41sErJQrczyEEYURJIwjKSBXZe9c3EWpQrmUQwpE68w5XZDgjUjCUGbDbnr7FNu18xiZKw1YpjpnvQy7NX2yU1DFBkhVbabIc28CJQLKkwpdWsCxCXUwuy9yi/BWRm8hUrEKaCux5UvTPm/v6cRE8SB6tntl35pTa2ZI0pc9L2kh+r92/+Tu2YfvjVpUfPGpDMfvQW0c6Os8bmctbn7kuiJTPt+V2/bp32+rSGnWEokzthg8C/KNDig9ktS0CXuQrnIo7AxGWfZDv+zN77OuP/YPtaeySAmKWWylrd4Qege0I1JHvzuyyr2/6qg0W94kw5/1pgaif0qMMbUvVtPlQRdHqygMnZtmqa7Xe9iL7sdP/mS3MLJJyKinsDuvSgKNLkaeD5kWafJUZIObxKyJaDcuR100+wiUSnB+1Vm4i5EFb3TgDGOWUckFpKCkbKIsJa7aGZUFqUBZVtazRGvX409WzT3qrWVF8CEP5AilSz+R7o8sf/85XmweRJdkm2syEsGwGCXle9qnA0OFxXWqovEQIs61uhar0yzzM7f+AkQahNgJxZDaSODfUcRNB2s+wTdr9Wx+2B3c9YJXykDpcDRardZWpUktGKoOYlWuqXMO6YgZQ+skPDQeVF9Qp6jtLtQpOflU8/oSlrUEba8h5AJPJqsxzDAKU1coeqihLkRjwjWlQMJIfs3u3P2EP7nhanXzVsqoruMVuaOgMurKKlwatJELCy3Z82n+sqTJX/eXFR4gHafVuDl2hTNAwUG7YhYI0i+SpTq/pXmarexb7GxH++Bk/vVMM2eUaHdLG+WxA+erHIMArFTP8Sq9akHJGccZv2VEsDhYNYouZwkHSpVh1ZzqtQ/UfXcAH3VjiRl4RQqJNkoDfHKT5pkx0gWbxcSIG3m0NrHWpvMv4ewebR3bbl+66xfa2xm28pbYivWGyR1oaGsQ1FF+EvKdN8Dl3/yCY6hD5wrfdGItBBnmh1D9qJT9oq1CaWkN+ymHbn+bIrQDhh+xDDOkHmkXFRYZjTCJogHz3a8/Z/Ts2aVhPPLADzZG3OPb6Q0FKvAwOLlTKG91WUDrDzlGhnTATnJItVChbwqYfzvGnJ352ZLjucR3sZ+6vL+dyc+kciLEuEU8pccHODElPOBAnTjjSNog3BrRNfA9CvFVnmKhQZo8oj+/a+pzds/NFq3Wq5fkSDOWQ4qGcx/Z0JGgLus6qLNH7mNWkR7EH0aQ46KV8DycZck266KF9p5hSh1Wk1/dNTFp9ZMLJPE8kvR2/DUjzJCA5JnmWXnMZ7NFfkKDEnsymbClpoeh14uU3DU87Qt3RUarOdQ91h5xJZ8vR+Sx7JYz1i5f4lo4+Q04/o/rOoiQVmLrRpvpGdB8TdDx5l41G1dYtXa6+UeXSVO+PvpGffHulroJg0oyIhoGWmg9xpXx1Ht4UC9cRXtsjfiBQLfOK5phuPD/YaqeKD5KAOTRhIF7xJ+3pVx63J55/1D+A5GvOXWgQaUxT9QBBErmhM2OWUsQUruqkSQ2tIAJZrJetq9mjo0gOHFEdcqPBMgRmlSQiyUz1haUXCFUNBcB5y0YbI3bno9+x7YO8QV6RPQ9+KoOIk8fFzeggpGhFgOcXFtmN57/DerIKWySe1s0OLnRUTvJlnXX1YZmInMoM33hSsGtsp7088KIGGePBb1mBsIEJkeEHN91ve8ZF5lmygl+Kf3CNEpMCcaURlGM7hwLLWke2yy446UI7ffE6dQZQuYSMyBHxkcqyUlYkJisS0+iwogh6oZq1clPXrQ51CsoXdUoqKffZhbirbPCDFGHGdaGgjkxarNSUP8r3HoXd0SxbqV2Wv0WRJNGroPuUZQqb+BJlmZD75GGYfsUoSZ/CJwys8RQkpBC7ir/ueQdN4QeP3N1bDWLVqGmAk2Ow1/L9yZ/dtskeeOZBG29PWLU5GXKd/Jag8JGUsNBh8+JttqD8yRf9YzV1CLV6sbYIQCB1dFbZQCbYEpOPf9CJC7xsyjNdaiS8gHrATCrx4iNJY61Je/jZx+zVAztE7NVxqm54diVZ7XlGnDjXKd3b/uEDinfN8sUkb+UnTjzj3SSpCwStug0hhVAv6VvohCXU9eDunwp8CKEn/iVx8TojCUjuH0H4Qcun/DpE0t+bCXLLc4w8Ts4ZqOdVfuGGOJ5ujar937/hcX/C1IB4KHG4cGKS2ON8qs7ohPXSbZVPDWKOPflbUP3JikgWeeIGu2F9gC9hUkuXPvKdQ1SnfHZRAeCdtyXcS7jGPMwAs666bQ8//4xtG9yjeokO8NZ+WBxsjk9IEm9OwqUfZtrlXprG9DhbqPpNITgNPhN3Tx+XHHWYKYciNQv3p22Es2DqNT6cKn8ytmdixB7bvEltvOF5w4CFtIT0JHUpaQvpV51pKxkNrlpqg6nfDDgZ6GTYblBlk9M1bZ0W7eRSgeKWAVr67NDXautH8rj3VuNwQWJGfk/lOcdgOkOmMfPq4DtpKaYIdz3FyY3UPu3Z65bMydGF5U7rUhtAl1H16ctpS8E1+TbtlvLqzhfslGUrrZToFXLUOcCMCHCatpU0r7k/5U+Ew7M54liARrFMGdCxh0tvGPAN1ozvruy2+56+R0pvMtz3JhIAOWRdL5KS3HqzYYViwZrM2mRFBPXryvTakuJSW9WxxlblT7QlrRW2uL3EulqdUpYKS4FBCNNZY0ie7/LifhKvQKjZjYZ18fur++yup++widyY7BC2B63jGzdTdllZt+IsO3PlWRo0FH1QQQtngMALkoqFr1NPByE+wyX/UBATjXH77uPfsYHqbn8y4FpZPTnLPXZN7rBnt2zwwY0TfNxLnODKzzAjxHKDphRVIHv5TI+d0LvWrjv7aitkmUuYJgievXgj03yjoIFNr823Rbagtcj62vOtr9VnPdarOPNJ9zD7SrI9zp5+Sm86H3jU3lIkypku6233WX+933qrfTav1W8L9Ou3edbZ7BKRZ7YevygPXOJHKNMfXogcFfKBuKqO7a8dsLufutuqvjxH5so/71zpNZRuOl1mG9OXSykFvm7aZgZd9UfDG+vLd9miUr+t6FxoKzrmk3vW09YgSINMBnDUJ7KNzh/iX4Kcqzx5+MAsELnK+mQIPeb7R4ftnicfskHVMQZWdDqh9PSfusAFR4GaOTI64n5T1+nwnJC7PfmHpeBYB9UDGTA7zcz0kgU8vUk8EmaeR5B3+kHYkvyDBFSsbo9s3mgv7thik3U+exM6PsqIIzmIu7DmmXYv/acbdRG+uupRjgGyCr5X9WJepmxrygtsdXm+6o3aXq7LutrJM5oMbZkaOVNnJARGQjhTg0gJB9ZcjypO9z3zuA21q1ZX+O6amwLVELfHAygzXtCmzHjp865nHpPOrqsPU1421T9AsKV3Uekhf/gX9CQvMTKoZqa2Lh2t4ZUGVhkririXdI/vWhRlD/3NU2baHE8j+aYF5ZS+z8J5TeNndvbx8poK661HSF0AdWDqfIa82XB/k7AQ8sDzQf+plz2dXdbf1aUyYFiDHddeiS0OgYhj0lTeLix12sLObtdTYYviab+9/XEiUPZpm/UwZ5xHBKhqRhwLoG6jggLDCNdUdR5vVbOTdvfGu0XYd/kMe6r8w2POQGhTUp0S5Xyu4EtByo0uO6G8xm5c9x77xff+S/sXN/2a/fIHf9V++UP/yn7xR/6F/ehlH7bTl5wh8tMvkl7wXo5lM+w8QjDTfgZiEh6taRAghTmWHbFn9zxjz+54RvFKXnBNW+kbIK8BQI8I6rsvfr/1ZxdaMVPyZSZyqHCZzVcHm6+5P6408NNzQ+YatOyc3G6PvPSgciEZtIiwT+bG7Y5nbrddYzs8P3h5FvfEnceyxBkCTSfir9tk6uocRMDb/XbtWTfa0sISddDKa9lLqJaDcFk8tHrRGvvRaz9sP3btJ+2TN/6UffxGHd/1E/bhGz5iJyxcozLyRSruEnVGeYRBEx0R/8lHxamVszPWnGU//s6P26fe8Sn7xHWfsB+//uP20Ws/ah+74cfsI+/4qK1bvU5kk3yQI2E6Nj/8IG95SfjB5x+0PfW9NqE6Q75l2+qG1SEzoEGl+UBF6ecJCEtMVNVEpETENYhc1bXSrjvpcvu5d37K/rnK4OeVj//ypl+wX37/z9iPX/mjduGyc2y5LbSuelEdvHLP65bqnftNx86gOMSGFwkbCclWU7GtIwP28oEdKjvVEZ+N5cmVXLGcQuC/YqQq17SJij+OEjlR/EQwWFLh26DhmXs5TTjDMhKRwEze5vfMT8ywG0EWJdnkIM/4mqgy1Gf8au26jbQq9vBLz/osNh8S8/dkkplY7HtOUmdwL9/4UW48WSo38rY022PrF6y296671H7uHR+2n7vhR+1nr/sR+7nrP+THT131Pjtv6cm2INtlndJHLFNj4IgfEHWOgPBSsu61iXuqP+Otmm0Z2WtPb3/J27ki6IniPu6R4wXMeLNM7MUDu+35gZ2+NztlRZZApIOGDVrW24f+eXlJchpc8ZADcl5W++jS/fmFoi0TwTyht99W982zZeVu682yaQGDMJZD0s5UF9Q4GaxRVgzU0jz3slJBvF1FQB0gmW+EI937fuF+HpJg6itkvZTN25rly/09G74TgGWvrh7P6cim/eeJfQusk5sCy5K8haG7JCFvvQingM30OriaPh7voAwijhGwl3SgBEkDQmS6Y2SrPb7lCRvPjlqrOJMQqxmoIYXOSTQCjSUznx2v5qy70WPvPvf99kvv+VX7yJmfsvXFC21N6xRb1lpti7PLbEXnarvgxEvtEzf+tH3iHT8l0n62dTQ16hZpdbKZEUvikXPaggWIL18iZM1nNTdpB9p77Z5n7lSHpbjxIx6SNyLuELGOdoctyS2395z/Putq8OJKwe3ijhTzI13Az5Pm3uLFzPyoPbHlMds1IVKVaKCX9r9oz+x80tiXnSfbgZyHOHBOmK7Q5ZVvRybvOq1sl510iZ2zZL1Im9Ls+RYEEB9+0KyeQp+dsfQsO3PRObZu/tl25sKz7bR5p9lpC063nnyv4l9MwgkxZWAQ0k46giGdR05EYFHXElvbv9bWLVinsM+1cxadbWfJv7Pl9ykLTxNZ6JY/GjQlFWBm3v/QIs0KHXaN7rXHXn7CBltDVs81RIQhsUXlGTknUT5SBJBqX7aUyVlHrsN6rMtuXH+N/eT1H7MPn/0+O7t8qq3Nn2Crc6tsSWuxrS6ssouWXmCfuPxj9lNXf1z5eao69bIGh+ELlvU6X9hL8pJgOFDeqjAQLpa/DLcm7NZH7rLByWHdhD5QjtiBIOpcZID17LTTscqE79GfZbmGx11+ciDKchfKTaL6xkdGWLJT0gCxr5OdhgIiYQfKo7ThUB78lFcwdV8yJbL+wDOP+seOeKGUmW6s0/SnyjMB7S48oWGWVe1WrO3C5afYT131fvvpy99r71p7vp1RXGjL8n22Mt9va7J9tq642C7uW2Ofuvid9jPv+JBdevI51p/ptLwabBIll5Swe9hELwmaJVO8ZH6gXbV7n33SDtTHZMpNrz2uzQ+O5TEMJbSpsptUqh/d8oKNFVm7nJSp6nr4OqnaUrA6BUh8XZnKi7odyuy+atsuXb7WPnHJNfazV7/bfl7ys1e8037+qnfZL97wAfv5a99rHzrvMjunZ5H119tWpL4ozPBNAOn84O1UGKlOf6sxM41vNTxs6i56Sxdeb+nSlVenrl5jPcWivwfBFBNbvLrl5H94shWWH53Uv8i6aHTuSRhqpdotLF31kII7TsLl9HXEFNBZEccIvDBDLzRV25mx3rD1aRH1ESm0mghC2KIMUhOUkM8/+g9FCfEtNEs2r73YbrrkQ3bVGdfa4sIyy/GGHe/3SXhBhBlut9vusr72Ijul9xz76DWfsivOusYKIpW86JgVgcnUebGSFpi0QoXnV4pnpiRlXGjanrFdtmXvS1LG4QVCn5FM7NNd0WmlcBIrJdDR7LRLTrjcLlh1sZVbXdIFSgHfxpZG4WMuqIUAzxA/81cMs3XbN7nX7nz8DhvJDdtIZtQefP5+G7Nhv+ezbrLLC30se6Gn9Z/yplXlBZmc4t4hJXSi3XD6VdbXFHlSfkzHMMFUmjPKI5YRla2r3W3d7T7rtj7rbfeK8Hcqb/KyFTog7KYkLe0y0uL0otI/XqyFeHa3e6xTYXe2Ot1f/Ed8Sz+YQUoAk/8oXSd3bh5M5yzS6JGHiq8/QlW0Wc6wcesmG2oMW7ukPFLHmmV0pZvMSntnQj2WB75/dcFfc1L+dNi7L7hO5XWprcotsBK7DfHkR0S8JSLdzFGmvHpW0GCny9YsOME+fPX77YI1Z1s5V1Y4bKtJe+GpUZiBAzwqd/qgQmK2vKb6M1A5YC/t2eJPAKhvaWJ8uYyLwlO6qjVeTpY7pv2VPv+k+ZRt3SLpOmZU+Hy+nl+Jlzg18Dh0L+7jGaGWg3BGW1FRKCNbVlcbfm1kwJ589TmrqOBYn4z+IE89t3VM8xvXDIhpOqyQ62sV7erTL7APX/pOO6V/uVpcyesXDpj9Du+vqBxERLKNrHXX87amOM/ec9aldtP6K2w5H3CTh0V56H7zBEVHwDXi0AmDNz6QNNyq2tOvPG9Vhhmyz71U//kyqWMdagOQ8x1D++0lZtXVCLwFkdc8caCtC5Bz14eOoAfqsokWXd7Vax8RSf/wuVfYuYtX2epSt/HVi8Vq2wulO5fquKbUYxetPMk+dvWNdu0pZ9t8tSvqAvoFb9nFhycghJEOst4OEDQt3aOQ9ieJPkTSXXG8bkicWGP3ewBZGwg5bUI/HZ1SExS+hz8X/kPAe/IFWzFvvlqETOh3G2HpKO6ILwQe+l5SHT5lyXK5waL77nbIVxWz5fXPyT5p4S7H5NyfaEo83OTJ5PEO8jbiGEHaEMKsLE27ZaOtMXv65Sd9CUiDnVNoB1JutIJ01hhDb0i6zjYK1iECeN1Z7xBZuRRa6H61OuQby9Dhgnk1bu/wmCUv+NaPPc15tji/0q5ef72tnL86EPtmyzpL7CnhwXlYBMdHlSDrfJ4d80prQgOKpxQvSLpoqgwxJwUzQRz5DzECna0ee+cF77UlxWU+wKA206wz7GFGmuTcH2ESKOb61auiUc2Kbdqx0Z47sNE2DDxlG7dt8HX9uXyyNpJZUYQfcVGEeCmpXFAYzYKI8gK7Yf07bElpkYcj/Y/nUwj5T7jkT5CQzzJVBNmPnocOrC1HNfpLuITjbvCI63D0WQqPRxBIHPvS+44niX+8L8C2m4TjHoHgPDkkZj+sUPSZ8eQl4Od2PGeZjpwT3pAyhjUsV2L5g/KKfGImmy9p1lRmIuqXnnGhXbT6HA2sOiwHw6b+KOPo9HlKAiHwXXvkD+8jFHWcl+uyd5x3rZ2y8ETrFPGyDIMq2gj5H/KTmTjKJnRwtKnwQa8X9rxik6ynh4AnpAshBOpVgxdcfYkMJtyj1h5SdJSt/PRdaVgfqpsMj0vsqhQxBc9/z0XPyQCYQC5rE+2avbxvp40ycCJDlZ8z7bqJlwv/IArsfJWznkyHnb/6dLtm3UUaTmtQJ6LIC4t1tfOqWBydJmWEW1beufhWLqpvKqPzTjzV3n3RldafKfo2jRCSXD6fhPV64evHCE8BNm592caojfIPAoVOJ6zjAbSCSbWLZ1550SbVbtKUowv9yRmZlcDzztuPl57aaN6Wd/fZey663M5ZstJ6aY5uM9jzBqX2Sv/Cy8eQyW7p86vXnat2frF1a0BeVDln1SdB1LFOGJTZ2wGCdSEdiggbN9Bf+HZEkjai/pVIOnmXzgsk3p3PHu4mES7xkz6QdwfQXeSDbrhuSvzuVFiQ9aIMeNm9wCCKN7BZeoa60zEnvXX64qXWVyp6v4x72g15S5iex3gmso+O5F0FjoTbqDNppnKVPdwElxExF44R0NR4ZK+2EmaE1cKbUvpb9m6z/ZP7rd6oqDNSo1Kjn1Zy/KQE1Ni4x5ZZvAy5sn+VXXbmFSI6dFUl+cNXOitWz1etzv7cvIzq7qXc9J8GzawTO5wsyC2xj97447aiZ7V1ZLqsXg+zi5ANXx6jH18crWvgkBPRL9DkVQuf3b7BhieGXZmCQJWn4aokMcjmlA65gQwtLi+x69bfKHK1wNfY08iZhfQwiWFLMSRcpbnVaFtXvhtTm8iO2S1Pfd2+u+l2nY+73aY6VtwFsk5gIQ4ITx2Yve1pddkVa6+wk+efLqUkle9vIKHUcBckBWkO5DsBp+mlrEEc+PHpeScTKCh3HijoFGH3PEHowHRH9hwz/dMJKQ6zUH5JEAJNfMrSDy2oF9uHdtiO4R3+uJu6w7sFni/qIXxff3o2n6lWqtsits2indC93K48/WINOotultzUIeQpJDsnYZNO9k/nnNkivsLZm+m1d110oy3K98m84IQhJQ3UZJAWNy+y8vIabe753a9qkMw7ETI7ZBYc6yxrqbfYXlPXM4qGe4l3QjgLZJ1zdYoik2yRGDENav2MTJsC7WlCOua5nRo4Sd94OauO8JSP9sPPybaKx8sUSD+UVc4n9C21a8++xHqk+wo8fdEtvsTKgA7N500eQwE/GPDxvJL9qGmt7BRz0rKVdr5Ie09WZAXi425DmETXBbcshdJFGqcB6cAtB/ZI26qtK0zqWRK7Yx5kKWW2c2i/MkQlW+XdD/RjyC/yidzw/MI+/yQsY1mgcnvX+ottddd86/DM5T0TyCHlrRNA+evAzjEMeTvkuFOBnrnsBLvunAt8cOXfPJBjb5deL5C3B6TT48tR4oM+SLuE9zI4Tscu1L3vJba+IYSfKb1JPjn5VqhMTkGWUw89WxIUdbGsf57v8JK2J4+TYkieM/vOC/mnLlji25GKVnh+pumQdQ+LMN1cdnlaiB+cozPZaYlrt4xEeF2IOEbArJCTdRquWgP7kG/e8YqxFWFOjSLHWnR1JGFtNw1GhonAcYo5OqeCnXvaeVbOdkqhleVn3pdx8FIoe1OrKSVKQe4IJyFHLjplScqi/DI7c8W5lq2jEiHONFK5IBzFC7LO9lr4zUuptVpN5GbYduzcrrgT+yD4P4XkFD/48Ew7pyFEuy4KVrJz15xv56w6V7FVfFnSwM+jhzJhxjnEtcBShzovvzLrNmYvHthkm4ee91n1Zr0lRaN7UhTprDpwAs4RcyVybf8J9s5116sTnqc4iMCxp3KbT8YfHN+DSLqAn+mOO7oZ8kv2eU/A9/OVGcQDd8Et4QVl7OQ8TFmoXDkqLN1wroqgDNFrMkOchHCOJW6EwH6owe4Om7Zs8g95MSDxj2iRAV6XIes6qKMnf/wjWsqmvlyXXbj2HJsvqt6hOkzmtAvsv87e6yHzGECyNzsSnkwk+aW6yQupS0vz7dzV63Q/L9IQPkxFHlOEaecD6LTYSUQObV91xF7ZtdVfbvV24naCRWqTE3Bmrfx6JvA4lBV1gbth6QwFTDGHTjriYIQcE9KsVhZBnF87MGA7JJVMI6yvVRk5udA9ypAnKykRxA/qQFka5erzLrGFOZaZaYimhoT+QIuptUvbJO08aa+hlTLQk/8qVwZ9DKe6Nai67Iz11l/stA5e1ufNRwlVlrDTSOdkBjHKNVUvVCfYpnDD1s1hKYz8Y1CQWD3mgdYdr1dt/+S4Ezn/loB+KSkPbS2jsgx5Qj5i1KGmtH7JCXbmwhUaYMm+8s0nTdx+Yk/iepHy1xG1QZ5DzllTfd6qk+zk/sUqQ+pF0Me4D33H2wMPWfXWX4bWldeTRFguQu74UhgJtskzWZ01ZF0IbvECzVKQfmGzBA+DiQYdZ3rJOXm2sLfXOvNFt8uUHd9UQDcFCWR9Tf9Cd8BgFndel1VWOnhY6bJAjr78RW44B5QhkurDiJBnEccKnGikTatltXbFtg9stbp+NPZmo2UNHqPROF0JheL3x+xqFGw71lecZ+tPOl+Nls+iqNFqAMDSAdZK53XMQ5JEgGVbP9qS/ouAMvsOp8B+l/XaGSvPVqfV4S8FhXn4NF7hjIYJz2ef62KpoM6pYtv2ieCosyJ+0z0awiFxr0M+m1dossdynHrberN9ds2511t3U6q6rpS7VkAlhO6UdKaj/4I6TiLKxxz4iFIlNyFlAslTfOjQyQeFEfIHQQHSMcttq2TXnn21Lckt9CcQvnYVG55/SnwSx5Az00hn3MMQhPQTAPEL535NXFFYyXmQYINz8p1Z9SkX+OfWpkzcPvCOaibexg7naDgkpocFOVVt1Wz7/h3qSFWfGnKlNE3lkPKS8vVOmls8ylYP0Suyvm7lydadLTsra2uAyE4PzLM2k5x24MaLQ2TKB7NQLgYDBevKlO3MNadZSR1TW2XsS5Zklf8+iJqBkO0ajKpebnhlkz8xCRFyY7kJbjHzjkh4Xckc4icdpg8g6bSpm693cVxjZn5MNVmhplLe8PLzvkuP59uMfKU1hyJJ3YYrvri8WoRvVf/S8OVVb9wqAwkEsSCVk5OEl5d1S5Ley6PHNOCHACJl1SW2ejx9+RrpJJW37jGIJCTaLWG7jqGKsHwgiQVLq7bt22OTbFkIkSHe3wsDm8MgjcjhQAp5crF7eNDGqxUKzWUq5coHd0sjwzC5QSvma9IXrj7FepXnzJozk8sLp2Qv7xZQVhBG1sO3c2zzKucu0qjyh91jejVye9cFl2qQJR91LzxtoYymgnrr4elsW2ehYCt6++yk+QvtpP75Licnx1MXLrZTFiyylT19/tJnwnWFgzVFOJ824aycz9uavvl2xpLl8mOxre2bJz8XKBzJvAV2oqS/xPMHoqK840RCnZxf7rJz1qz18E+ap3jNV3xwJ1krd2tltryvH1dJrxWgrPZ4rlJ8T1K8T16Qpgk38xXmPFu7YIHN7+wMgwV3NB3v4xlJbkQcE5CCYqSLQJ9Hbdj2TG6TcqobTxTbRRV3LrykyKw2iogPCFlRdFp2CiIo564+15Y2l6ubKalxqpGxg4KG0q1icsyhBKeans4hOKLE9Fjq3cKj24ytXLoykAyIFEpS7Y3lM6Aooutrh3npq1izifaEm29rvCxyX/GZfJYseBOVQ8VQB9wGgoPqKOg+X1XNiVixp/vy4gq76eIPWX97nrQJ9hpO7OqKg7pQ32aPmdfJnIYF7Igjpd3RLIiAKy0icQ2ljQ8dZZzoybmT45xzJ54n9LV77MYz3mnnLbtM4XZ4J12Qn8Qjm+MJAspRKfdORpe0rEQw44kEa47570qPF3B1heUwK0vqCJMui0f2dOC80NpS/matsxreHQie4g46SUQJ10NOhLs6KoyZQhyYeQlkkAjMDRAb8oMYpUIa/AadqU4YCI6rNg/U9vnsTD5XtIYyLHy8iiQVvKxZp04eMtAsZzps1aIV1tvRJ/8YoHEvJF/UXbWbck3yhjIiS3UkbPLR44GZznp7+62r3KNy4mmQRBH2GTcF7k9F5H9D9cyXwwvNds121QZspJVsk4rgp5M1HVXHCAPQbLBDfcpr9BoWXShtDAQVKQYILL/ClG8f8AGwtwVeUEeRtwG0US88FaQXibf9uo1o8D9QH1PdaXvbb1I+ylNeEPd8lTufMZd12hrPJLvVltctW2Nq3T5o9woiYQ7EyZvqF+8uaBiHa/955YFU8IE21ueyRE9CnVuQ6bUrVp/jA76C2GKZuiNiSV0JYcsWEx/ygxeieerTVIT218ZsX2XU6k7S09r4wwtiT/1O9ZPXffIzad9p9RlRO39mx6vKb7bZbduEmm1D2Yp+5AutQf+3bVKe+XIJ5Q9PTE5atMROFNlDx/m2qrrHDC/h0iTpSdhIGOEa/egDOBq/dD++sg57uUjxectXWkntM+S57Kuu0L8R+lsLhc8uK6oT81WffvaKa+xXLr3Kfu2yIL/h51fbr1x0hf2rS662/+OK6+203nleHcnX9AdIZsgNTmRBBzYLXts/z/7VZTfYr1x4pf3mxVfZb156tf3qFVfL7Ar71cuvsH9xyZV2rsg4dqnRoYeRc2Vij47vO+1M2bnKfv2KK+1fXHZZkEvlTnH7mUuvtI68dLECh+774j0yX2V3ak+v/R9X3mC/Kre/esnlSsuV9n9dfI39msL/lSuusF+58iq7dOVKb37uiEAjvO1EHCtQpaaB8qEgZrOHR0dsbHzM9aI/LvMfZFsq0js12o5uBg4tsmM2b1m/TeTG5UZkkvWUM0VkYqbweA4OzVrxDG9ZqVfjxce8NGyx1WFr+tdaX2O+5es096OhbYMjQ1Zr1D3+TnoFyNjh4Ape5B8S73QpX7QzTzrTTllxmvW0eqXEGYzgR0gvs1lcB0nPmT3lc/vp4IXc0T30gzpNtlVrKZ3Mai/pXGIXn32RGoyajFsKEtR4cuES8WaDDn1kdMyq1aq12L9cdeT1EBFTveF9BsoEor1oEXuSM6AJK4oZELEUYlbwSsKAqqbOqmULu7t9bWy6Ewz1CUlLfyYgAZVqxRrJC1rpzChVGrusyZyaNToIeHiwb75PvMLHeo5tFaLGPgghZw8GT8IqtaqNT4z7U8MwQD06ustlW7FkmRMT9zgRP1A0WDq4eN4YWFaB9/X126KFC6f0GTicTuNuaoNB2f7BA64HiTu6+3gA6d61Z7dnnfcBGOpiKu8T+FNZDXwZAJTU3s889TRvFtjnmJ7PCvLD7csB5bJi6VJ/YZLzZl2DY+pO0n7fblCH0Bsz5aB69T3WE+zPlEP9PtT/IwG76LVUuJ4NZoaVSsThEXPmWEKiUyArdFL7D+zzEuaFNt/PmXtqez5TkPQYvHwJ6/APCzG73CN3NmC7Wrts96HSPERaO21Pe5ftsm32mm3Vcavtzm63na2tNpTZZ12LOkWgRJYO1zsdAmxMViZ0VAfFVAAKZErlcpypNJhFk01IODONvmCZWe6SvfOi99jC9lIrNjpD2sgNT2/wgx8DFNats549JerhOoQLPWJ3hnqj6evc5+Xm2Xsve58tzC4IHTlZKau+3hy/uWCkE/EDATk8WWVf8rBLgK//hcgcAjqWJrPPqhd8Ur7U32GD7RHb2xy0A639tre9z/a199u+xoGjymB7SDJs+5pDNm6T1tnDfCsEgth4k/FyP1zVJh61el2EXYMLql2CtEbnRTB4gep1bnV9KDFxsoCJ/GR2N+w1HXE4zMhqm6hOWqVeC3mJPpkFeju7rV/izZt8x1niFH+8LGfnlduj7Piy5pJ5C6zgg8ipW36elnVqnoJB3p69e5Mdj44fTFYmPc30Xbx7RDtJMTOfKBtfsqic7C6WbX5Xrz/twkbaxmYL3uWil8BPXqxc0r/ArFpXf6Cyk57hXSTI5/fi51uNlGy/VSA3DpVDQ3+j2KRxfavjfCyAehpxrMAVVmgQkN59Ttal4iC2ySwfVMNn1rnArgitk1aRh0pj0u54+Dv2+W/8pf3JNz9tf/yt/3VE+fQt/9M+/a3/ofP/Yf/r2//d/ue3/9CPf/HdP7HPfOtP7Oltj1u9VDM+6zwbVBuQG8jIlFqe/o8RJ0n79nTo54RdR5YosEf28vJKe9d577POthS4SLjb9fQCKQjlUSqBYEvBe6dIvgR/M3Ss6plZClSqlezS0y6zU+afatmmOhBeNFReshwhhIzT2Ix+kKAuD48O+6fZGXiFasAvqQ5ebmbFfCEsX1B5TzYn7M7H77XPfeuL9ue3/o396W1/bX9y21/Zn97+V/Yn3/nsUeWPZe/Tt/2N/fltX7LP3/Z39vy2zf60aiYOisMMeG2SYb3BkiZhqlMKtv1lLMg6V4ll7DuCAz8FwYWIon51DXyrLZ4UvA1II3IkmSOAVA+Pjmpwp/b5PRCC+b19xps6vkwiMQNeRInMHHwdDTxh4Te/q8cJDe5xzvxC6k9a7tSDqcGbGOTQ2EiobyKKU3XjGMf45KQvgaH/CgTwkISneaX7FCtzNN25os0rJ0sEpcedeIfT2YF896PIvzztl1/zu7p9yRpxwELoH+YGGADOlH8KDvXrjWRWwN4Mma27Q8OarbvjEZFlHINAxdC5j0jh+9ZgUvjpS6TeINQr+DIYJ8ZUAqkl3WOmeNfwa7Zl6BXbPv6ybTuaTKTHV1y2urxsLw++YNuGt9hwddBnQ/F7Nqi1qlZrirDrpxgGQx2mXacNOahxrqbtsQa0YJ3Wa+edeJGdMP9EJ9uMVVj1HBwonbpW95f4YNbM1pVultMQZkq/ZaOetUK1ZCd0r7ZLTr3Uulrd1pXp9hdac/l0HWMSduJXxA8GLGtgiRQfEGJNZvrhqhRpKTQbEFmVrW6ylnxg/IBtHdttL43vtBcndtjmye32smTL+NajyoujW+yFiZ22eeI12zq620aq4xp00m4UQhL4FLk6BGHHiax/+dSfYKFlE7s45TE+ZF2VLWkbtEu/LaSezzwoXKWnBllv1mKHNgPkxHRuhDPa8PAYZD15tf1I+eUZHO73d/c6WWeNM+XnmOGU06AxZwn5jS8LOnt85jf1yh8EChxSAegqwBOUiVrVNDQNHryNmK3u/v6QpjxoUpYuTdarlpF+9ZdxpwizMCMavJxNvMjThd19Vs6ESRkAsfZ2OctoY82t6h+z6OVs3pbOW+BlhJ4hYv6thDkC0n2ofL84nF+Hk9ngrXZ3POJtVgURbypQLIni43P+49UJX38NBc3zApRupOsf02UkbihNRX/mXw7NN6xRqlkjU9H9I0uTLQ8zrDGXO3kQJBBfXh1iFrrQKmpMMJtq1rZ6u+7LHYgvcfKozYBfEn1Pghq2/8IcDF+yZE6ML1P25Pvtgzd8yBb3LLWizCHrPF6dMe/iQh6wjWQz25gi7OE2L+mWbH5xoX3w6h+1xSW+gdchZa6w0uemB+GQiEa8qfCB5/iIb/fJEhj/8BHEnUrrUP1VsUxdcqKypEzrqs+1fF3Husq6rvpa032R+qMJW4Nma1ZX/eAlXxgAL7rpppc2NZTzw4F6xbsX1RpfMZ0Btx5qbLlU1jH5qU2GuHvFdoSQBNIlX9zPVs0m6mp7Iispjnfi7qWhPEjzgf+09dFJBle6ZqaWZVNHAG4hCV0dHf4SohNE/HNdiY/B7+8JSVGimzpzbBsa6o2KMZlAkMgOM+wcse6iGyxbZEeUuo7Ye7vwOuL0Jkcm9S4cWepW8fLiaQhhQ9a9HPxu+k/weJGzZp35gpW88SfmHCWp1dnA7bqXGen5jC3o6Uv6DW95cR11xJxArIXHIIKSgaDyIWv91AOkyovlH6zPBmHNN7POKMWgr7DHl0SZew7V4wiCknQXKEl1cX6dmiWCuZsdGdhm14/J+qTOuVI84CSpV/wjHfRmDvzlgTVxIfxgmliz/sJ8u+D0C8MXH7mH8vVoBD/IE+/MlfYwq845wppJZnRydvbJ59jKnlVS4Owd8nqQLvdyKk4RPwiQuywBmfk0g3z3vHeEq7CtYigT+HXYZSfsGFFstqyj0dSxbdVc/qjCLiHlRst3hijqnE+Qs7UfdTwlWCFmhwcE0LeS5Bei50KNZVa9q1w2/+iH4jY9o5TUpwS4gyjgF4PvyUbVRipjyd0I4O1WkmRvgAhftV73I0tRaM+zQYFyT8rEZ1W99AJS/6fCOAqm4qWy68wV/KXF1LGTdZ27ncQMFZKqEQakrLevNsJgT14c8yCJPtnj52+cYM8ntQnaID1Ab4kP96nMkvwE5OnsSjxB6lb/mKNf2McOUom5P+7QScQ0yJLZSMSbCq+TEccapPSY7U4fwyeACoSPBIX1shD1MKOc2JGWC+u5pQxVM9ib9kjCfsMN/6JpXU4hvRAT+Zmr+x7m/sXT/KTuz+4xIgOLujqooGoVp6SXUlBT6tIVuS6Ip3/kydMzXY1Rrizn6c702hmrz7Sejh7vhJObcgiBUpo93S2RsuQl02SwAdlr55VP+aydftrpVuQLhDLzD2UQTBKUb+Mn8aEI8ZRfET8YUOaNZtjSknMnt1QCIa0XKbyuqBzDEDEpTxlSk7hH3+tPSI4iPGL35QoSDincr0SCXxgm9xACEYgpLwrOuO0gZvxKxZK/DOvEQwMCn01M7EyDx/1yLYFDUrcPjAwl995apOmYKdT4mYLZWw0P83UZl/GdRZgp9bjOku36FxQTz2a6oJypCwjnswVW8a2YkY7xwVgARZrWk5neuZH+URd4kZg196HGH7tIaz2DI56I+EBYCU6q/UFI8yzkUTh2FIsaAAd4HeQeRzeZBWQfd95SpcMp3+6OTr/ls/yS76nQIyJ+QJhmORE//EDf6Id6Z5aCmXU0HiTHb6JzpM0gM1ykM8wIcKJCd4UduWH7xiMJ+zY6MYIwT+2qooGA/AGQYdYOh4CPDuKZdk7EgLW9b4yQjpCWgJCe8IEmjVNsz/YBGx8Zt0ajEbbRC7Y83v70QPb5Mmve950P8XY/5AOfg7//wfutWq34tVzIDZJ44XlE+MSEGL9ddOU4gPKc9ccBnvlull5OHbw+wGopkTDTXs9lrIJoAIZUWQ2WYXB5ZKlrwFeR3UpBInfsg83XS/nICmEFAudDAY8KUZqJMLMeyPqhwGz+vHn+gS4mcFvMrodbDqo0Ei6CD1xDZvYMDPj1WwliQKs89JfembKh+B0qbwcIFf1HnqXrm2cLuXL7DKIOjf3Manc0TLuVHlP5Mlsfro7uBzqQ3bt8+Y7SAV881hGWUCbaX+n1I/UnZNtBcFvkCVbZEx1r7iaR5Hz2QOd7iE6IvN7ihwTziIi5gCOxoYgfNvhbMYGwoHpYi82acpa9QEZRSr4veaLdIKmFRtHv+4x0nuUfWeus9zjxdjJ6hB+zy5BzhL3I/eumEF8J5N3ve8QSzXcEIc6lVjHpyUSiRWKcAOk6XbLC1HaWb4TrHgMBZuxxDtmB5tet5us98/LnQGaP3bPpDuPrpIqVextm0/GUAYnyQ2GGT0unqpowlQ792u26vbJ/sz245wEb0Y8Z/EDNhJSXK3A+p+IfTHHDiB8M2paHvOisJRLV9Ok36jiPw6mHXhihDmtYxYdxsi6UJ3ULhq5ykhtKKa2/R/ox15bRgC2nQR7fE9B/1UFqc5h5x98QKgO8ECa1AXd8Jr1YY7BJjakRS6+nPI0irkXFZXnfYitnS6qveBLIeqiDOpP/gA8kQRxY7kX9YxvUV/Zv9V1x6gqnzvshuAl/vqO810L+zbI64j4Qa50n/iDBi7b8bNpIa9we2b3xIHl097MzZJPLQ3ueVnt52h4Z4Pp5298cc/8BMXXi4wl+8xA0HW04HCkrPofuM9k69yckPLnAMpmcHFxk6OpAdolbXf8ZEro/+vGh3NC2Q43Asn+VdpbAJuUOCfVpEPmH3/4FVBUxNcgHfB45IMvUa9KQVR1SuaOFZS2JYxITjCT4R1PQn9vh2vVmuHQ7Dq9DCk3XLTUKjtw/GsiTMDmR2Na5f/q+meRBGvc38MzDSeRQYBRE+YLID66ZyWZgnj7ZSp0SDnbIN//WQVIWk82af0WB/iH4pzxVzKXB3d1RIWvYbMglupxwwqBBV0ofT0+bimHEDISMPrpEvKmItfBYgrSZP8iFTDAzJG1HJ5aVxvV16mpAbDkI0eUcs3RWmRkoSAAvUnbX+623Oe+o0tPqt56M7GZ6g1iffjKTeV9zvvU1Flh/Q0fsYX4kaff5x4yS3oHend4ixNm7DdSw0oBmRfTPf5AkjNGyONVxojJuX3vgH2z7xKtWz1R9jXBOnUAg5TgNeYSDsLwlyRNMMBfrgegNt/bbd1+8w7aMbLU6a2DlGFfthuy6R4QbTsMgIOIHBZYysQ69SYbz1rTXh0A80mVI7NKTpZwbDcvW29bd7lDd67L+Vrf1NyWtTknZemV2VGl3qS532nwd58t9r3VbN+ZN+SHplT9d7U7VWZkrnO7kujPTYeV6UWbd4lcM8FQ3FD8naZ4SxtRZW9CpNlLqETFQ28wzsKXyBiTUUGbUSXxQupyCNG1/fch2j+z1l7GdR5J2/iSpbT+ZNXDhrhzuXWLEAQL7/O5X7YsP3TxDvmFfePDmRDgP8uVHbrEvyuyL937dvnLft22wNk3Wg5d4Gq7fLIRWHDSEh6K085JoqRA+xJYSwSRL/eAis8RIJ4EIs07c/cE+kHl66idywBO22SB1R5qrLQ2tREAJj2JuoHN0Thz4eioDjmAXM+LLjjRZEXZi7678nrvhKh1AyDDU/2BOXnhaE3MXXQLuc+7j3OQ8vfc6HOGmh6N7xOxISL2YkkOtJzcwdj+VJlehEtKH/xD21FmaNuJPnpEbPLWdbPAUDGe4CX7hR2h5s0BijaE2T1R4ADtZq6iaykR1lTi0VR74HxHxdkL18U3WnhEOH/w7OWzaq2Mv2x/c8rs2mB33l9ZQOHwWGfIJOcwm43pmcXCXl1lXo2zvOesD9o6zf8TK2a5ZqopQlMwuD7X32+fv/ow9tvdBN8s3i9bMsU2hwpI1yCUz4syCo0gbmYZ1lbvtA5f9iC1prlB4+BX8eyMwEGA3FfyjgwmzmPJM4oOGxJdWjrQd2S/QbjRtzaK11p9dYB0iRt4hiJcxg4JPTqTxn7/EOyfazPaIsdMFVjKTtnHHM/ZX937GxjLD4aNM+eAHTt0x/nDEz6kuED85sq1e3poqp/DV16xdvPJK+8Tln1Kc+Ix92dT3WpZdYbCuiBAu6WMe7Ggg2tjPKl415fn/vOtP7el9T/jOI5lWwTqaNZsQ6cTf0PGGOJTqJavnKvb+dTfZe858n3XpB0Fl35qjIaUyNeXTzc/ebLe++C2r2qSnF3M+cW7tvL98Sb30DlFGlCmp+t0P/Adb0TFfIekGT2gUMUgLT0/IAmfR+KR7VaXji49+0e579SGr5JjzmkbI/5lQytolW9ros1++6edtZXllyEMiRUPwAVbbRm3c/vGhr9o92++zSrZpxUyn6niyDAtfFI9mjq/qUlmUbyq7ReV59v4r32OFdtnTwGCMOTI6+jYz7UdB25dBhDocIi5RnDLsQqO0B1F+ZfxD2h7PILRhES3FafWCFbYg32clXTNLV1N6mPHj679DStWXHv6WPfTaJqsp7gUGgF69Sfw0uJrKNvnd0S7aTSffYFeddaF1NQvyV+Gr7jMWdytI6mjK4RtDNZfiJMGeTA+d9qTBe12VYLA5aV++7xv25MiL3EnyAhx6pFpQBqb0Fm1Brs9+6YM/ZQsyoR0zs05++esrHl/qTNMe3Pmcff6Rb1tNw4IwOFHwKkYfs+NCxzBbTF3J27Jin/3MDR+y1cUFuicto3wlz9Ik4z8TEje//Jjd8twjNtmqGrS97omcAV1Oxzzg/adeZu85/XIrqx7RNpjFBczw+iBDflQV56IPB44MX4bDidL05J6X7a8fus1GeLeHMpZxQ/WrqESSZuoMuUNwflTYp3QssJ+94YO2MNspMyJLHnoV8bB5qvLgq8/aXz53nzxrSWcFj73H0Sl1oKF8zMsRy3Aog45M3j56wdV26YpTlYLwpOqw6fCIcyBvca+Skp/Ei2a5qzZq/+Oer9tgZUxxD0RW0RMO65vn1mWrTraPnn2FdfKireB1VHnE0jJ/8qT69p1Xn7N/3PSYL13zh8SEq3OsBn1kVs1LP9eb1lAT7tJg+OLFa+zHzr/KtwCgHkCwmWgJcTl8fA6C/GRLVr6J3KHyoBn+w4tP2l2vbLK6EsXAWuN+Bc57TZSVhsxEXvfyqqi0k2X5ov3Cde+Wjiy7lxERPwjQ9iOOEdCfoGBRUQUp5nmd83zWPACNwyEov0AspHySpSEd+Q4r1ot22qLT7eyl6+3cpRfZeUsvPqKcv+QSu2DhJXbeokts/eIL7Zwl59s5S8+39csusHMk65fhh+wsvswuWnRkuVCyftmFNj+/SB1PEe4YCIgSw7wiHQUEqe1Le0TUSAQ6E3MpzpR47hzbbv/4+N/ZZI6t25Q2aX120qB3CJ06jqSRdUzVeSqAY3gxt2W5Qt7J/nM7N9ldz92psEU+mSFTB0LnpSDpHeV1ILURPxhANHrKPeoY1bHDCihomXn+z0BOHap3qnkRnErO1i083c5beJatX3SmrV94pp2/8Ay7cME6O2/xWUeV82X/AsmFkosXrrNLFpxhly6SLNb1kjPtoiXr7IKl60QWzrJLFp9tly06R3KuXbJwvery2Xae7i/J9xvfPQ1kjzEjwyYAcSrYqoXLvN42xS5YXgAHeB1kNmWsBg5Je1wEf6LNYEu+kQmygFvIDEd/cdzr+CzhAfg/987JjpPNpg2M77ctQ7s1CGsF0cCiKuZUm5JmIi0RqLCun+Ujp64+0bqVxrSIpuL2A2gm7reHBEtVGJL+3n7/8iS5wNKP2cD3ZvdBoDyE9Mnx99tBUk9JKoOJA5Nj/v018pblGkiBtfTKYeLq9VhCXBWyh9nXrfpO/BUX7mPljeLCPYA99y+5TpHmfWpvtnA3iWchj0MYk826P4UNef5Pg+tjgV17eBqCn/6CrQJm4BH6tBAuR8rE4yFh8DIyrgFDQ4PE1Px7jhIDmTCgcE9VTrv27fUla7RLSDlpj4h4u/H96qKIOYh2k3myoLVykPXu+SLrYfZz5uwTBAHNBCHlUSJrfRsN1ucWLFcpWGejx4pt9hwuHVGwU250W2ez2zraXVa0sghJScK8DQ9y9cvwSFe/duGIUpB0NhWudcoVDzFDvBx+CHGmg/Mzaq5OSIvPACstI60h+86T37adta1W9b3gWTjQtEJZ5D/pdUL6Q8UP+YBMg3BZSkG8Ie1ww1H5e/9zd/vHcmo5XkAMrrAbNDmzLAf7E/HmgXcO+rv6vJzzqte+jtuzWyWQsgndq7ZqNqmB3ISIYz2bs8mJuuplhwgzm292WKndKeJc1hUmR5aS6mNJTakgyTFIkISgqIFZEa6calZYvsJyMv+6bT1nHY2c9YiZlUW+iyLT2UZFvX5V8ZMruccLZlKZnT1h/jLZ0QADQnBIPZwGjrymOajP28Zesw3bn7O6SLLf14G4ud9iLWFIkLo4Ggg3DRs3Em8g5GHDXhrYZuNW87X709JQeqUvRDinRQMEHZmFzGrAtHb5aqUxdC/4ipeEQozfdNAgJYTDbDvnPeUu6ZWQq+TIbABZn0y2SwSeM+6pXyZI8+oowI3qAMuIdo8NKV/Qy5Bz6myoVzPVm0viNWvs53f3ep0IcZkO0+MUTh0evwQepG4m2eEGaRg4mmF11nD/0wB1zqzyaKNqNZYFvklIH+53FktWol2pLlFPeBfJf0nciQbp8e1MdU6ejlYmrcIOYiF73RwJ/2YD+a867fkkGak1be/IsMJXaEHJHJTfERFvFyJZP4bga+7aDfUR0Ii8LZu33DK1wGqZDaYfQ/Olysdn1/VDOYJ6rW6VCZGLhl9KdwVq/EbCX4qwnIdHq8ljUa9aoeNE9TLLfSRhdxaULY+xmZNCSRO3g3UuhAmfIUt1X7rjFiQVm7RNe56xp3Y+YZXMuJIAqW65vm00WG8usqSLfC7nnShhBUmIEmZ4pbzgBScfyCgf0eJNEf/hxj775kO32JCNWJVZTd0nhv6VQRz+QFhIBKCE+rv71ZmXVRyqeyKK3jvPqB0UQY7BWauquqQ2ICI7PDYoGyqYKWuqjwnpPpqw60tFddLXF+dEukRemTX2XWFEKHi7A6mLOGDXKxqRkECYMONoeYWZmBMP/TkYeLBufUFHn9qoaruI7sz0TCH1OwGDE1Ele+C5J2xPY8Ta+UDnyA6fDdSp24YczgJe9xP/Qxyo93Vr5ps22BizjVtesEq7KnthBpI25LPGcuJminIqxD6fy1tnrmRL+haEJSnuMf+xQIvRMQQXsiS9930DX6Z1Gj5x1dvRqQEag7tZr162A2PDNlQdV/uGiCovUk89iBAOumd2CGmdVN3ZOTigckljEdLLTHBKREEaFMg32rZ8wSLFPYTFC4+HAvvpbllTu92kR8HrsY7kb04DV0JleSQf65q57zz3U7L8euCD2pv89TD0V5Mfrw3uc6I8Fe4/Ef5kVL9eDbBYMsZSFgZ+7DefpjEdhBAimjosezRp/ZYN1qshDbIQdkFTmlh8Pkt47ZH+R6vsGR+xCoME/FegOp2ZrRERbxtmq3kifgjAS6Wu+KRcIOsLexZbd7HHFdz/196bP9l1XHl+5+21F1DY94UACRIEKYK7uDXVWqh91NaMYmTHjMMOT4TDv/kvcMT4t/FMhHtmPG67HXZouie6J3raLdnTHjUlaqNEUdxEcAEBEPtW2AoF1Pq2Kn8/J++tegBBAC0VWk+K863K9+67N5eTJzNPfjNv3rzMMact4vTnBtGP3PphD7n9W6jM28WJi74rjMd3CwfmyjKs1CL1DsRbmuetpRUrtUXc2zK2SgdigpebuVwW/8o6D9aiO/LE3GdaT+okDHImQt0QfTk1cdy+/bO/tKnSRPIqJRCajiZFJ6KujnuuqUGBjLDv0U58GHb0gj91EKkD0jn/Qw/qWMsayIiwHxk7aj89+DNfO87eM+SZ+F1biJaJG1haUFIjgyMqM+pRwarVaiofFRUqT9WjYNzK7lUHD5Vuz83Y2UundCSiKQ++FIWCyjr/W4H6WCyw2rmsYApDODlip+5UJQvEwiWiziAE8sh5fZDfOfltz/FMiCoQkqq+LKZeFKEcsofu2m0Dai9EQdjrkUXrLgdt+czkRfvpgTftsk2laVp58EGC0nHZO1K6KbI6m/RJWMUu5n1Fenvtw3dtVOmkB9VT/Enn+Er1Pj/v13SxooN1QyM2VOlzOYhfn/7NQWqVdwbIhXzUkcFKjy2r9csOqexpwLeBieaMfTh6XG0d4iZNQpJd+Byeo2tP3QSsGT8he3p+4rIvxctz7jpQGiBTi/9MxwUbKFVt9dBy1TxykojpjVApZ3eZMhumj+xKijMHBJYKRhnxQGaCLOitCG0WCb6Qjd/cdzhy/owvx1ocgCwNfIAlxlzKsoF9ZnkYSPVOIviHfrSx1UUNrmbsiAZDM9RdnfbJF52nL7wdUO/JF7vQzKi8jjEQyePJskfagcBvGrdp0QO/XcDEl2yod9gdRg1S6+RTlseJuohGTtqpBczQ1Yt1+/DsAZsqX5VP+cVodjqMV6fTR9tnsJPRx5CKP6sTICXobN0airMxP+uvSr+5q9v0/ITxoCXxlp1MswMGs9d0dIocWdXjQKoZAGDMW4WGP0z7o/desrG5CyIaTX+RkecLPSCTy6ZwdNz6q7Cu2ZcuyCAz66ROrqyOLxF196yPRF7cqbNjSc30/KT9/MDP7MzsKZ/Jdz88keTIEgosOajNAyJe/erMmdVttyBS1Ij056B68KAdxSASwhDu+PmjVi/M+Gy7b+9Ix58X1y3AzGeVwabXNxEvdvRwCqf6zkCNwS13YfTXZF921UPqblP1r6lz+T0h6qmvXlYb406WVxHqok6wXOwT2+61FaVeK3LH5zYrEDsbNZXRXxzaZ/vOHLLxwrR+txSj2o0+oeq3OyhxvUk3TrykWySYVQ7ONq7YzxX/rPLFHSa2reRugTtFvXCsAMklu1LTxQe33S3CWfP4PE+0RQ4FcrmU8GbuWDjwcua9luuXr1R9kK5VX24HdbXxA6eP2aTsFgOWxbgXkTR0a0CMJ1Tv3jp5yGZVT9IdhVT+kEB0lsfPb0xOfm241ueO+5Sc80FDdt2D+HHBenp6/Ngds+VMOuCH63LERXvxmXnVGdbuX56UbactCPlr9Bfs3vXAnxzW1+8j6udEY9ZOjWFnpdePCfarYqBSs80jq30gzACkwORJEjVlUemRJO/M8HYluZuVgr16+H2b4jkNXUsP2lJ2tycc9oN4Iej0evvPnOwg67RT0s2ECAR+g7hNix74rYBsCrNuTmBkuSpWtVXL16Q+06EDXcLQuzGSlUqkVp11oaWOedreO/WuHZ844iTYmXenc3O46OhEnBooDo9HcZN2uyICXbxk71x609649HN7Z+wte//COzd1++VOXDkiijWTZridWGMsIRKi7BhM/TtUa0tzIuTtss2VWvbakZ/ZG8deVcgpiaUQDQw9Bt9zqm+RLneSkT2XmyI1hbKtXbXG5nwnhbIvAZLX1DE6UmJpTbQ6Op2ek05GJ07ai69/z67OTbqXKvRI3618Oiiw5KCOUV5Dg8PWas5ZCWJLtaVs+M5QKDK3zky22cx83Q5dPG5npy+IpPDsgeoEL5mpyHnYW7ismrMsql5QXOeP2Hvn9tu+8+/Z26qrb1/Yl7n3M/eerr0rP3Kn37Ujox+qqjU9KgAhIEonZvrzXWNUF1dUB23ninW+fSNy3xZESFgzPNGesRff/IntO3tIdZ/3KbQs3RTDrN9mZKrYvq+0B4GQzdlkY8a+/fKLdr55VQPtpjQqePvucB4/gXKHHTBbO7TCdm3Y5m3XH5zVlU7kD9suFVJUyOQHgo6lA5bA7Np6l3/7Fh+3gVnllSUrx86ezJYUQVGvF/b6HN0YWOEpxffu2eM221bZlNPSPkgopsIfUM/8Uo1dg/om9g2yS70lnvuheOT5ehEEqdYGBgasTJ3GwMvx5wQ9iyeXlODIw3rz0UsXnOT6spFbIC9mtOdxqG6cHD1jk6267G4isguJLAF6ZIfv377TKkqYfebpctALCS1UO6C0IeXcGZjWIPr09LgdOndKeZSfbMZ9we8tgF/6loYSeffYYTs+flGDE3SYdEkuuX5rbQUCdxbeFgK/I3Djwvwa83YFq5aqtmndRl/+4uuvOe8zD/jCGPGZZl4g661y08Yal+yVd39mdZtVh6VzN3EQWR5KZbmLW3ShVarbFbtorxz7of1v3/9X9q+//8/tD7//z+xfvvQ/Ze6f2R9mjuP8/L966V/Yz975kc3OTUtGLLMiy+/Yeo4WwZpkWVclZnZuYtR+cejndrUwrp889OZz554vh/JKJ4hmIOYsgamVa7Z6ZJV95vnP2soVK52ILyK38gRKF7i9X2TtqzqGuVLD3j/9vu0/ecB4BT4yzDeYb71Rx357uL5fuVE/k2JOVxZS+dWS6yrcKK8fgfTPA9Mb122yioi631npCJirYVYEpE7nWylbvVKwi+1pe/mdX4jINlRM2Qya/NESbuXYvaNVbNlkedbeOPWO/duf/Af7ox/9O/tffvIn9i9f/rf2hz/9lv3PP/u/7F/r97/58Z/a//rjP7E/kvvjH/6J/emP/ty+98uX7HJ73Jo8kMwyEuKUy8Vuq01yV6e/ULW9d+/xi9fWH2hCctdrifEkJI219Ofr4/Y3r//Y9h15z4osa2jR1lMebgsQPdkE0oHQ1et1+/7LP7ITYywtgMSr/UjfrLRJLi11SU6/2/rG6TcD152bttpwpU+2hUF2B5SM564zi0uJa1TEMreCrVUbXzOycmHtt6d9k/QLlZJNtRr287fesMnZ6UWZc/wtZG/INryieC7MXPXbCZQtJBlN46iLxJ99LRB1COJ9O++2Gu8V0BnqOd8fRZpZ5xkB4l1wWTxu8+SclOt8S5WG+z0XLo/Z2DjPciT4XZUbLYdRJO6HOPRF/Z2YmbZ3P9iv1qQBM4NLri8hGJysW7FK9ln2WwmSd8+LHGktpEc+9eV3DdQOZtXW3zrwvtUbvICM/k0Xb1M4BkN4ZYC678MDGmClGXrKwQeWgpdVIPAbRpD1OwT1FQuGk2MUjQHg9qefl8tswdKAyGRz6QrodEVLrafVZ/evetCGy8O+7hoK227PWqMyreuJ0qdgfOpaq2Vtke13zr5uR0cP+/IUZuqT+UoGku6GBShMxfnkDBlLF5Q3SGvLppqT9vq+13QkRq0enTep+oy/DGGzWLepnnGb7L1sM8VJGcumd6w8sLlheJ3VRGCYwWY9wzxbSCutoiQnoTYEqsTCGM+MXS1ete+89m07PnPM6rW6b/eIfMyo+97FUjJ0h3wSGZ0BFrhU6LPP7v6aPVp4zr667Rs22FjuhBw9MCNfaVVUVu7bywx4VqXEeQ1orlbO2bff/HM70jxi7VrbCpK5t1mRXGnJDosjyC+kCQe58k6TmVY5f0HVHA8ozvsuMrz5Nd0FUPhCTWmWdS4twUB+usq2Bgm9Ks+p6To36a3NQKslUupX01pSDa9YeKQQuLp+zep7xtMlfTpzOrqUm+6AVx1Uo+8Fl9UnwDVmIvsL/bZ3+yNW09/8fEMDRAaKVZVXTWVdkh6LIotUG3YrUYkrn+wT/sap9+z102/bVRuXomatMjur6w1VA/mTztA5BcQMOnuos8dLyctJ9Uk6v9S+bC/uf9lGNRicqdRtrsgdGOlfFYP9oClnK6gU1G7qpVmbVH2fKVVs3drt1lfi/Qj44Q5U2h+JDPrsqtIsiUSyT/u2tbvt6WWPWV+9KsLNzCttS9dU39oapPA+hGpLQ1AZj/wZEOo2b+dtlOs22jxnf/HGf7T/cOD7dqIwqoErK87ZuTyR9jn2UmSbFr45kX1xnTrSkvxjGmK/PXHU/vkP/5399NIB5aVhPSoDlhWlvHKXQDoiNzqPHaOQmHXnbbF16WVDYZk9tu5BnaVMKmnITL338lR9VTm5IcqgK6lOuodfHf5is6yt+3InfdPuhoqDtmvVXdbfrrkclVZbecIX20+2vH4AX+qksmlQZ/ordnjyon33nVdtTIO9uupKDs+3vjmTu6RDnHSkMm3OS6Otur1+bL+9cvYDL2dsbVPp88AiZcmdPsqS5HnuAVbaUJ0qtOZs29Aq27J8nddnEsTasnyFdfS0BUXmoOZSp1ZUB1RPsAXSojJN28Eb8yeAwRZJcKeDpV3jqp/f+/BtOycbO6ly8/7IPdJnkJ95m9X5GeXUl8u0CtbPpEhz2v7i4Gv2Tv0iXq3YZNtOHrYm8EfBaUTAcewy6ZM0Ut/Dmesxb73Vsq1Zpv6KpUMKzBaOLGlBHxXZSUoZPTT0kZarKJQi/eDKefvO/jfsPD0Q8nlhqXTk5ilDSLgczw5goZGFCRa2YrikvHz3g3fsUP2K8kR6qiFF9VWqI7yXhDL8mGwGAn9nyJp04I7jRrZpKYE1wXj5H0jkbO3y9bZpeLM6hZqx6wt7hzsBZk34HESAlbNVqxZrVilWZb7mbKJ+1f7sB39i71x4SyTnipu0gqxySWSiVFeYpogHbz6V8x5LnQQvR5oQITpTP2nf/sn/bacnTsnYiTLkhF9Gr8VLmWQIy+2KlUWIAUaRHWyqkm/nlvtkOlmHiVEWyA+GV4cMK3iBiJNnuanSlL165Gf24fmD1pRB9jh5wRNxShY8YdhTp+VHkkNGf77HdqzZYTvX32O9xQG7f9uDtmXlNtELdhpR11hW56bOinTpDnNgwHHZL5tqTNr3fv6ijc+P+ywsCftyG4XKS8AjEZx8Xg+d4yqX3GVR84Xkvl81naFEcDKinpbzM/Up6VQEXHprqVeqKqsa//j66jIP96osC05ieQhTxNZdGnj8tiBThQPdOAERQ1heGradIsHUU2aD8Ql5zAlkrs8c6IyX4rz0+sv27pmDNl6asdke6VJkep6HjVVavMDIHQRZeppTYdKBN6Tz0fol+/YP/9rOigg0/U4SaSVCCNGiLjLIZHkBtXxOMlGH+ku9dt+Oe/xuQKoNSarOfLEHOLd0GEIyUHtiz6PWX+33pTHUIV6pXpOjzvNCn7pYM+vCfcmZx5A+aa9N1YXZcsteOfCW/el3/9J+evANG2uMi4xoANGekVwiLTxpSR50zE5JDQ1G6qpHl2zajkyesb957Uf2Vz/4/+zklXO+lzp1LZeYFHm4l7rI7jg+CHZ9Sz5e4CXlDxZ77bHdD9nIwDLXQQrVWRoJnTpYCngZ6DuX1uPXCR4qRfs7N21TecimsKxCrt2EfGkQkskGWYUUEohybTTqNi09vX78A/vrt1+x87JhlzWYqYvo+XMMLKFT+CrH+ubuQlnh+IPkXpLfV1XXfvDe6zaN7YNJSlmUd24bvNaSLiLIOaHWQa9kfmCzBhfYZxScXXfxcnDOv1Q/VL+G2SFJfgsqB6Wkswmd3/kxoK4eOnvS9h05oJLn+QrVadJSYF4mVhFx7VFVYRDBQ6QMaM7Pz9pL+9+0fWePaVCmMpfgZSmOuym+/DGT6SPIE+8QoFOW64F+ahrU3bNhs98NYfkQ0aN37KOXFXm9QSR1VcN9J4/YKx++Z5fU10zr93yJNu2B3FEv1Wv5H+cZep5rzdj3970hfRyWHrgnS99IjGQq5S+fYQ8EfpMo/Q9CdhxYQtC+MRVYlsvNy/bKwR/LmPOWPjcfbj98Syz/SyTAdy7xcAV1BhXbufoeu2vNLqsURL6I9DbAvun49a5B8dGZz5Xbduj4QSex/GG02LWlpDTw54kqlD9Fr99se8U63aOnj6g3mrfBoUF/aRJLQdyIeQJ0T7LqCl4vzvgylCPjh+x7b33X3j35tjUrzOw2RVhSGN8KUVa3IDJUbYn0y2wyy8H2XBDMPRsftKd3ftrfTokfX3coXdHRoUc3u/zUH+toj00dse+8/hd2oTGqTlj5YfAwJyOsdBg4kEfffkuyMvOHJtSj2bLCCvvio1+yjf2bdK7qnK93oOb6aYnIpLsApEcXSV5TufgxitJX2kmmYtNTs9bX1+9LathdHmPvD+3KJx5J28Omf5cfUPaej0LDfnn0DTs3fc5nLskrV3gDY6oLKSDxkDb3GJozdbv7rrv9VrE4p1JVurz0iWJUp082fW2+AjIjl2bsE9DCgQsH7fClQyq5xZeapP3sqRN5vSSOJCPnP3XPp2yoLFLAb+XPv5Auz2ueMf3m7sq7Z961E+OnpE/mITvgnjtB2ZZtYK7HHt31sA1V2FsavWdRuj6STC6Q17d5O3jysLclr0+eKwZlud4FDvIfiqPeaNrxUwwe560y0Gu9ItPoV7xYl6XnrJ4xkGyprsy263bsyil76Z2X7YPRIyLCLGVh1l1lIK+JMKMHyigNpCBKvC9guDBg967eYY/s/ITv2E5NwbdnB8cBUJr+0hsGoCKRtWrVpkSfLly55A/QlVgT3GowIa36zEwfgSgjnV/IW+aIX9cbqgfT7YYdPX/aDp06aqfHztt4e1LE/apdak3YmI7Pzly2k5Pn7fDYKXv/zGHZpTftx+/8wk6On/MHIkmLh6lTGlndJ7+ULfXL/5UJye11RTJVNeC/a2itPf/AU9kuMPKjj8US8UD5EYEUJYqYt1MTF+3t0x+qZCnHpBzyktJP4fK6iM4HRbwf2n6vLSv16aTOpCDun0PS9aB+LH2JxM6oPI9cPiPCrBKEPHNNjrzRRvj2OxYsr6Jcympn0v/o+CU7f2XMevr7rFpNd+Yg+ekNlsTi0xB+R2tKBP/k9CX76YG37cfvv2VXVD99C0jkcaKe1WwFdVnlIJ7NFm2XVlC0tdUhe2HPEzaitub1E3+KALKK/04CzwflzXKl05LTZ6A9gVujpUHg6XOj+m5bpadmReWNsmSIRjwt6WB2vmUXG1N2QHXpu++8Zr88w8PaSdnp7k6SyfOXvhY+weK5VA82Do/YfWs2qS9LtSJ3pIvYHNMOKaO+gQE7OHrKxpsz3jZoc3igDbg+/DMh/2Y5C+3m3NhFO3913CpD/cqX+hgNgOZYOicdY43YenVK4cdUJw6Mnra/efdN++DiWfVUQLEpU17nddz5yeCedNOkDafQgfIimQcl48PbdshGpgmoQOBOIMj6HQL2hcZN7/x3RdYhG3j0OD1AwW+1D/QO2lEZ20v1S9mss67L0DC7jl+Igy+T0JV8d5RZddwzrWk7JaP54YkPrVFUl1Rr2mxp2qYLk6IVkzJ6kzbeGrMTE0ftlQMv2/d++V07dvmwtSoNny2HSBYbzGjRKSbixhIPZvRdQPV+yLCsNGJfePQrtqG21cqFinSga+oNIDIldLTQC6GfOZuWDH/1i39v+6/s89n6Ykud3RyLINTBKX+klZaxZGQd/YqAlOb77Kmdz9qT25+y/sKgziKC9NM/YBfHLtjZ8bMaeMzKsEPK6D4VEuJMzMgh/dJJ+fILGf/GfMPOXTpr27dus6HqsMgaMgAlmhEewvJJmaZZKHSRCAM7iLx19E07P62OU4OE5Fd51HXfrUb+FUKgXFVG+uPNgVenr9p8lQfYpu2KSNjE3BW70r5ql2fHJVzB+srIIZ153vlKeaCW/XaSdfLd9AfQGBxBRK/UJ9R5Q4bco/wwUOII2RI49j2lpZOmyuOYiMfx0ZPWatatXWVGGkLFghEea55RXb5iZyZG7fUP3rQfiKgfuCiCUtGQU2XD0hckc7KumKmjvGo97emulJR+TfWib7pkn3v492z14CrlTJ03ZZjlm69cVfxi7T3kBIlpp2vXrLTzIhuXpydEjBjI4o96lPLopemRZZGQbPaL4YKqrOqv8lWeE9GZVhmcs0PnT2jwfNDePv6BvXnsffvliQ/s7VMHVEaH7eDFEzYqgjkB3ZSoDIL9JWlECvj2Y8kq+QD5Z9DCee4kzKudrSz22x88/GlbP8De4Go3yChCmNcvn7nthIIvKVmXH/yn0LlffmtwJiUODg/Z/tNHbKbOi9IkGrIprBNiyLp8MwiCavlbYXWeIbtVSnZh7JIdO33Czlw4Jy01/Y7LVdnFSdnHy+1pOz09poHdBdk/kfR3X7cjY6M2IbvATLzLI72lto9ASUJkZTafgQJ3ANjFaFj5+swDj9meFZvS/vTIJpdyncJwvJBHj2vexmen7cDp49aqYuXIya0xozy0NSA5dWHUPjx1wk5cHLXTE2N2euqynbh6yfaPnrC3ZfN/cfA9e13fp2ev2FxvxV+cx2AFuwRxTgNI5Eou/wSL51J7uR2yTpm0m03rlf1iGc4pHvZUeXi+s7LCn5P3TBP85oOJJMqMfF2YvGr7Tx61k5cu2EUR/quKa6w5a2enJ+2o4twnff1k/9v25vHDdro1o/4k1QGZCDXjtDguRatv5TVN+lCOtI2sfUieIOuBv0uormUWJLCkgKaw1o1tDQ9PHbZ/8f/+U7tcnBKpTEs5fHkDBkANvujEiZkqfeoab97rb/Xa5+//sn1mz9+zXnWGyXzcHKzFS2SHbgpCKINCQjIwr579qX3rp39sY8Xz2Bmlm5axOGnHEHrnIpPFK8NFjCrFSurUiMMNVUlGtNd6qwM2INej41ajaROzV21SblrEsVVq+F7t7facVURci011gPMVq5fr1uSaGzcxEOURQkreB2zY19V/4/n/3Fa01yCyk1lmyPHHLLZbR1cA67Kn7ZWjr9ifvf4tu1y7qI6taLVGjw8AILytMuu1IdWEk6OX1HnM8ariBvvvPv/f2+bqNp/N5w2Q6LopwnZi+pj9H3/zR3Zm7qQ1CnWrss6VkuEBQRQmGaQlXztZbtV8BrZVbnv+HlzzoP2jZ/5LW2ZrJYerXY7lEU6h9ENhyDs9k+RhBh99athj/+dLf2z7Luyz2TKv9wB0Sm2rNSvKO4MFlhBRNyB2YmOQeJUbA4O+Wr/XoR7Fy1r72nyPffbR37cnNj+s3DHokV/Ih0tOZ1aw77z3/9h3D/xH4wFiBg9I10Zo1YdqG9lSB5qWedA9leyffvl/tA09I95Ri5lyQfGp/KRzsupTf8Ska/Viw/7stT+zl4/+XAM71kgtwju5a8CypJqtaQ7bf/vV/8Y29m5UamkpU5GGgN71i064KL1RCyFMhyaO2bde/BO7OHdRZcggh7JmhTQxZnWfcgdKlK0ea7U+31LUHzBWXnvLNRvs6Vdd7rOeSo9Nz4iANZKb8d0uWNrCMxwKo+jZLrGoeBhEkQpt1duvSHVTHXxJ6fdOFe2T6/fY15/+slWLvfIlmcgGcugD2Zxc4hhEeL3Sv6LEDDeluyOTZ+1bL/2l6uGY173KXNqmThpQ2aSlO6zLBwz8c9B+IdpcKVer1m4wOC1ZFQLRbmfqQAg5pcfsqT9Y7gJ5kbp+kQd5afmpvFxqd8jCkxl+90r6wNr0tHvsy7ufsRd2PJ5sBmEVtxN2hYXMfISsy1MasLbtldP77Vu/+E/SNRMZnEtVjDroaeubuuh2SOW2ToPi/+r3/8C2VFfomloRQeSHtdMpNDZDTt/IwQ4mk4r7xQOv2ssHfmmTarP8IRdxN5Vl2gHLyCDqPFeDRrjjR55RKAMpFkJD/BncD4pMkidmoWc1eK6zDhoFK0yj0fD3ADSlc+50pckGFwYxlSZ1h290QJ5K1qdGt0ODu28++zlbVxxUmpJDAyEfBJJvfRKeOueyZQ5JP7w8av/7979jF2sKI/9sW3orzFVlG9g1RYOEXh5Q1TfLdPxlQniQXAA/TeWJKu8P6TZYIEZd5HkQpS9vqd54ESx8ApfcI0t3Ix7fvMP+sz2ftD7ZsLwdcB39M/jDvzd5jnRwRgOif/PiX5lauPzQO1IeqT5UlEXicOKscJyjj0IffrdKbcsHwjz/kdURvkmPB7vR65xIPfmdUZiSdFBVofjynrL6EbVzn1jJ4k51kckMtTG36wjKOnrVBqWzTvXhnzz/gmxkr4cJBO4EaGeB3wG40dIfRobOHXPGGYxfQZ3BvRt224Pb91qt0Kd+p+2EsVkRHamwblFEWgaIDhZDx6wxDxdhqCCOzDZPlybt0vwFOzN7wg5dOWDvi2AevPK+nWodtfHyJWtURDY1MOFhNh6g5FX9kMB6ScRHZrQyJ/rYZC21WV1+myLVLMPZ3L/Nvvr0122wsIxsJAuueGQinVfMs1ZBP+n8GpLlxMRJ+95bf+17srN/ckE9Bvlui9jwECZ59rXrCkyHXVVnCCGsWJ89d9/TtrZnjc/CEzfdBga6Nlez1b1r7IGtD1qlXpF/dWZK1nWAOK5LxexfqcNgNprlRfXSjB0cPWC/PP6WZJqSXkWs6fDV8at7yEICSghwRnHoJ2fKRQ1qKC/JQV795SYSDvnchxLLOw4eXmNPbx5kpDwutM/bGRu1M/OjdrY9apf1x8CIB3tTKlK2wqBAn0n0REl1UaquBCL6NyWbiBcdOA/Vmsp248Bae2jjbpGcHp1X+YqQ0tlSdVJQOmbKVkeKowLhmFPdYBa83LTJ2pRdKly2UzNn7NDlw/beufftiAYAZxvSYemKTfVOux5VUdQmVA/p/FXXiJyOmwENjplFBqBlMcVao2ybhzbYpx573vqLPU5qdNldrm2vDRQsZEhtLD/mD7JRa5Vta/9a+4OnX7DlpQEVfbqNz7WS2pWqm5OOXD3E6GRJeYRMVSRLlSR8sA3Bkv6yh+ug8Qx75nnYWNeLqheeN9q9rrhTnS0pLl8Kot+KSp8JrKHHUQ5M+dPGh1oVe3bLHnt6x17558FRySPnxMj/OEX7vLP4SPyeMF8iVBppDamNfebeR2z7ivU+8+/P2pJfXa+qnrDdpU9YSGfMzPpaZyLlQwpmYN6oml2ttm2s2lSbm7LT85N2Vu19jAfm3Q5oAMPdRMKLwFPENFvVnEwYxa/4fODiOmaFIeu+i7a6NmSfe+iTtqrcT6JSdsn9QTKpP/ryuk1c+Z/HofMblq+ynas3eP2H5OftfKG93wBFSDf1SfnHrvLwKq95467BrEY602o4U3IzGudBponG3yehA4g7AxO2Qc1n95cMlJscutlQ6revPvyMDZZqrjdAWfnASenzh04YmPl2pWob2HKe+aDmsiSRskaDLck6owKZUtnMVkvKE/YA/0XrbZesovbLby9/pcUyUC8m8kZd8ONA4DcL2nvgdwCZnXMDhmVJXaUMdnahZ77fPrP387Zn3UM2XBxR5191Yt5ss+wjzRjIFMuzgst/E9Lns8oYw6r1NPust9Fn1VZNpIG5EP3BvEkLI6pz5TkRC6bFBMhzozJl0z1Xfd07hhEiShi2ZqyJPK8orrUXHvmyrSitVnj1DEqLOxGQe+LndquzI0XJoOJC67y99PaLdq5+RsZUJExyOdGVtWbwkWbr6ETU2dFpQlLVKdXavXbXyC57etez1quUsfekpWz7Nx/9IkeP7XrCtiy/yx+i9fPqCXzLRsmBWnPSzLr2ImxIJ+kYeEHS9/d9187OnrHpwpT4I8SOzoT5cygB+SICQiOjAuqLMlo+uMxf4sQMW1pCoPSkp4bywkOF+QwWs8fktSR90Dn5biJyzDLh2FXGl86oDEomZqEBh7o3Ob5Tmfy2AgroZFB64OVBvfr71N7fs/vX32/L9FesJ6Lq6nX/chSYjjimuBMBTWQ0bTWYdOlvRcVlxzw4VxUThwQQxmdp/Zi2xDKfVCU9esXHS3d6RdRXFYbshcc+bSM9I7qY61vkSZ+5DHwv4JofCfMi5lWV230jW+1rD/2+rZ4bVLkyW13y2T/fKpEBapZ6QlbfPR+pDkDqAXWnIUd1vt5xngEHhDDVJ4h/0tcClAxpUc9qfqwwvkygaH1qr4+v2WVfue8pW6bBMDuSLDSnG2BB4k7RlwIdCXKInq8H+RqSHl949Bkb1ndvVt7UqpIKlB14qC8M8POBGGvW8wEZ5U3c6IkyYFkWf9Ql7kb1aDyMQ5f45I4Ls+CpDqYs4yC4fKu0rNSUThVmQGz4yZ17bPuytSo3hZMeSdeh+EjXo83geczipbQg6c/seVj5kv1gYkPISfrHkXUglSzUZRwgXvKYO+q9xif+7f5k8yhjlqNtGByxfm9DKezSIOmVkQ7zNfev2WS75QawjSLQbE0632KYJT+ZzH5AeeoI+b1NK2N88xub7XfBFOdC29Vvn0WX7L2KmzLENrBzTFUDrW1r1lgPs+/6Q09i8IvJBQK/IeRmIfA7ADdZMlBuy2TAACSc09VCzVaV1tlXH/m6bS7fZUMNkcRm1Wq8aRDzB1mnE3KXzwelTswtllut/HvxEKLjZMHTzjt7ArF0I8XFPr6stZ5XT1eQESzP1GxFc4197am/bzvX7hINq3pHRuB0qzeLh3zoo11o2rRdtTeO/dzeG/2lNSuzxlpfHwCISHBbmwAMFHxWX0S3OZe2cmS7xZ5Gjz1313M2YMvVD/AwFYMBwVm7jvQFWV7bt96evu9ZW1YZ8bsPxOMDEe9e9ae8oh/IOnccuPfOgIElCOcbo/a9N160CclZn5/1mS0JYQVkIgFSQq/e0yaiUNXf1k3bXG7uEDgZ1x8vaVI2lO9UHghIvtyhb/9DZgYsdKx0PHRQCs2ACaKObuSL/UZ4OOq3GUzmek1QXslJRWU4XF5un3vks7auvNr6mqrD8oSqvN4IEOu0ppxOmg471UppVH+QbshY0eqqj+wk0SgX/HY7D6oShph8dh5HYVDZk9b9OxEbpdk0G2r32Of3Pm93+65CPR53SgWynsh1LhdwOXQCmVyuzLUlCw9B97Zr9vim++3rDyt/xeUidqoP1D3FB6FIuyIRS4qZfJKa00D5oy6nQV1eLz7qFq+l9gvhQVpvf1n+PUYlQ3rM0Pvtf53v1UD/gbV32xce+5QNVwbkr6Q2AIUX5IXQOTyv6fCOQFlwR5qpZOSUoKebXaP4ChrsrO9dZt987gu2rtCvwYZOtpQvlSGTFsjPdGoakOexyWXtLRHB5IjfNa6wnHdSmFLW2aQ/vv2Mri3Iod88Q4E14S2d/ZLhyW332aNb79XwU2WgcmzOMVmRgQg8rQR+Uh55/tgqktnx9QPL7L51W6zXB/uSTGlA1PM3lN4IyOMqyFw+KMERN2DuI5V/ygPpDhUr9uj2XbZ12SrZLGrM0oG4SCOhbTWl/2kNRO5bsc40bPV8lb1uJhkX9Irzc+laXhYpb/kUVIo/B3XC86w/75PU/wzJ7m7tHbRn7n/QahUeTNV16dhfrBUI/IYRtfB3CE4qMuRGr8VDY7K4bXVMA3ODtqG8xf7Rp/9ru2/1HpHXwfS2z8yMYfwgh5BstkJkmQpglrxenbHZ6rS+p61R4XXcipeBgAeFmENu0wy9m00RAOKoNnuMtfHFishQmX2q27a6uta+/uQ3bM/aB61nvpf+kNXBIgPElBOPzLQyy6Iw5yZP2iv7f2RX58fks+nLaehG6U1IG5JSbqcZanaD4ZY/m9TRSe/acI89tF5pKcesWfReCIIvQPZ9Bl6ne9Rl7tq425b3rrRyuaTOkD0CROzolKQciDIkzHfVmUMGScB9Yp2bKU/ZwTMf2P7j7ytdDRTo/MmY4iVuisMHQvqD3KBz6NDqkTW2cvlKX++rjIgUyaeCMmvHlnA5QfBZT+WN/bfREbN3rBtG38kpZjm0xi4YKUHSTIe/1VAHTYlB1CEO1I2yutA1fWvsv/j8P7T7Nt7tJMVrTZ5vfdGJtzI9+RpreeBcii3pjecB2Lvfly953XXK6vFQ5tSrRFvRqafgMnj5yPuQOvdPP/6c7VEdS/t5U7MoIySQ83rAcUJ21iVI7S3JhMObp64fNRHih9fcY19//AXbNLhaMeq8SAXPlJA2dBAwMEgu1QketKWG+cBP9fNWDq3i3wc2zI57HCl2ljnkS2LmK0pTBdCjOrhX5PJzjzxrQ+UB+Up57VF63qyAAis7HkeS8s7B9ZgOPU3KhlyBXK88q8H7CGpqzruG1trnH/qkraz2u1/0X6owoJVuFRkDGO68cHcin12mTEkjJ7d5/MzWMgM/qzJh0Mfgz60pMmThAF9ezgrIw/YsqeqRMu/dut2e273XhpmskAd2Z8lViNyeIYES4thPeWSLcbL0ZahUs6ce2GsrecNvu2Vl8kMdUZ5uBOwJeUttKSGLdiHe3OWgbPvEXu9Zsd6e2nG/BpRqB5nelgrSnOsWej1fK6lNF2x1sdc+t+cxWz+0wkrsWqP2lKeIrOiJclmcOU8DJa5xnjwQJwNr8tyZb68bPKMFKW+1rEd95HO7HrCRIq/30jllGlkq9BlZmEDgNwXqceAOwA2CrHMyHKmlJ5KAyplF4QSkQD6w4j67pZP6d/9YEp3nLzf6t4THuegwftw+Z4tE1lLSGfWJkK7v2WTf+Mw37bG7n7IVtTUyRj2SFyqUQHrM0OKIQzRGpIcHfRq+NCafWc6Xq6RZ+cx5HmV0meVtVdTxqSOSFVU2rSKCtbpnvX3p8a/Zg5sftsHisNJVDpWgP0aI3IJohM5jLqWXUtvGW5ftpV98z0YnTjtRnlMSTXVKkDi2PnMT7z1L0jV/yM2+44OVYXvh6S/aQGHY9emzZySiD++Qsl6VOFhyMFxaZl+Q/6HCMslblR8ReYKRhjvKCfl8Dtwq5YqTY+z5xNxV+9GbP7CzE6NWl478NrRk5aFGOuMkmYLTqwjEyQur9t79sC2rLJO+S+p72yqvhsIkoo54pAoISxZwTjxxkp1dV1LH4t2c+wOp3ihvEE55TrP0yoFkQRq/w6BwaSCicpZY1EfSxQfEjdsT84X0gK4n6EpDch0LhFmYO1b81AroHeHxcY1TFNc7wqVONtNOdj5HVlqpDDikveiL+GrzVQ38RuzvPfUle2rnEyIt/f6Mgm9vqOvEmeJF/5BJlZjy4Ou1cRpWicp/1M2TI+pxlj/icIdskLm0vnxVZbl99hOfske2P2SDZXbHJh1kTnK77AjNievg164DE+vki4fcuCPTq3a5a2SLfe2pz9v9G3Z5XaE9eSLULcnILkfesNFeJmNOWFyWBXmuc9k1YkFDfLotcjLEN0MOp/FO1HjgepV0/dy9j4nsPmurykNqHSJrReqHpGZN/w3QmWYnVGUX09eH1z3OkyeXIbt7IJdJ5/6pqzlSPe1wXOdChs5j2i27U9UaZp/YtNNeePgZ2zq8xp83YHbd12HLV07QGSjzrILrRKkn3SaX2jKDGg1ufCCYSHyqxyndNMgRKAs5yoQlbhXVz+WVAdu75V777N5nbIUGDflsMXvWEyaFU545TaYEPpMvQQcE8Xt2JT4Ltq5vmT3/4GO2tjYkIs1dO+xU0lvKGW2cARp3U5LukkttP9er++zQI6eRhxn1e1dvsM89/KStqPQ6mWWCxUsn859SSql1gt/o1N8XgecMWZIO2gN/qb1Q+opJOuQx/3V9Q/bFJ56yzQPDNiyzz4AqyayAHh1+CaawC9FzLuULf/jHpeVeupo5JrKw8SM9PfapTzxid6/fZD3YdC9/ydtiwia1gzxqLyOuKwLanx9zMfcQCNwBuF0ILD3U/r3xtmVYmN3GpJZEmllTPC+SgUmbL0DK5NFZF+dlWNTq0y3MisJzWxOzeJvA+LklSccQKl/BzIbcXMv4L53ssK2wLzz8Nfv6M9+09b1brGduQPLJAzsDSGZm8CByc8wqNwtpyUyr16qtHpH7mvvF+PEAF2TUjWH2R2LqB5wI04Gxfryv0G/3DNxv//jpf2IPb/qkhgwDLhLOZymlEd66qe7PCVUBNqqrk4Upe+vEW3Zg9IAGC7ydTjFLJ231RewSUinW6AV0xFZ8daXXEr9PxLun0We71+yxZaWVyjf6RAUogRlq5U9h2LHFu1UMraLu1XBm68B2e3DVXutt9HuPxvZ8qYOWtCqTcluDG9bYKxjb/tFpl1v9NmlXbLRx1n703k/sSmHS2j3kIcXLGknyQxzMGCk619mgDdkT2560vZv2aqAgAgRRY/aN9NS54p+gOnRCDjHzjlofzCaX5dd1LR2qsCSSd5+eHzoQyoPBEvWRh1PxDWHAwxwDH8VHefN2QNLhhS81J1KisiJiJRHG5vyMZFUqXk9Ji/igCCoDfUDlme0nLn9rreJisEWN6HQ3+mOOHMLHLX2VoOJVb0xekDDrfNEiafGBbvjtZEhhetSW1hfW2Dd2f82++ezft00D66x/vtc0rlTMifxQv3hAs6Jz7AlOvIlk0NGyT47I+VxTPxlgoWMupWEPem+LwdGpl4vU45oNtfttW58GvM9+3T616WkbmV+uOFSvpFZWc/GkQKpncrRfyGwG8uHyy0HuOx3lRckgmofRQLu/1Gc7BjfbP3j8K/al+z9rq/RXKpEC/uVRZKLIW4BVwCXpnzz5w9386bc75dF3i8n+IJzsHIPj7baE86U1yn9F3yXlvcoSCq9PBevR367+u+wfPPIl+9yuZ21lYUh66PV2R71CZl7Vj67kPTkhz2f2M4EfVFgVM3mk7bBUDdKLXKyP1/BNeaNGqYxVVmkvdMWkMiQ9bj75eFe2CfKF7pDTyVrmOE61S3VbDo0VIWHlmvWpTj+y7h77xuOfs90rt2jQp/O8KEt/BXSCbZFO2A2opQT50wg76UU6Z2BOY0EWzz/OH9gkaV2X4yVF+TIU/HPXkwHe2upy+8JDz9mXHvo9W9cakGzykymKr5p0kbecNDOeXJ4fKcQdf15Xst8sE3loxRb7+t7fs4361dvgOQ4kSs8Y0M3wZG1ZtlyiSn/EmYi+lOsDFiZBOGbnqqrk5VkYBpAD0s2T23fZHzz2rK2r9ClG3kQtfUgAWhLl5G02d+iRc1RodKFjXvDFm5ex2W6rlD5l6DpXDF4nCK5fnjf559km+pCK3KZqn/3jx5+zJ5avk8WUjtA/9aGJPZOs1KWGiLUyQRHiKBvy1FaeWOLmL5mT80WQSj8tpWzaCjXa53fca49vudtlYD8xKllFfWFN5chLwrBwDDYUlctWUcQl9Qs2z0YJ1FddCATuIGKf9TsEHtqkg2E2+nL7gv3y0C/8jYElEV0oNEYdazIvEuDLFjC6jPJlECAkvIJjy7rtttH3psWku2n+tUHng6EFvepwV/ettd2b7reB8pBdvjTur9f2mfMyM+gyQhWZUhgI4kqKoogYRL0iMky3Ajn2XVMUH99OABBVDvsFydnQt8V+X0TjU3s/7cfM0vnLyAmEwYaEurVOr/nHWKMHdHdy/IT91Q/+0q4WxqxZYx06gQTSuYmrNGq2bfld9sWnvmyrq+tcbt/vHUJDcP15OhLCjxEWefmS7H0jfXbw8AGrz2pApfzz0Chy3syxbaW+bHJ8yvqrA7ZxxQZf3qIoPW7vhvhBR+mnvJvSgKdoGzZstOHBYbtyccJakzxMhXZVTxi0tFT6DNykH2fH6uX8QVIRwUZ5SprTAEUdT29RpGrzvbZhaHMi5J6m8iR9NFSmdQ18jl44bCcuHFOHnQYgPFTJcgh/MFj55MHLMmUgJbB9XI+IzFP37bVBkUaIE703cTp0wIwhQO0UOy96OsQexxNnJJvIr3e4N3aQtb5Gj/W1qvbEvY/YcGVQ8agsdJ5xQUooSy8lcw0gQ5AYJzI6Xt633O7ecLfq8qBNqwzm6qqbIv8F2hVTpmJsvKhmXnW3oDaFY5/wOeXdfzOgk8596Kj8JzIBKZKORH56GiVbWxmx5+5/0l549HnV5dWKkrm/JMOvC+oeWMivH0hu6Qp1rVm+yrZu3eIvsZmd0DCxwR0VyS8S6jORIhA0D2gn4iQdSzZ941KDE4iXn9IxO5KwLSVp8/r2pvwzfMECMeBdPbzGPrn7MXv+gSds3dAK5ZdZW5FAERZ2jSIewqIr/bu7Fdg2EiLGQ9QnJi/aB+dP2IzsEi2SZwYaGtynt8GmJTqUBaXAA9hsubn77vv8oWwqHG0H/d8K5Nzly1SAOnpqNdu0eaMN9Q3a1Ni4TTfYYlZpyyfzqebLPFI7cGVJFgYX/psI5Lz+6Y+tD+d4AJLJDfdDXiSi8tBbn7O1xT57bONO++yDj9t9q7f6MhhytQTVZgEMXEb6h2zrxk0ux5UrV71OIFteVj6okkuDbOy16pbyzA44YKEeU77Nlm1ftd4+u+dRe2rLLlvld0pTvvdfOGXHJy4xjEl5uMbpo+M3g4/t/SO2fd1Gz7cPUDLCTnFcU4I6t3As+DHn5Erlsm3ZssVaqv/jkxNWb6mv4qFXNds6dp28KMJyNtCbF9H2pFToPkz1bzl9s06d5wN29g3bV3Y/Yo9t2mkDagBlJXhVfeA7Rw75Xu/EO6/6iLx+V0XhiRvyngan8xpQV2zP3ff4tpTYwEDgTqCgUW5mvgJLiTnIkJou5OXk5GH7zk//XI1/SiSMN/zxACFkmLXN8uW7mtAxYUhEkGUwanM99vjOT9ojOx63mkg1hHIpwCwRa7F54NRmZctk4FgHOFOZtvHCJXv5/R/au8f22YWZczbdZBfaeSthEGXYWOTgnVRm/NrMROqP7QdZcgKxLLX03SzZQGXAhgdGbM9999sT25+0obll1lfpt4JIJrf4IQg5fGCj+NBXsoAYWOZZG/bj135g753eZ43eutVL08aDYOkFSDdHX7Hf9u58xB7Y/Anraw+qk+jJVhrJqKvGQwoBaZNmPjPC7EldJTWtsnr1wM/t/SPv6pzKKiP5NwP+2Ne+b27AVlZX2xee+aKN1Ea8bJWw9EaHgU91PvotNSbowLdk1N+V5oR9cPQDe+PUK3Zu+oxNTU/LA1oW4eaWLJXDRScwcUgXasIQq5HScvvSk1+xx7Y8YVWVQ+qoSBM6P+d5evvwWxo4vqUczqoOqsNRfMz6sR6+rZ4qPbBKXtQBqgOvqoP+h8991db1rFA+WBbEECIlT5a8W+SgpXKR7mZVp3+4T3obfU/Eh5XCN4HCVed6rV/uK899wVb1Kg3VDSc60gnZpPP17tv1tgjfYlSy810qKYx0wB0e6ke9xAD5ir36wev23on9dmF2zKbaqjuUteIui+Dy0DPPIpCRnPTzXgHgxEDkndnyQnteg6CarRlaZVtWbrIn73/clpUGbVDki32WvQOnTJYAEJ9Uqnm+1SrmkZnzKn8NPBjEoJsrTZXlkf22/+SHdk6E90pz0upzdYOfwCv97gEELY+Q+FxOxQTxyB2XPQAWhn2EqjZcHbQV1WF7YNsue2DHvdZf4KzTdy8TAvmDjAttlXqQBmvpzM3BoJ67SrxAa9/ZI/b9919TmbE22Icc1mB9BullIzbip47ye7jSZ5/55LO2XN+8bj/NDZOvjwd5JEaPjTJW+pzhdfZi/WoXLZtqzdrrh/fbwdGTdn7sUto7Xe2Bh34bqlMQO+SA+LKefSFFRcUxbdn1S/TKB8R9oNpjq/qGbMfIento+y7bvHy1wkIIpSnFgxS+D7tHtARQJnmLJwSWIfzhi2fszQ/32+iVMRufmVL9UnkrsYauQVpJ39uNvtmP3wd70lJPtWorav328OYddu9dO6xftmFA9r2C8ZJ/tnf88aF37J0zRxVfajs3Azsm3b9qgz22+0HrVRz8JlHupiAHZehLngTqrd8xSj+VJ/mQHWois65hx+oKPN6YtVff32eHzp+28zMTsjsKQOVX3JQFdYytKJlgoIaQJg8EcxekoutDtT7btWOnPbl1h60pa8gtg1dhYKYkR2cm7T+99jMbVz+pMbq3IyYwiDjd0ZPO5NJd2XkbKffY5x99ylYqTreNgcAdQJD1OwXuNcpIQITr5Sm7MnfeWPddbIt4s1sHs+qsa5YpKfuyEro6DAOGtO0zMrxls2e+L/WC6fKvD8SSUff90CHMWS/WlhVjGcnMPC+GmbSx9gU7dPyAfXj0Qxu7OmYzIgfMLkP06WR9Jlnh51sMPcoiwyJdZXXyfatsz44Hbdua7TbUs8wGegasRwOPssgjhs1n+LIeHZudBMqqIIY/HQlpQDBTn1bHOeszow32yhZuZ2kQyxn6NGCotiEaNScXcyIBaXYkEVRPlqnwLFVXja6zbIk8sqvLZH0yLU1Jwt4UEMBKqWIF6aRaqrleeqsqvwWgAdcC3VPSfZb1VrNpBREHv6Og9C/PXRaBmLJGsyGS3rAZkfa6yHpTv/0hMslUrdasrzTg5KxSUhkUe2zNwBpf/84dWuoMd0lIESJGvAyAZlvsxc6sd5Iooaj6CSFShyaHnhoqK5bIrKoMWYV9AIsVJ4tF1ePUxUM4Uj70qcRURro2Kb1R173XvAXIS01/QyKI3G3BGjF5l6olyyKy0vkYQpCbL77RKS+1YRDCHaQZ5ZXBz+XZCTtx4bQdOHzIRsfP2wwvoFL98K1Es5x4Kvr3zl2dc2+rZhuH19rd23faxtUbbLg2aL2lXhuQvhlQ0LGTPfjwUuFG2kplpysiLdkJgd1hWtK1SKZ0PTZ7xU5fOa9B9gd25tKoTbdmRGjQgTxnkfIFGUt5VDtT2TrJYgvBUtV6pPuNI+tsz/Z7bdPydba8NpT2i5cdYvkPQ2f04vE42ZLLNJfjo2duDHZaYqnFvOrzjMpq0u/OzfkWeqCpNuD1zNtcipGsMCPrW2WKXPmwAe8UwMfUjU6gPY8Nsk5ApcdyIWaV8xnXSZH3Kel1UkTwxLmztv/4ETs7fkl6Jvf+VI2TQHgb8PgUVYoXrqgLur5saNh2rNlgu1dt8oc+h6q91qcBnz9LoTZSVlvNB2ZLSdZpCi0GoGWRW/od6Zl6MNmctasz03Zx/LKdv3TBRi9rMCI7gr2iDiD30MCgrVw2YmtWrrTlQ8s0GJItUfn7cjvKX3XH64scFmVGNintXHMD6fHXAX5VVN+Yea6hPDKuD385kb5pt51knYyg13RCBzrntFhxsC98VW0PGWaV/uXGtJ29Om77jh60U8ob+8VT7xutlj8D4OUiCWoaoPdpAL5hxSq7Z/N22zCy0gZqvapTqneKK9274VP1r8UbvNmggEkUSDkDAGy2qps3IYRDnlSXIf/LWcePIb6BOgKBpUCQ9TuFfFIR21RsizTN+E92GPf1vFI7D+6xNpL5LN7EmXlw/3QKLH1wq07nkF3+tUGvBedV1BhA2BB/wM2RrtNJTpcnnNjxcOrUzJRdnrhskzMTThwb6tSYsYXsl0VOa5WaSPmgLetfLgM4JNLY6zP3zNb6WnbSJAnPmxwW1K1xMoLpO11zeJXMOjHCAvQACM/U761AFOrxScqhyOYUjm6ZmH3ZhyfDhw71jSi5NvDDNwSHfN6O+gtsXu0HmSOQxy+XxZ2Q5TslmBz+KRGFYZBCx5j7TjJxdvEMQKqiBiMQfK7ywhDfPzqLkyVWbHuJP5YuEYvnS/r1QRPeMhGA83vpC4KM3Gx7hn/2LVb0KQ+Sr1Bkbg7i5pqUDHkk+vA0OebarcHACOLldzokP5N3FDXJMc+FRlM8N46t03zxoBiaQAxfiqBzxEPHLmoicjFnE/UJu8hdoxkR2jp3tkQWIHz6xn+tpro8MOBkdbDSbz0ismlBkksJx5OYKW6wpDNpCAvIqlyehtcEz4wnTkbTBT+ZbAhL22aky6m2yPvkFXfTjRknZK2m/GhQ5HlV+JJIDHcjmCXur/Xbsr4hG+kftuFqvwhVVeQD+0RFVDp5Ut5mkUQahlDpQn4pr29+Ij/5McAbtaeCLPxWXJQPcTDr6RHoArOu6Re1TND1rKnqmB/ZsUjY3wqETQfpeOG3oDRbmTysr4bsTtZnbEJE9+rUpM02VF/krT7HIpkUDrnRxEBvr/X2aDDXLx329tmAasaQbAyDP2/L+KPsXHAc4W/PrtwuqD7EmmJOB5yjGBlosPwIeg0J9cFqlnfkh9D6i7WkTyeuulRNlxcixP5AmLOf5ls3yv9CdbwJSJ802NPeIyAeOVosUzReF9yn4vWDzB8ui99P69hn3v0YEl/w+gS5nlK/dHl6UmU2q8EID4+nOKqVqg1SJpSPBiEQd+4UkUfsPnevfOmdPKe8SxqSIM9y1Ad05HWU8wJfDPKQP3XPWXuQTIHAnUCQ9TsFZtZpuPqHnBbmRYX4zaw6GsfR2EvsPsEMQGa2M/++ri4zEsmULZERyC26omMbRTpffkJEfLbZrbucs6SMHiITR5kIfk7Vhr9km9KFZK4yT/kxwbKgGL4FQuVX9UfeZe3zUMnwJ5mAz7Xzo0Pu22JIME/C4D9zPrOuk67RBbIuT1kSCOrfyCODjdwOwvuIYxE3ajYF9gBbSE9xecYzITp6tHSUPhdjyY7cP+WOfFmdcBBXZ5ocKw4N8oga59WN05moTuJ9il3i+3Qg+UrpLiSc/eSbLHn4/FqefIdf6iU3pZmFxwOzhWngwfUsr3J5MrdCylKeAPGzPCKdobNNUoNbR8gdqRzpzklHGB16/fPja8vy45HqpdfPziAeF+VLM8HHEgHxXY9yHxU/Ez6tLXcvKrBkIxKovb78RccM3pI+dM7DcTWFg5iQM46dmpG/LO7kyX15+jlfd0KuA75yr+6LyPEEqBLZ4ceBsLOSiya8KAXpKx95PPqi+NKVDD4jnoBcPrjWMXZrwc/NgOcOjx6aNPNo/XrKM4f5gJNj/OZBOZNZRT+Xu1yO3J8r3eNMPz3udNDxubRIsipufXi+UoIJStDbFS471QmKzlcf5eF0gmUkzBpnJikJncUBPA3qSvb7ZkhLn7IfeVwi63mzIn2QX3LwAz3myC7Q9riYbNli4oullILmP5PvBK9n+stJd36V+kZrIcjCXRugE8iII4zfmcFTdt6RHXN6Se1BINCBIOt3DOzyzcg7NWJmFfgTNU+/s5bOhLobjswC+khfLnVFGBbmMAkNbfn1QVeTkxoGAYmUXmtgSHnB2LssyKUuiuNMNuIhFJ29e9Cvztlgz3VmTPMweEwaSQYzpY95018WMKWFWyQbuPyT9MrGg4AdyMJeA/Sbn0cM6Zm120lu0svy7YOHTiSZ/Vpn+GvY2o2TbBfYRyDJShrpk1xCiK7Vc9IlYuI7xYb2FruvRGeuxbUyEI5alh/nabkT8SENzqd8J6kSqUjSJeRH6DshlUWSL4XLP1OOqLu8shv5qLvpFrb80BuTT0iXDxSul/ej8EHTQuz6VB2CsBMSyZhdTxLmct4Ci1EtfgPPlGL1PN26LS3wRgXj8Nqs5HHpu7iEc+sQAaIGIjJJ1kUgB7957oTvNDcNUnnya4FweX3Xt5B96bQu+H/+jR2SRzzI4T8vc65RH9M9hFSzrofHewOZbwV/t4Gng/cs3oxEIQOtnrOdms27Kf/MwuKS9bgNpMQWDj2e7DMvY690CIbuMrUkHwn8xi+z0zkW6kf6uRCABzcZVJEPnJM4ruEWPAudx78usrQXxPP09AGhzvLEKW+m2WWACO7ykzj5ZR04LYXnWK7xLKAm93+bZJ3yc2+d8XT0Fx8bhcLlfnIQij/qCtY8txDomV1iFgJkhcNP5AVYP9eJ54nr+o1u9JOgeEsWchGEpy9n4OI/dDEN5lJ7I24e2CXUElqDQOAaBFm/Q4BGcXuurQZM4/d9b/1savE0al+nzuxpZgA6jUsON2cYFPfw64PNs9qSAtLrLz3CQgHSlUt74bIOjwECEL0WU+Ecq/ggChxDujFO6dGznAKy7IVuSb/yfMmRTeKg489z4d9K0M/wQ8f5NQ+WEUykIS0k4I91zWwdeQ06FZZDkUFWO82ux7fQI+mKf6WBi5PMFCj9FvLDa4j7TdAo8VhXSjPpJBFn14XHnfwRLVEyKMM/FziHLzpSP7VwyzxDzhY9jsyTLrO8g1hASjP9pcGBn/Y8pwEgfjz1zKXf6RxniIs/fufnUjjAGS9d9fqQdc77zJt3etkaafnwDhOZct1+LCh/WgJdLnkgPOcWKTpfqZZkv28GguMWvzy8/5Is3HRPuA2ynrmsVNKRovHyIT5fD8OJpeuec1OccpqD9wQAAAjNSURBVHpdfrOf+PDtXiWTkxWcLqaQiyCHRZbNdMDXHF8Hdn/pDIsPzqS6KL1nhMa3TsyuO7JAee2gPi/WpJsA79x1zKs3BB+I9Hszw3FaztMGeMmYVHZG1zgpJLF+JSwOAFJcPH+8kLict1Ed4hbSlWMJz8KJjwHLeFhtSDn4cq48YyATfeF7qZDHz3eHfK4qks9EoA53igM4pjovzjgLbjcW859F4+G9qYMb1KkbYdGKZPBgKew1MSzEmw4/Ek7wpTScl45ZtpQXG4GIK3eLkSVg4VO90geDTOpcmWd1uJbOu63pzBN+8apM58s5MeeQdbcHiaV7BAyGiCcQuBMIsn6noA6pXYb+iDpJw2UmQNWo2aQDgpZuL2ZGQV88bAoZTYWRWr8bDneJAC8FEvFFKsXpUy2ZDAJGKBHIuXTLz0/yzVHuBIRMgiZ0XEpQPvx3isTnZzjM3KJfpUWafsRp8qo/BUZnfjIH8bgnfdxAFddXY3bVAYkwE5jYk59Fwg7SoGORUCfhEsGlPJApkd9bwekr4d1lJ4GCcirjG54FLucEGnhHoh/OyXEaR0Gd8b8YWf4bJLmsLueRZm5BTMWdefZ6RhQf8SMsRq1rCJBkgq7hNeclHixdcPC8KYdsFegz6wUeeORMyao+W57yeyugAzLM/vpJfyiL9fUKTPgsjtuISqCRUcMpa2RIofhkH3H27gbt2yDYRVEtaABPlCSH0hZbgg88le+0DnlpwEAebRAjLT4fnzkyBVCm5DLd0dCB++FA0LW0kw4/yC/yZRcWPhd8C6zlT3nye3fElV/USe76pVbETjBZ+MXADsovaZ0qe5tWSiQpj5s40aXnJfudIGH0g3rApaSK5Ns/c/+LAW6K1I4zz4T18Hykc+jVj/SRX86vussbAi4fYHQgb2tcBllTWkSmmPxU+k4yfTS2Xw3oKOkpgXhJ9ho5OPYMpcNOh78F/zh9pD4huy7nNkrfnpYOKA1+/23h0QuEXQifnwQ6yc9kga/1D3I5F/OW1RNdyOuVz4QD/UDe9HOxHhAHnP3aeASZjlTvs3TkmFmnzeENfs512mg1u7HJKkP0kSxfILD0CLJ+p0DDVuNFuTR273j5nZ3DCPgB8HOLZjadzk1KblzSr18fGL+OOHMZQPaT6y6fI0u301/ncY7rxcusX/pMF68xiKAj+dw3crnv6/124rqIbuQ1mXiSWIixA/lVQJog95N/Jz/X6OoWuEas/Lgj2s5TKe6EDi+LF1QAnVJ2IvfvgJl1nrgmsgx5nDe6BjqT8Uxc62HhTIe/a+q2HzDEAz608aMO7x+LFAefeTmAxdr3t0OSYDG2FOPCUWbqfMeJW+Damf7kcnSGvnVMt4/cAhCnx5vEXUSWGP7cT349/84CZrn0z1thIS5czjgz5GUMrikRTmZeOcwdfq6N4eORhwHXalfggp9IrS8dgcWWfLvpLGIh0oQ88Ry3unQT/+CWYW4YP7m7LqJfA8R7oyQXUsgv3lCWhBv5vVGcnMPxuyO620ZH9DdF7q/T/zXp5hcyfMQuAff4Ea8LuMZugyyOHATP2wngGo7f+aAxD5P7CQSWGkHWA4FAIBAIBAKBLsWvOoUVCAQCgUAgEAgE7jCCrAcCgUAgEAgEAl2KIOuBQCAQCAQCgUCXIsh6IBAIBAKBQCDQpQiyHggEAoFAIBAIdCmCrAcCgUAgEAgEAl2KIOuBQCAQCAQCgUCXIsh6IBAIBAKBQCDQpQiyHggEAoFAIBAIdCmCrAcCgUAgEAgEAl2KIOuBQCAQCAQCgUCXIsh6IBAIBAKBQCDQpQiyHggEAoFAIBAIdCmCrAcCgUAgEAgEAl2KIOuBQCAQCAQCgUCXIsh6IBAIBAKBQCDQpQiyHggEAoFAIBAIdCmCrAcCgUAgEAgEAl2KIOuBQCAQCAQCgUCXIsh6IBAIBAKBQCDQpQiyHggEAoFAIBAIdCmCrAcCgUAgEAgEAl2KIOuBQCAQCAQCgUCXIsh6IBAIBAKBQCDQpQiyHggEAoFAIBAIdCmCrAcCgUAgEAgEAl2KIOuBQCAQCAQCgUCXIsh6IBAIBAKBQCDQpQiyHggEAoFAIBAIdCmCrAcCgUAgEAgEAl2KIOuBQCAQCAQCgUCXIsh6IBAIBAKBQCDQpQiyHggEAoFAIBAIdCmCrAcCgUAgEAgEAl2KIOuBQCAQCAQCgUCXIsh6IBAIBAKBQCDQpQiyHggEAoFAIBAIdCmCrAcCgUAgEAgEAl2KIOuBQCAQCAQCgUCXIsh6IBAIBAKBQCDQpQiyHggEAoFAIBAIdCmCrAcCgUAgEAgEAl2KIOuBQCAQCAQCgUCXIsh6IBAIBAKBQCDQpQiyHggEAoFAIBAIdCmCrAcCgUAgEAgEAl2KIOuBQCAQCAQCgUCXIsh6IBAIBAKBQCDQpQiyHggEAoFAIBAIdCmCrAcCgUAgEAgEAl2KIOuBQCAQCAQCgUCXIsh6IBAIBAKBQCDQpQiyHggEAoFAIBAIdCmCrAcCgUAgEAgEAl2KIOuBQCAQCAQCgUCXIsh6IBAIBAKBQCDQpQiyHggEAoFAIBAIdCmCrAcCgUAgEAgEAl2KIOuBQCAQCAQCgUCXIsh6IBAIBAKBQCDQpQiyHggEAoFAIBAIdCmCrAcCgUAgEAgEAl2KIOuBQCAQCAQCgUCXIsh6IBAIBAKBQCDQpQiyHggEAoFAIBAIdCmCrAcCgUAgEAgEAl2KIOuBQCAQCAQCgUCXIsh6IBAIBAKBQCDQpQiyHggEAoFAIBAIdCmCrAcCgUAgEAgEAl2KIOuBQCAQCAQCgUCXIsh6IBAIBAKBQCDQpQiyHggEAoFAIBAIdCmCrAcCgUAgEAgEAl2KIOuBQCAQCAQCgUCXIsh6IBAIBAKBQCDQpQiyHggEAoFAIBAIdCmCrAcCgUAgEAgEAl2KIOuBQCAQCAQCgUCXIsh6IBAIBAKBQCDQpQiyHggEAoFAIBAIdCmCrAcCgUAgEAgEAl0Js/8f7E7eMU1Y1rUAAAAASUVORK5CYII=;imageBorder=none;imageBackground=default;dashed=1;dashPattern=8 8;strokeWidth=1;movable=1;resizable=1;rotatable=1;deletable=1;editable=1;locked=0;connectable=1;" parent="w68-odYr32PwejUC4xN6-35" vertex="1">
          <mxGeometry x="28.092615068621058" y="34.128466062925966" width="143.81476986275788" height="56.01717860143776" as="geometry" />
        </mxCell>
        <mxCell id="w68-odYr32PwejUC4xN6-36" value="" style="endArrow=classic;html=1;rounded=0;exitX=0.5;exitY=0;exitDx=0;exitDy=0;" parent="1" source="w68-odYr32PwejUC4xN6-1" edge="1">
          <mxGeometry width="50" height="50" relative="1" as="geometry">
            <mxPoint x="480" y="530" as="sourcePoint" />
            <mxPoint x="520" y="480" as="targetPoint" />
          </mxGeometry>
        </mxCell>
        <mxCell id="e1ZmgfkXP5OLD1fUaubU-3" value="" style="endArrow=classic;html=1;rounded=0;movable=1;resizable=1;rotatable=1;deletable=1;editable=1;locked=0;connectable=1;entryX=0.738;entryY=0.946;entryDx=0;entryDy=0;entryPerimeter=0;" parent="1" target="w68-odYr32PwejUC4xN6-26" edge="1">
          <mxGeometry width="50" height="50" relative="1" as="geometry">
            <mxPoint x="520" y="400" as="sourcePoint" />
            <mxPoint x="490" y="340" as="targetPoint" />
          </mxGeometry>
        </mxCell>
        <mxCell id="e1ZmgfkXP5OLD1fUaubU-4" value="" style="endArrow=classic;html=1;rounded=0;movable=1;resizable=1;rotatable=1;deletable=1;editable=1;locked=0;connectable=1;entryX=0.322;entryY=0.951;entryDx=0;entryDy=0;entryPerimeter=0;" parent="1" target="w68-odYr32PwejUC4xN6-23" edge="1">
          <mxGeometry width="50" height="50" relative="1" as="geometry">
            <mxPoint x="520" y="400" as="sourcePoint" />
            <mxPoint x="530" y="330" as="targetPoint" />
          </mxGeometry>
        </mxCell>
        <mxCell id="e1ZmgfkXP5OLD1fUaubU-7" value="" style="endArrow=classic;html=1;rounded=0;exitX=0.5;exitY=0;exitDx=0;exitDy=0;" parent="1" source="w68-odYr32PwejUC4xN6-1" edge="1">
          <mxGeometry width="50" height="50" relative="1" as="geometry">
            <mxPoint x="400" y="500" as="sourcePoint" />
            <mxPoint x="450" y="480" as="targetPoint" />
            <Array as="points">
              <mxPoint x="450" y="480" />
            </Array>
          </mxGeometry>
        </mxCell>
        <mxCell id="e1ZmgfkXP5OLD1fUaubU-8" value="" style="endArrow=classic;html=1;rounded=0;exitX=0.5;exitY=0;exitDx=0;exitDy=0;" parent="1" source="w68-odYr32PwejUC4xN6-1" edge="1">
          <mxGeometry width="50" height="50" relative="1" as="geometry">
            <mxPoint x="535" y="530" as="sourcePoint" />
            <mxPoint x="590" y="480" as="targetPoint" />
          </mxGeometry>
        </mxCell>
      </root>
    </mxGraphModel>
  </diagram>
</mxfile>
